<svg xmlns="http://www.w3.org/2000/svg" fill="none" viewBox="0 0 22 22"><g clip-path="url(#a)"><path fill="#000" fill-rule="evenodd" d="M2.157 3.714a12.067 12.067 0 0 0-.894-.97c-.074-.072-.01-.193.092-.175.798.143 1.857.029 3.016-.096 2.791-.302 6.163-.666 7.87 2.347.193.164.345.335.492.5.127.145.252.285.397.413 2.24 1.997 6.238 5.04 8.188 6.193.56.333.273.902-.316.67l-.15-.06c-2.285-.903-5.936-2.346-8.169-.69a6.748 6.748 0 0 1-.153.154h-1.894c.011-.139.039-.276.083-.411.096-.297.3-.506.512-.726l.012-.012c.397-.408.94-.966 1-2.208v-.001c.084-1.827-1.524-3.104-3.156-3.42-1.682-.326-3.839.247-4.744 2.852-.31.896-.41 1.986-.526 3.247v.005c-.189 2.054-.425 4.609-1.672 7.746-2.279 5.739-.979 10.848.401 16.254l.02.082c.474 1.864.96 3.773 1.31 5.758l.457-.982.116-.259c1.88-4.292 3.96-11.339 2.835-16.782-.347-1.677-.676-3.01-1.226-4.276-.089-.206-.022-.384.062-.444.093-.07.287-.013.495.167 1.083.931 2.062 2.71 2.387 4.207 1.284 5.918-.955 13.18-2.919 17.668a96.584 96.584 0 0 1 1.97 8.711c1.807-3.263 1.692-7.026.672-9.46a.853.853 0 0 1-.056-.48c.481-2.77 1.546-5.052 2.577-7.259l.008-.016c1.22-2.616 2.373-5.088 2.663-8.369A21.25 21.25 0 0 0 14 22h1.726c-.006.57-.035 1.154-.088 1.746a18.988 18.988 0 0 1-.508 2.981l2.383-1.372 1.152-2.669a.862.862 0 1 1 1.581.687l-1.285 2.95-.68 2.858a.864.864 0 0 1-1.678-.408l.256-1.052-1.707.981a9.086 9.086 0 0 0-.207.124c-.195.12-.418.256-.583.317-.47 1.248-1.014 2.416-1.55 3.566l-.005.011c-.994 2.129-1.935 4.143-2.393 6.572 1.579 4.038.696 9.211-2.184 12.674a.866.866 0 0 1-1.517-.41c-.428-2.567-.943-5.374-1.783-8.697a13.09 13.09 0 0 1-.86 1.424.86.86 0 0 1-.922.323.857.857 0 0 1-.633-.744c-.294-2.81-.978-5.503-1.642-8.107-1.452-5.687-2.818-11.059-.332-17.317 1.15-2.891 1.364-5.2 1.553-7.24l.003-.029.001-.015c.126-1.368.234-2.552.613-3.644.353-1.021.855-1.817 1.443-2.423l-.036-.007c-.885-.103-1.365-.666-1.961-1.366ZM9.83 9.32a1.177 1.177 0 0 1-.456-.056v.001a1.178 1.178 0 1 1 .736-2.237 1.177 1.177 0 0 1-.28 2.292Z" clip-rule="evenodd"/></g><path fill="#34D058" fill-rule="evenodd" d="M19 13.974 13.04 21 10 17.416l.826-.974 2.214 2.61L18.174 13l.826.974Z" clip-rule="evenodd"/><defs><clipPath id="a"><path fill="#fff" d="M0 0h22v22H0z"/></clipPath></defs></svg>