<svg xmlns="http://www.w3.org/2000/svg" fill="none" viewBox="0 0 22 22"><path fill="#34D058" fill-rule="evenodd" d="M19 13.974 13.04 21 10 17.416l.826-.974 2.214 2.61L18.174 13l.826.974Z" clip-rule="evenodd"/><path fill="#fff" fill-rule="evenodd" stroke="#428f29" stroke-width=".006" d="M6.99 21.74a19.267 19.267 0 0 0-.795-2.584c-.17-.427-.188-.518-.122-.646.107-.206.349-.098.798.354.538.543.986 1.185 1.4 2.004.198.39.478 1.041.478 1.11 0 .012-.382.022-.85.022h-.85Z" paint-order="markers fill stroke"/><path fill="#fff" fill-rule="evenodd" stroke="#428f29" stroke-width=".006" d="M.021 21v-1.016l.16-.474a27.6 27.6 0 0 1 .346-.959c.908-2.346 1.277-4.01 1.558-7.03.152-1.63.23-2.256.36-2.904.264-1.317.806-2.47 1.562-3.32.093-.104.17-.197.17-.206 0-.009-.029-.016-.063-.016-.123 0-.474-.106-.664-.2-.386-.194-.64-.425-1.27-1.158a18.72 18.72 0 0 0-.633-.696c-.165-.17-.3-.322-.3-.337 0-.014.017-.04.038-.058.03-.025.096-.025.296 0 .414.052 1.45.017 2.369-.08 1.987-.21 2.16-.222 3.076-.225.92-.003 1.181.017 1.79.134 1.056.202 1.905.627 2.578 1.289.251.247.594.678.738.927.113.195.96 1.063 1.46 1.494 2.292 1.981 5.661 4.519 7.524 5.668.34.21.403.267.466.416.087.21-.058.39-.315.39-.097 0-.268-.054-.709-.225-2.023-.786-3.084-1.094-4.37-1.27-.403-.056-1.467-.048-1.81.013a4.913 4.913 0 0 0-1.1.335c-.256.122-.59.336-.683.438l-.065.07h-1.875l.023-.127c.07-.379.16-.533.604-1.015.18-.196.38-.43.446-.522.503-.706.672-1.753.422-2.618-.396-1.37-1.902-2.448-3.573-2.558-.806-.053-1.473.067-2.124.38-.381.185-.71.42-1.024.735a4.06 4.06 0 0 0-.811 1.157c-.45.912-.588 1.575-.802 3.849a48.737 48.737 0 0 1-.267 2.424 23.399 23.399 0 0 1-1.393 5.33c-.388 1.01-.672 1.923-.833 2.68l-.063.3H.02z" paint-order="markers fill stroke"/><path fill="#fff" fill-rule="evenodd" stroke="#428f29" stroke-width=".006" d="M9.562 9.291a1.31 1.31 0 0 1-.674-.347 1.145 1.145 0 0 1 .337-1.855c.46-.218.987-.115 1.35.265.761.798.088 2.086-1.013 1.937Z" paint-order="markers fill stroke"/></svg>