<?xml version="1.0" encoding="UTF-8" standalone="no"?>
<!DOCTYPE svg PUBLIC "-//W3C//DTD SVG 1.1//EN"
 "http://www.w3.org/Graphics/SVG/1.1/DTD/svg11.dtd">
<!-- Generated by graphviz version 12.2.1 (0)
 -->
<!-- Title: WoodpeckerArchitecture Pages: 1 -->
<svg width="1490pt" height="577pt"
 viewBox="0.00 0.00 1490.00 576.75" xmlns="http://www.w3.org/2000/svg" xmlns:xlink="http://www.w3.org/1999/xlink">
<g id="graph0" class="graph" transform="scale(1 1) rotate(0) translate(4 572.75)">
<title>WoodpeckerArchitecture</title>
<polygon fill="white" stroke="none" points="-4,4 -4,-572.75 1486,-572.75 1486,4 -4,4"/>
<g id="clust1" class="cluster">
<title>cluster_ui</title>
<path fill="#c7efe9" stroke="black" d="M20,-391C20,-391 66,-391 66,-391 72,-391 78,-397 78,-403 78,-403 78,-454.75 78,-454.75 78,-460.75 72,-466.75 66,-466.75 66,-466.75 20,-466.75 20,-466.75 14,-466.75 8,-460.75 8,-454.75 8,-454.75 8,-403 8,-403 8,-397 14,-391 20,-391"/>
<text text-anchor="middle" x="43" y="-449.45" font-family="Helvetica,sans-Serif" font-size="14.00">UI</text>
</g>
<g id="clust2" class="cluster">
<title>cluster_sdk</title>
<path fill="#e8f5e9" stroke="black" d="M1192,-295.25C1192,-295.25 1316,-295.25 1316,-295.25 1322,-295.25 1328,-301.25 1328,-307.25 1328,-307.25 1328,-359 1328,-359 1328,-365 1322,-371 1316,-371 1316,-371 1192,-371 1192,-371 1186,-371 1180,-365 1180,-359 1180,-359 1180,-307.25 1180,-307.25 1180,-301.25 1186,-295.25 1192,-295.25"/>
<text text-anchor="middle" x="1254" y="-353.7" font-family="Helvetica,sans-Serif" font-size="14.00">SDK (woodpecker&#45;go)</text>
</g>
<g id="clust3" class="cluster">
<title>cluster_cli</title>
<path fill="#bfe9e0" stroke="black" d="M1204,-391C1204,-391 1286,-391 1286,-391 1292,-391 1298,-397 1298,-403 1298,-403 1298,-548.75 1298,-548.75 1298,-554.75 1292,-560.75 1286,-560.75 1286,-560.75 1204,-560.75 1204,-560.75 1198,-560.75 1192,-554.75 1192,-548.75 1192,-548.75 1192,-403 1192,-403 1192,-397 1198,-391 1204,-391"/>
<text text-anchor="middle" x="1245" y="-543.45" font-family="Helvetica,sans-Serif" font-size="14.00">woodpecker&#45;cli</text>
</g>
<g id="clust4" class="cluster">
<title>cluster_agent</title>
<path fill="#ffe0c7" stroke="black" d="M1057,-295.25C1057,-295.25 1160,-295.25 1160,-295.25 1166,-295.25 1172,-301.25 1172,-307.25 1172,-307.25 1172,-454.75 1172,-454.75 1172,-460.75 1166,-466.75 1160,-466.75 1160,-466.75 1057,-466.75 1057,-466.75 1051,-466.75 1045,-460.75 1045,-454.75 1045,-454.75 1045,-307.25 1045,-307.25 1045,-301.25 1051,-295.25 1057,-295.25"/>
<text text-anchor="middle" x="1108.5" y="-449.45" font-family="Helvetica,sans-Serif" font-size="14.00">woodpecker&#45;agent</text>
</g>
<g id="clust5" class="cluster">
<title>cluster_pipelines</title>
<path fill="#ffe8d6" stroke="black" d="M1348,-102C1348,-102 1462,-102 1462,-102 1468,-102 1474,-108 1474,-114 1474,-114 1474,-360.75 1474,-360.75 1474,-366.75 1468,-372.75 1462,-372.75 1462,-372.75 1348,-372.75 1348,-372.75 1342,-372.75 1336,-366.75 1336,-360.75 1336,-360.75 1336,-114 1336,-114 1336,-108 1342,-102 1348,-102"/>
<text text-anchor="middle" x="1405" y="-355.45" font-family="Helvetica,sans-Serif" font-size="14.00">Pipelines</text>
</g>
<g id="clust6" class="cluster">
<title>cluster_server</title>
<path fill="#dbe9ff" stroke="black" d="M98,-8C98,-8 464,-8 464,-8 470,-8 476,-14 476,-20 476,-20 476,-454.75 476,-454.75 476,-460.75 470,-466.75 464,-466.75 464,-466.75 98,-466.75 98,-466.75 92,-466.75 86,-460.75 86,-454.75 86,-454.75 86,-20 86,-20 86,-14 92,-8 98,-8"/>
<text text-anchor="middle" x="281" y="-449.45" font-family="Helvetica,sans-Serif" font-size="14.00">woodpecker&#45;server</text>
</g>
<g id="clust7" class="cluster">
<title>cluster_shared</title>
<path fill="#eeeeee" stroke="black" d="M496,-103.75C496,-103.75 982,-103.75 982,-103.75 988,-103.75 994,-109.75 994,-115.75 994,-115.75 994,-167.5 994,-167.5 994,-173.5 988,-179.5 982,-179.5 982,-179.5 496,-179.5 496,-179.5 490,-179.5 484,-173.5 484,-167.5 484,-167.5 484,-115.75 484,-115.75 484,-109.75 490,-103.75 496,-103.75"/>
<text text-anchor="middle" x="739" y="-162.2" font-family="Helvetica,sans-Serif" font-size="14.00">Shared Libs</text>
</g>
<g id="clust8" class="cluster">
<title>cluster_external</title>
<path fill="none" stroke="black" stroke-dasharray="5,2" d="M694,-8C694,-8 904,-8 904,-8 910,-8 916,-14 916,-20 916,-20 916,-71.75 916,-71.75 916,-77.75 910,-83.75 904,-83.75 904,-83.75 694,-83.75 694,-83.75 688,-83.75 682,-77.75 682,-71.75 682,-71.75 682,-20 682,-20 682,-14 688,-8 694,-8"/>
<text text-anchor="middle" x="799" y="-66.45" font-family="Helvetica,sans-Serif" font-size="14.00" fill="white">External Systems</text>
</g>
<!-- ui_web -->
<g id="node1" class="node">
<title>ui_web</title>
<path fill="#2b2b2b" stroke="black" d="M58,-435C58,-435 28,-435 28,-435 22,-435 16,-429 16,-423 16,-423 16,-411 16,-411 16,-405 22,-399 28,-399 28,-399 58,-399 58,-399 64,-399 70,-405 70,-411 70,-411 70,-423 70,-423 70,-429 64,-435 58,-435"/>
<text text-anchor="middle" x="43" y="-411.57" font-family="Helvetica,sans-Serif" font-size="14.00" fill="white">web/</text>
</g>
<!-- srv_router -->
<g id="node11" class="node">
<title>srv_router</title>
<path fill="#2b2b2b" stroke="black" d="M337.12,-339.25C337.12,-339.25 264.88,-339.25 264.88,-339.25 258.88,-339.25 252.88,-333.25 252.88,-327.25 252.88,-327.25 252.88,-315.25 252.88,-315.25 252.88,-309.25 258.88,-303.25 264.88,-303.25 264.88,-303.25 337.12,-303.25 337.12,-303.25 343.12,-303.25 349.12,-309.25 349.12,-315.25 349.12,-315.25 349.12,-327.25 349.12,-327.25 349.12,-333.25 343.12,-339.25 337.12,-339.25"/>
<text text-anchor="middle" x="301" y="-315.82" font-family="Helvetica,sans-Serif" font-size="14.00" fill="white">server/router/</text>
</g>
<!-- ui_web&#45;&gt;srv_router -->
<g id="edge1" class="edge">
<title>ui_web&#45;&gt;srv_router</title>
<path fill="none" stroke="#bdbdbd" d="M52,-398.94C52,-371.13 52,-321 52,-321 52,-321 243.89,-321 243.89,-321"/>
<polygon fill="#bdbdbd" stroke="#bdbdbd" points="243.89,-323.45 250.89,-321 243.89,-318.55 243.89,-323.45"/>
<text text-anchor="middle" x="92.1" y="-324.2" font-family="Times,serif" font-size="14.00">HTTP</text>
</g>
<!-- srv_api -->
<g id="node12" class="node">
<title>srv_api</title>
<path fill="#2b2b2b" stroke="black" d="M332.5,-243.5C332.5,-243.5 277.5,-243.5 277.5,-243.5 271.5,-243.5 265.5,-237.5 265.5,-231.5 265.5,-231.5 265.5,-219.5 265.5,-219.5 265.5,-213.5 271.5,-207.5 277.5,-207.5 277.5,-207.5 332.5,-207.5 332.5,-207.5 338.5,-207.5 344.5,-213.5 344.5,-219.5 344.5,-219.5 344.5,-231.5 344.5,-231.5 344.5,-237.5 338.5,-243.5 332.5,-243.5"/>
<text text-anchor="middle" x="305" y="-220.07" font-family="Helvetica,sans-Serif" font-size="14.00" fill="white">server/api/</text>
</g>
<!-- ui_web&#45;&gt;srv_api -->
<g id="edge2" class="edge">
<title>ui_web&#45;&gt;srv_api</title>
<path fill="none" stroke="#bdbdbd" d="M34,-398.69C34,-350.88 34,-226 34,-226 34,-226 256.5,-226 256.5,-226"/>
<polygon fill="#bdbdbd" stroke="#bdbdbd" points="256.5,-228.45 263.5,-226 256.5,-223.55 256.5,-228.45"/>
<text text-anchor="middle" x="30.03" y="-229.2" font-family="Times,serif" font-size="14.00">REST API</text>
</g>
<!-- sdk -->
<g id="node2" class="node">
<title>sdk</title>
<path fill="#2b2b2b" stroke="black" d="M1284.12,-339.25C1284.12,-339.25 1199.88,-339.25 1199.88,-339.25 1193.88,-339.25 1187.88,-333.25 1187.88,-327.25 1187.88,-327.25 1187.88,-315.25 1187.88,-315.25 1187.88,-309.25 1193.88,-303.25 1199.88,-303.25 1199.88,-303.25 1284.12,-303.25 1284.12,-303.25 1290.12,-303.25 1296.12,-309.25 1296.12,-315.25 1296.12,-315.25 1296.12,-327.25 1296.12,-327.25 1296.12,-333.25 1290.12,-339.25 1284.12,-339.25"/>
<text text-anchor="middle" x="1242" y="-315.82" font-family="Helvetica,sans-Serif" font-size="14.00" fill="white">woodpecker&#45;go</text>
</g>
<!-- sdk&#45;&gt;srv_api -->
<g id="edge5" class="edge">
<title>sdk&#45;&gt;srv_api</title>
<path fill="none" stroke="#bdbdbd" d="M1242,-303.01C1242,-289.35 1242,-273 1242,-273 1242,-273 318.17,-273 318.17,-273 318.17,-273 318.17,-252.24 318.17,-252.24"/>
<polygon fill="#bdbdbd" stroke="#bdbdbd" points="320.62,-252.24 318.17,-245.24 315.72,-252.24 320.62,-252.24"/>
<text text-anchor="middle" x="755.83" y="-276.2" font-family="Times,serif" font-size="14.00">REST API</text>
</g>
<!-- cli_cmd -->
<g id="node3" class="node">
<title>cli_cmd</title>
<path fill="#2b2b2b" stroke="black" d="M1261.25,-529C1261.25,-529 1222.75,-529 1222.75,-529 1216.75,-529 1210.75,-523 1210.75,-517 1210.75,-517 1210.75,-505 1210.75,-505 1210.75,-499 1216.75,-493 1222.75,-493 1222.75,-493 1261.25,-493 1261.25,-493 1267.25,-493 1273.25,-499 1273.25,-505 1273.25,-505 1273.25,-517 1273.25,-517 1273.25,-523 1267.25,-529 1261.25,-529"/>
<text text-anchor="middle" x="1242" y="-505.57" font-family="Helvetica,sans-Serif" font-size="14.00" fill="white">cmd/cli/</text>
</g>
<!-- cli_core -->
<g id="node4" class="node">
<title>cli_core</title>
<path fill="#2b2b2b" stroke="black" d="M1257,-435C1257,-435 1227,-435 1227,-435 1221,-435 1215,-429 1215,-423 1215,-423 1215,-411 1215,-411 1215,-405 1221,-399 1227,-399 1227,-399 1257,-399 1257,-399 1263,-399 1269,-405 1269,-411 1269,-411 1269,-423 1269,-423 1269,-429 1263,-435 1257,-435"/>
<text text-anchor="middle" x="1242" y="-411.57" font-family="Helvetica,sans-Serif" font-size="14.00" fill="white">cli/</text>
</g>
<!-- cli_cmd&#45;&gt;cli_core -->
<g id="edge3" class="edge">
<title>cli_cmd&#45;&gt;cli_core</title>
<path fill="none" stroke="#bdbdbd" d="M1242,-492.88C1242,-492.88 1242,-443.9 1242,-443.9"/>
<polygon fill="#bdbdbd" stroke="#bdbdbd" points="1244.45,-443.9 1242,-436.9 1239.55,-443.9 1244.45,-443.9"/>
</g>
<!-- cli_core&#45;&gt;sdk -->
<g id="edge4" class="edge">
<title>cli_core&#45;&gt;sdk</title>
<path fill="none" stroke="#bdbdbd" d="M1242,-398.54C1242,-398.54 1242,-348.17 1242,-348.17"/>
<polygon fill="#bdbdbd" stroke="#bdbdbd" points="1244.45,-348.17 1242,-341.17 1239.55,-348.17 1244.45,-348.17"/>
</g>
<!-- agent_cmd -->
<g id="node5" class="node">
<title>agent_cmd</title>
<path fill="#2b2b2b" stroke="black" d="M1144.75,-435C1144.75,-435 1085.25,-435 1085.25,-435 1079.25,-435 1073.25,-429 1073.25,-423 1073.25,-423 1073.25,-411 1073.25,-411 1073.25,-405 1079.25,-399 1085.25,-399 1085.25,-399 1144.75,-399 1144.75,-399 1150.75,-399 1156.75,-405 1156.75,-411 1156.75,-411 1156.75,-423 1156.75,-423 1156.75,-429 1150.75,-435 1144.75,-435"/>
<text text-anchor="middle" x="1115" y="-411.57" font-family="Helvetica,sans-Serif" font-size="14.00" fill="white">cmd/agent/</text>
</g>
<!-- agent_core -->
<g id="node6" class="node">
<title>agent_core</title>
<path fill="#2b2b2b" stroke="black" d="M1130,-339.25C1130,-339.25 1100,-339.25 1100,-339.25 1094,-339.25 1088,-333.25 1088,-327.25 1088,-327.25 1088,-315.25 1088,-315.25 1088,-309.25 1094,-303.25 1100,-303.25 1100,-303.25 1130,-303.25 1130,-303.25 1136,-303.25 1142,-309.25 1142,-315.25 1142,-315.25 1142,-327.25 1142,-327.25 1142,-333.25 1136,-339.25 1130,-339.25"/>
<text text-anchor="middle" x="1115" y="-315.82" font-family="Helvetica,sans-Serif" font-size="14.00" fill="white">agent/</text>
</g>
<!-- agent_cmd&#45;&gt;agent_core -->
<g id="edge6" class="edge">
<title>agent_cmd&#45;&gt;agent_core</title>
<path fill="none" stroke="#bdbdbd" d="M1115,-398.54C1115,-398.54 1115,-348.17 1115,-348.17"/>
<polygon fill="#bdbdbd" stroke="#bdbdbd" points="1117.45,-348.17 1115,-341.17 1112.55,-348.17 1117.45,-348.17"/>
</g>
<!-- pipe_backend -->
<g id="node9" class="node">
<title>pipe_backend</title>
<path fill="#2b2b2b" stroke="black" d="M1453.5,-149.5C1453.5,-149.5 1356.5,-149.5 1356.5,-149.5 1350.5,-149.5 1344.5,-143.5 1344.5,-137.5 1344.5,-137.5 1344.5,-122 1344.5,-122 1344.5,-116 1350.5,-110 1356.5,-110 1356.5,-110 1453.5,-110 1453.5,-110 1459.5,-110 1465.5,-116 1465.5,-122 1465.5,-122 1465.5,-137.5 1465.5,-137.5 1465.5,-143.5 1459.5,-149.5 1453.5,-149.5"/>
<text text-anchor="middle" x="1405" y="-132.2" font-family="Helvetica,sans-Serif" font-size="14.00" fill="white">pipeline/backend/</text>
<text text-anchor="middle" x="1405" y="-116.45" font-family="Helvetica,sans-Serif" font-size="14.00" fill="white">(exec engines)</text>
</g>
<!-- agent_core&#45;&gt;pipe_backend -->
<g id="edge9" class="edge">
<title>agent_core&#45;&gt;pipe_backend</title>
<path fill="none" stroke="#bdbdbd" d="M1128.5,-302.91C1128.5,-255.04 1128.5,-130 1128.5,-130 1128.5,-130 1335.81,-130 1335.81,-130"/>
<polygon fill="#bdbdbd" stroke="#bdbdbd" points="1335.81,-132.45 1342.81,-130 1335.81,-127.55 1335.81,-132.45"/>
<text text-anchor="middle" x="1109.7" y="-133.2" font-family="Times,serif" font-size="14.00">execute steps</text>
</g>
<!-- srv_grpc -->
<g id="node13" class="node">
<title>srv_grpc</title>
<path fill="#2b2b2b" stroke="black" d="M455.88,-243.5C455.88,-243.5 400.12,-243.5 400.12,-243.5 394.12,-243.5 388.12,-237.5 388.12,-231.5 388.12,-231.5 388.12,-219.5 388.12,-219.5 388.12,-213.5 394.12,-207.5 400.12,-207.5 400.12,-207.5 455.88,-207.5 455.88,-207.5 461.88,-207.5 467.88,-213.5 467.88,-219.5 467.88,-219.5 467.88,-231.5 467.88,-231.5 467.88,-237.5 461.88,-243.5 455.88,-243.5"/>
<text text-anchor="middle" x="428" y="-220.07" font-family="Helvetica,sans-Serif" font-size="14.00" fill="white">server/rpc/</text>
</g>
<!-- agent_core&#45;&gt;srv_grpc -->
<g id="edge7" class="edge">
<title>agent_core&#45;&gt;srv_grpc</title>
<path fill="none" stroke="#bdbdbd" d="M1101.5,-302.96C1101.5,-277.64 1101.5,-235 1101.5,-235 1101.5,-235 476.88,-235 476.88,-235"/>
<polygon fill="#bdbdbd" stroke="#bdbdbd" points="476.88,-232.55 469.88,-235 476.88,-237.45 476.88,-232.55"/>
<text text-anchor="middle" x="784.17" y="-238.2" font-family="Times,serif" font-size="14.00">gRPC connect</text>
</g>
<!-- srv_queue -->
<g id="node15" class="node">
<title>srv_queue</title>
<path fill="#2b2b2b" stroke="black" d="M456.25,-52C456.25,-52 381.75,-52 381.75,-52 375.75,-52 369.75,-46 369.75,-40 369.75,-40 369.75,-28 369.75,-28 369.75,-22 375.75,-16 381.75,-16 381.75,-16 456.25,-16 456.25,-16 462.25,-16 468.25,-22 468.25,-28 468.25,-28 468.25,-40 468.25,-40 468.25,-46 462.25,-52 456.25,-52"/>
<text text-anchor="middle" x="419" y="-28.57" font-family="Helvetica,sans-Serif" font-size="14.00" fill="white">server/queue/</text>
</g>
<!-- agent_core&#45;&gt;srv_queue -->
<g id="edge8" class="edge">
<title>agent_core&#45;&gt;srv_queue</title>
<path fill="none" stroke="#bdbdbd" d="M1115,-302.8C1115,-248.16 1115,-91 1115,-91 1115,-91 461.81,-91 461.81,-91 461.81,-91 461.81,-60.86 461.81,-60.86"/>
<polygon fill="#bdbdbd" stroke="#bdbdbd" points="464.26,-60.86 461.81,-53.86 459.36,-60.86 464.26,-60.86"/>
<text text-anchor="middle" x="852.99" y="-94.2" font-family="Times,serif" font-size="14.00">poll work</text>
</g>
<!-- pipe_core -->
<g id="node7" class="node">
<title>pipe_core</title>
<path fill="#2b2b2b" stroke="black" d="M1425.12,-243.5C1425.12,-243.5 1382.88,-243.5 1382.88,-243.5 1376.88,-243.5 1370.88,-237.5 1370.88,-231.5 1370.88,-231.5 1370.88,-219.5 1370.88,-219.5 1370.88,-213.5 1376.88,-207.5 1382.88,-207.5 1382.88,-207.5 1425.12,-207.5 1425.12,-207.5 1431.12,-207.5 1437.12,-213.5 1437.12,-219.5 1437.12,-219.5 1437.12,-231.5 1437.12,-231.5 1437.12,-237.5 1431.12,-243.5 1425.12,-243.5"/>
<text text-anchor="middle" x="1404" y="-220.07" font-family="Helvetica,sans-Serif" font-size="14.00" fill="white">pipeline/</text>
</g>
<!-- pipe_core&#45;&gt;pipe_backend -->
<g id="edge11" class="edge">
<title>pipe_core&#45;&gt;pipe_backend</title>
<path fill="none" stroke="#bdbdbd" d="M1404,-207.04C1404,-207.04 1404,-158.32 1404,-158.32"/>
<polygon fill="#bdbdbd" stroke="#bdbdbd" points="1406.45,-158.32 1404,-151.32 1401.55,-158.32 1406.45,-158.32"/>
</g>
<!-- shared_util -->
<g id="node20" class="node">
<title>shared_util</title>
<path fill="#2b2b2b" stroke="black" d="M974,-147.75C974,-147.75 916,-147.75 916,-147.75 910,-147.75 904,-141.75 904,-135.75 904,-135.75 904,-123.75 904,-123.75 904,-117.75 910,-111.75 916,-111.75 916,-111.75 974,-111.75 974,-111.75 980,-111.75 986,-117.75 986,-123.75 986,-123.75 986,-135.75 986,-135.75 986,-141.75 980,-147.75 974,-147.75"/>
<text text-anchor="middle" x="945" y="-124.33" font-family="Helvetica,sans-Serif" font-size="14.00" fill="white">shared/util/</text>
</g>
<!-- pipe_core&#45;&gt;shared_util -->
<g id="edge25" class="edge">
<title>pipe_core&#45;&gt;shared_util</title>
<path fill="none" stroke="#bdbdbd" d="M1370.62,-226C1265,-226 945,-226 945,-226 945,-226 945,-156.37 945,-156.37"/>
<polygon fill="#bdbdbd" stroke="#bdbdbd" points="947.45,-156.37 945,-149.37 942.55,-156.37 947.45,-156.37"/>
</g>
<!-- pipe_frontend -->
<g id="node8" class="node">
<title>pipe_frontend</title>
<path fill="#2b2b2b" stroke="black" d="M1451.75,-341C1451.75,-341 1356.25,-341 1356.25,-341 1350.25,-341 1344.25,-335 1344.25,-329 1344.25,-329 1344.25,-313.5 1344.25,-313.5 1344.25,-307.5 1350.25,-301.5 1356.25,-301.5 1356.25,-301.5 1451.75,-301.5 1451.75,-301.5 1457.75,-301.5 1463.75,-307.5 1463.75,-313.5 1463.75,-313.5 1463.75,-329 1463.75,-329 1463.75,-335 1457.75,-341 1451.75,-341"/>
<text text-anchor="middle" x="1404" y="-323.7" font-family="Helvetica,sans-Serif" font-size="14.00" fill="white">pipeline/frontend/</text>
<text text-anchor="middle" x="1404" y="-307.95" font-family="Helvetica,sans-Serif" font-size="14.00" fill="white">(yaml)</text>
</g>
<!-- pipe_frontend&#45;&gt;pipe_core -->
<g id="edge10" class="edge">
<title>pipe_frontend&#45;&gt;pipe_core</title>
<path fill="none" stroke="#bdbdbd" d="M1404,-301.41C1404,-301.41 1404,-252.21 1404,-252.21"/>
<polygon fill="#bdbdbd" stroke="#bdbdbd" points="1406.45,-252.21 1404,-245.21 1401.55,-252.21 1406.45,-252.21"/>
</g>
<!-- srv_cmd -->
<g id="node10" class="node">
<title>srv_cmd</title>
<path fill="#2b2b2b" stroke="black" d="M327.62,-435C327.62,-435 264.38,-435 264.38,-435 258.38,-435 252.38,-429 252.38,-423 252.38,-423 252.38,-411 252.38,-411 252.38,-405 258.38,-399 264.38,-399 264.38,-399 327.62,-399 327.62,-399 333.62,-399 339.62,-405 339.62,-411 339.62,-411 339.62,-423 339.62,-423 339.62,-429 333.62,-435 327.62,-435"/>
<text text-anchor="middle" x="296" y="-411.57" font-family="Helvetica,sans-Serif" font-size="14.00" fill="white">cmd/server/</text>
</g>
<!-- srv_cmd&#45;&gt;srv_router -->
<g id="edge12" class="edge">
<title>srv_cmd&#45;&gt;srv_router</title>
<path fill="none" stroke="#bdbdbd" d="M296.25,-398.54C296.25,-398.54 296.25,-348.17 296.25,-348.17"/>
<polygon fill="#bdbdbd" stroke="#bdbdbd" points="298.7,-348.17 296.25,-341.17 293.8,-348.17 298.7,-348.17"/>
</g>
<!-- srv_router&#45;&gt;srv_api -->
<g id="edge13" class="edge">
<title>srv_router&#45;&gt;srv_api</title>
<path fill="none" stroke="#bdbdbd" d="M291.83,-302.79C291.83,-302.79 291.83,-252.42 291.83,-252.42"/>
<polygon fill="#bdbdbd" stroke="#bdbdbd" points="294.28,-252.42 291.83,-245.42 289.38,-252.42 294.28,-252.42"/>
</g>
<!-- shared_token -->
<g id="node21" class="node">
<title>shared_token</title>
<path fill="#2b2b2b" stroke="black" d="M855.88,-147.75C855.88,-147.75 782.12,-147.75 782.12,-147.75 776.12,-147.75 770.12,-141.75 770.12,-135.75 770.12,-135.75 770.12,-123.75 770.12,-123.75 770.12,-117.75 776.12,-111.75 782.12,-111.75 782.12,-111.75 855.88,-111.75 855.88,-111.75 861.88,-111.75 867.88,-117.75 867.88,-123.75 867.88,-123.75 867.88,-135.75 867.88,-135.75 867.88,-141.75 861.88,-147.75 855.88,-147.75"/>
<text text-anchor="middle" x="819" y="-124.33" font-family="Helvetica,sans-Serif" font-size="14.00" fill="white">shared/token/</text>
</g>
<!-- srv_router&#45;&gt;shared_token -->
<g id="edge22" class="edge">
<title>srv_router&#45;&gt;shared_token</title>
<path fill="none" stroke="#bdbdbd" d="M349.27,-321C477.86,-321 819,-321 819,-321 819,-321 819,-156.6 819,-156.6"/>
<polygon fill="#bdbdbd" stroke="#bdbdbd" points="821.45,-156.6 819,-149.6 816.55,-156.6 821.45,-156.6"/>
</g>
<!-- srv_scheduler -->
<g id="node14" class="node">
<title>srv_scheduler</title>
<path fill="#2b2b2b" stroke="black" d="M443.75,-147.75C443.75,-147.75 348.25,-147.75 348.25,-147.75 342.25,-147.75 336.25,-141.75 336.25,-135.75 336.25,-135.75 336.25,-123.75 336.25,-123.75 336.25,-117.75 342.25,-111.75 348.25,-111.75 348.25,-111.75 443.75,-111.75 443.75,-111.75 449.75,-111.75 455.75,-117.75 455.75,-123.75 455.75,-123.75 455.75,-135.75 455.75,-135.75 455.75,-141.75 449.75,-147.75 443.75,-147.75"/>
<text text-anchor="middle" x="396" y="-124.33" font-family="Helvetica,sans-Serif" font-size="14.00" fill="white">server/scheduler/</text>
</g>
<!-- srv_api&#45;&gt;srv_scheduler -->
<g id="edge15" class="edge">
<title>srv_api&#45;&gt;srv_scheduler</title>
<path fill="none" stroke="#bdbdbd" d="M341.75,-207.04C341.75,-207.04 341.75,-156.67 341.75,-156.67"/>
<polygon fill="#bdbdbd" stroke="#bdbdbd" points="344.2,-156.67 341.75,-149.67 339.3,-156.67 344.2,-156.67"/>
</g>
<!-- srv_store -->
<g id="node17" class="node">
<title>srv_store</title>
<path fill="#2b2b2b" stroke="black" d="M288.5,-147.75C288.5,-147.75 221.5,-147.75 221.5,-147.75 215.5,-147.75 209.5,-141.75 209.5,-135.75 209.5,-135.75 209.5,-123.75 209.5,-123.75 209.5,-117.75 215.5,-111.75 221.5,-111.75 221.5,-111.75 288.5,-111.75 288.5,-111.75 294.5,-111.75 300.5,-117.75 300.5,-123.75 300.5,-123.75 300.5,-135.75 300.5,-135.75 300.5,-141.75 294.5,-147.75 288.5,-147.75"/>
<text text-anchor="middle" x="255" y="-124.33" font-family="Helvetica,sans-Serif" font-size="14.00" fill="white">server/store/</text>
</g>
<!-- srv_api&#45;&gt;srv_store -->
<g id="edge14" class="edge">
<title>srv_api&#45;&gt;srv_store</title>
<path fill="none" stroke="#bdbdbd" d="M283,-207.04C283,-207.04 283,-156.67 283,-156.67"/>
<polygon fill="#bdbdbd" stroke="#bdbdbd" points="285.45,-156.67 283,-149.67 280.55,-156.67 285.45,-156.67"/>
</g>
<!-- shared_http -->
<g id="node22" class="node">
<title>shared_http</title>
<path fill="#2b2b2b" stroke="black" d="M584.25,-147.75C584.25,-147.75 503.75,-147.75 503.75,-147.75 497.75,-147.75 491.75,-141.75 491.75,-135.75 491.75,-135.75 491.75,-123.75 491.75,-123.75 491.75,-117.75 497.75,-111.75 503.75,-111.75 503.75,-111.75 584.25,-111.75 584.25,-111.75 590.25,-111.75 596.25,-117.75 596.25,-123.75 596.25,-123.75 596.25,-135.75 596.25,-135.75 596.25,-141.75 590.25,-147.75 584.25,-147.75"/>
<text text-anchor="middle" x="544" y="-124.33" font-family="Helvetica,sans-Serif" font-size="14.00" fill="white">shared/httputil/</text>
</g>
<!-- srv_api&#45;&gt;shared_http -->
<g id="edge23" class="edge">
<title>srv_api&#45;&gt;shared_http</title>
<path fill="none" stroke="#bdbdbd" d="M339,-207.12C339,-194.12 339,-179 339,-179 339,-179 544,-179 544,-179 544,-179 544,-156.6 544,-156.6"/>
<polygon fill="#bdbdbd" stroke="#bdbdbd" points="546.45,-156.6 544,-149.6 541.55,-156.6 546.45,-156.6"/>
</g>
<!-- srv_grpc&#45;&gt;srv_scheduler -->
<g id="edge16" class="edge">
<title>srv_grpc&#45;&gt;srv_scheduler</title>
<path fill="none" stroke="#bdbdbd" d="M421.94,-207.04C421.94,-207.04 421.94,-156.67 421.94,-156.67"/>
<polygon fill="#bdbdbd" stroke="#bdbdbd" points="424.39,-156.67 421.94,-149.67 419.49,-156.67 424.39,-156.67"/>
</g>
<!-- shared_log -->
<g id="node23" class="node">
<title>shared_log</title>
<path fill="#2b2b2b" stroke="black" d="M722.12,-147.75C722.12,-147.75 643.88,-147.75 643.88,-147.75 637.88,-147.75 631.88,-141.75 631.88,-135.75 631.88,-135.75 631.88,-123.75 631.88,-123.75 631.88,-117.75 637.88,-111.75 643.88,-111.75 643.88,-111.75 722.12,-111.75 722.12,-111.75 728.12,-111.75 734.12,-117.75 734.12,-123.75 734.12,-123.75 734.12,-135.75 734.12,-135.75 734.12,-141.75 728.12,-147.75 722.12,-147.75"/>
<text text-anchor="middle" x="683" y="-124.33" font-family="Helvetica,sans-Serif" font-size="14.00" fill="white">shared/logger/</text>
</g>
<!-- srv_grpc&#45;&gt;shared_log -->
<g id="edge24" class="edge">
<title>srv_grpc&#45;&gt;shared_log</title>
<path fill="none" stroke="#bdbdbd" d="M468.12,-217C539.94,-217 683,-217 683,-217 683,-217 683,-156.34 683,-156.34"/>
<polygon fill="#bdbdbd" stroke="#bdbdbd" points="685.45,-156.34 683,-149.34 680.55,-156.34 685.45,-156.34"/>
</g>
<!-- srv_scheduler&#45;&gt;srv_queue -->
<g id="edge17" class="edge">
<title>srv_scheduler&#45;&gt;srv_queue</title>
<path fill="none" stroke="#bdbdbd" d="M412.75,-111.29C412.75,-111.29 412.75,-60.92 412.75,-60.92"/>
<polygon fill="#bdbdbd" stroke="#bdbdbd" points="415.2,-60.92 412.75,-53.92 410.3,-60.92 415.2,-60.92"/>
</g>
<!-- srv_pubsub -->
<g id="node16" class="node">
<title>srv_pubsub</title>
<path fill="#2b2b2b" stroke="black" d="M321.62,-52C321.62,-52 240.38,-52 240.38,-52 234.38,-52 228.38,-46 228.38,-40 228.38,-40 228.38,-28 228.38,-28 228.38,-22 234.38,-16 240.38,-16 240.38,-16 321.62,-16 321.62,-16 327.62,-16 333.62,-22 333.62,-28 333.62,-28 333.62,-40 333.62,-40 333.62,-46 327.62,-52 321.62,-52"/>
<text text-anchor="middle" x="281" y="-28.57" font-family="Helvetica,sans-Serif" font-size="14.00" fill="white">server/pubsub/</text>
</g>
<!-- srv_scheduler&#45;&gt;srv_pubsub -->
<g id="edge18" class="edge">
<title>srv_scheduler&#45;&gt;srv_pubsub</title>
<path fill="none" stroke="#bdbdbd" d="M335.77,-130C324.97,-130 317.06,-130 317.06,-130 317.06,-130 317.06,-60.57 317.06,-60.57"/>
<polygon fill="#bdbdbd" stroke="#bdbdbd" points="319.51,-60.57 317.06,-53.57 314.61,-60.57 319.51,-60.57"/>
</g>
<!-- srv_model -->
<g id="node18" class="node">
<title>srv_model</title>
<path fill="#2b2b2b" stroke="black" d="M180.25,-52C180.25,-52 105.75,-52 105.75,-52 99.75,-52 93.75,-46 93.75,-40 93.75,-40 93.75,-28 93.75,-28 93.75,-22 99.75,-16 105.75,-16 105.75,-16 180.25,-16 180.25,-16 186.25,-16 192.25,-22 192.25,-28 192.25,-28 192.25,-40 192.25,-40 192.25,-46 186.25,-52 180.25,-52"/>
<text text-anchor="middle" x="143" y="-28.57" font-family="Helvetica,sans-Serif" font-size="14.00" fill="white">server/model/</text>
</g>
<!-- srv_store&#45;&gt;srv_model -->
<g id="edge19" class="edge">
<title>srv_store&#45;&gt;srv_model</title>
<path fill="none" stroke="#bdbdbd" d="M218.94,-111.29C218.94,-83.46 218.94,-34 218.94,-34 218.94,-34 200.89,-34 200.89,-34"/>
<polygon fill="#bdbdbd" stroke="#bdbdbd" points="200.89,-31.55 193.89,-34 200.89,-36.45 200.89,-31.55"/>
</g>
<!-- ext_db -->
<g id="node25" class="node">
<title>ext_db</title>
<path fill="#2b2b2b" stroke="black" d="M763.88,-48.73C763.88,-50.53 747.35,-52 727,-52 706.65,-52 690.12,-50.53 690.12,-48.73 690.12,-48.73 690.12,-19.27 690.12,-19.27 690.12,-17.47 706.65,-16 727,-16 747.35,-16 763.88,-17.47 763.88,-19.27 763.88,-19.27 763.88,-48.73 763.88,-48.73"/>
<path fill="none" stroke="black" d="M763.88,-48.73C763.88,-46.92 747.35,-45.45 727,-45.45 706.65,-45.45 690.12,-46.92 690.12,-48.73"/>
<text text-anchor="middle" x="727" y="-28.57" font-family="Helvetica,sans-Serif" font-size="14.00" fill="white">Database</text>
</g>
<!-- srv_store&#45;&gt;ext_db -->
<g id="edge21" class="edge">
<title>srv_store&#45;&gt;ext_db</title>
<path fill="none" stroke="#bdbdbd" d="M264.44,-111.48C264.44,-94.24 264.44,-71 264.44,-71 264.44,-71 712.12,-71 712.12,-71 712.12,-71 712.12,-61.01 712.12,-61.01"/>
<polygon fill="#bdbdbd" stroke="#bdbdbd" points="714.58,-61.01 712.13,-54.01 709.68,-61.01 714.58,-61.01"/>
<text text-anchor="middle" x="460.28" y="-74.2" font-family="Times,serif" font-size="14.00">SQL</text>
</g>
<!-- srv_forge -->
<g id="node19" class="node">
<title>srv_forge</title>
<path fill="#2b2b2b" stroke="black" d="M455.88,-435C455.88,-435 388.12,-435 388.12,-435 382.12,-435 376.12,-429 376.12,-423 376.12,-423 376.12,-411 376.12,-411 376.12,-405 382.12,-399 388.12,-399 388.12,-399 455.88,-399 455.88,-399 461.88,-399 467.88,-405 467.88,-411 467.88,-411 467.88,-423 467.88,-423 467.88,-429 461.88,-435 455.88,-435"/>
<text text-anchor="middle" x="422" y="-411.57" font-family="Helvetica,sans-Serif" font-size="14.00" fill="white">server/forge/</text>
</g>
<!-- ext_scm -->
<g id="node24" class="node">
<title>ext_scm</title>
<path fill="#2b2b2b" stroke="black" d="M895.75,-52C895.75,-52 812.25,-52 812.25,-52 806.25,-52 800.25,-46 800.25,-40 800.25,-40 800.25,-28 800.25,-28 800.25,-22 806.25,-16 812.25,-16 812.25,-16 895.75,-16 895.75,-16 901.75,-16 907.75,-22 907.75,-28 907.75,-28 907.75,-40 907.75,-40 907.75,-46 901.75,-52 895.75,-52"/>
<text text-anchor="middle" x="854" y="-28.57" font-family="Helvetica,sans-Serif" font-size="14.00" fill="white">SCM Providers</text>
</g>
<!-- srv_forge&#45;&gt;ext_scm -->
<g id="edge20" class="edge">
<title>srv_forge&#45;&gt;ext_scm</title>
<path fill="none" stroke="#bdbdbd" d="M468.18,-417C585.53,-417 885.94,-417 885.94,-417 885.94,-417 885.94,-60.99 885.94,-60.99"/>
<polygon fill="#bdbdbd" stroke="#bdbdbd" points="888.39,-60.99 885.94,-53.99 883.49,-60.99 888.39,-60.99"/>
<text text-anchor="middle" x="828.07" y="-420.2" font-family="Times,serif" font-size="14.00">SCM API</text>
</g>
</g>
</svg>
