<svg version="1.1" xmlns="http://www.w3.org/2000/svg" viewBox="0 0 1212 532" width="1212" height="532">
  <!-- svg-source:excalidraw -->

  <defs>
    <style>
      @font-face {
        font-family: "Virgil";
        src: url("https://excalidraw.com/Virgil.woff2");
      }
      @font-face {
        font-family: "Cascadia";
        src: url("https://excalidraw.com/Cascadia.woff2");
      }
    </style>
  </defs>
  <rect x="0" y="0" width="1212" height="532" fill="#ffffff"></rect><g transform="translate(680.346445133652 386.32450466629257) rotate(9.000542657161024 80 25)"><text x="0" y="18" font-family="Virgil, Segoe UI Emoji" font-size="20px" fill="#000000" text-anchor="start" style="white-space: pre;" direction="ltr">forward request</text><text x="0" y="43" font-family="Virgil, Segoe UI Emoji" font-size="20px" fill="#000000" text-anchor="start" style="white-space: pre;" direction="ltr">in dev mode</text></g><g stroke-linecap="round" transform="translate(10 171) rotate(0 85.5 44.5)"><path d="M25.33 14.47 C32.54 9.28, 45.94 3.73, 57.68 1.54 C69.41 -0.66, 83.47 0.72, 95.74 1.32 C108.01 1.92, 121.17 1.66, 131.28 5.11 C141.38 8.57, 149.87 16.08, 156.36 22.04 C162.85 28.01, 168.32 34.87, 170.23 40.9 C172.14 46.93, 171.91 52.27, 167.8 58.23 C163.69 64.19, 154.71 72.16, 145.57 76.66 C136.42 81.15, 124.39 83.06, 112.92 85.2 C101.45 87.34, 88.96 89.73, 76.76 89.49 C64.55 89.25, 50.48 87.26, 39.68 83.75 C28.88 80.25, 18.31 74.16, 11.94 68.49 C5.57 62.81, 2.42 56.45, 1.47 49.72 C0.52 42.98, -1.81 35.58, 6.25 28.06 C14.31 20.53, 37.93 9.09, 49.83 4.55 C61.73 0.01, 77.06 0.29, 77.65 0.81 M148.67 17.67 C157.35 22.6, 161.79 28.99, 164.9 34.84 C168.01 40.7, 169.31 46.78, 167.31 52.79 C165.31 58.79, 160.03 65.56, 152.9 70.88 C145.76 76.2, 134.55 81.21, 124.49 84.71 C114.44 88.21, 104.07 92.22, 92.57 91.91 C81.07 91.6, 66.85 85.51, 55.47 82.87 C44.09 80.23, 33.07 80.86, 24.3 76.08 C15.52 71.3, 6.76 61.09, 2.8 54.19 C-1.17 47.29, -1.26 40.82, 0.49 34.68 C2.24 28.54, 6.08 22.01, 13.29 17.35 C20.5 12.68, 32.13 9.36, 43.75 6.71 C55.37 4.05, 70.26 1.71, 83 1.4 C95.74 1.1, 109.15 2.56, 120.2 4.87 C131.25 7.18, 144.8 13.73, 149.29 15.25 C153.78 16.77, 147.76 13.53, 147.17 13.96" stroke="#000000" stroke-width="1" fill="none"></path></g><g stroke-linecap="round" transform="translate(382 10) rotate(0 137.5 240)"><path d="M0.01 -0.52 C81.7 -0.76, 159.39 3.24, 274.6 1.73 M1.27 0.99 C73.21 4.4, 146.21 2.58, 275.71 0.82 M276.15 -0.18 C272.9 157.34, 270.86 311.56, 275.68 479.09 M274.77 0.65 C275.65 113.81, 276.6 227.5, 275.67 479.19 M274.65 480.59 C186.07 480.68, 96.57 475.76, -0.61 482.92 M275.43 478.8 C218.14 475.26, 161.29 477.66, 1.54 481.39 M-0.31 478.48 C-3.95 378.52, -4.97 278.96, -0.23 0.67 M0.43 480.01 C-1.73 299.11, -2.28 119.5, 0.01 -0.19" stroke="#000000" stroke-width="1" fill="none"></path></g><g stroke-linecap="round" transform="translate(909 366) rotate(0 146.5 78)"><path d="M2.44 -0.38 C118.47 -4.03, 234.38 -5.33, 295.43 1.9 M-0.75 0.68 C95.49 -1.05, 188.18 -2.47, 293.99 -0.15 M291.86 1.57 C293.25 56.05, 296.53 118.65, 291.92 159.01 M293.1 1.54 C291.44 37.1, 293.71 72.48, 292.77 156.38 M290.78 155.41 C215.78 150.11, 135.59 150.4, 0.82 153.69 M294.13 157.48 C200.29 156.47, 106.16 158.8, -0.27 154.7 M-1.87 155.47 C4 115.99, 4.24 72.51, 1.97 0.05 M1.88 156.03 C0.41 107.2, -0.78 57.54, -0.72 0.68" stroke="#000000" stroke-width="1" fill="none"></path></g><g transform="translate(939 419) rotate(0 116.5 25)"><text x="116.5" y="18" font-family="Virgil, Segoe UI Emoji" font-size="20px" fill="#000000" text-anchor="middle" style="white-space: pre;" direction="ltr">UI Server </text><text x="116.5" y="43" font-family="Virgil, Segoe UI Emoji" font-size="20px" fill="#000000" text-anchor="middle" style="white-space: pre;" direction="ltr">Port 8010</text></g><g transform="translate(428 33) rotate(0 90.5 12.5)"><text x="0" y="18" font-family="Virgil, Segoe UI Emoji" font-size="20px" fill="#000000" text-anchor="start" style="white-space: pre;" direction="ltr">Woodpecker Server</text></g><g transform="translate(53 203) rotate(0 39 12.5)"><text x="0" y="18" font-family="Virgil, Segoe UI Emoji" font-size="20px" fill="#000000" text-anchor="start" style="white-space: pre;" direction="ltr">Browser</text></g><g transform="translate(397 71) rotate(0 83.5 87.5)"><text x="0" y="18" font-family="Virgil, Segoe UI Emoji" font-size="20px" fill="#000000" text-anchor="start" style="white-space: pre;" direction="ltr">Port 8000</text><text x="0" y="43" font-family="Virgil, Segoe UI Emoji" font-size="20px" fill="#000000" text-anchor="start" style="white-space: pre;" direction="ltr"></text><text x="0" y="68" font-family="Virgil, Segoe UI Emoji" font-size="20px" fill="#000000" text-anchor="start" style="white-space: pre;" direction="ltr">/login</text><text x="0" y="93" font-family="Virgil, Segoe UI Emoji" font-size="20px" fill="#000000" text-anchor="start" style="white-space: pre;" direction="ltr">/logout</text><text x="0" y="118" font-family="Virgil, Segoe UI Emoji" font-size="20px" fill="#000000" text-anchor="start" style="white-space: pre;" direction="ltr">/api/...</text><text x="0" y="143" font-family="Virgil, Segoe UI Emoji" font-size="20px" fill="#000000" text-anchor="start" style="white-space: pre;" direction="ltr">/api/web-config.js</text><text x="0" y="168" font-family="Virgil, Segoe UI Emoji" font-size="20px" fill="#000000" text-anchor="start" style="white-space: pre;" direction="ltr">/stream</text></g><g transform="translate(401 346) rotate(0 100 25)"><text x="0" y="18" font-family="Virgil, Segoe UI Emoji" font-size="20px" fill="#000000" text-anchor="start" style="white-space: pre;" direction="ltr">Every other request</text><text x="0" y="43" font-family="Virgil, Segoe UI Emoji" font-size="20px" fill="#000000" text-anchor="start" style="white-space: pre;" direction="ltr">(404 Handler)</text></g><g stroke-linecap="round"><g transform="translate(186.6644224364311 214.93542896322907) rotate(0 92.89148402996364 1.8256103735417355)"><path d="M-0.34 -1.06 C30.69 -0.45, 155.02 3.86, 186.12 4.72 M1.69 0.99 C32.64 1.79, 154.91 2.28, 185.64 3.03" stroke="#000000" stroke-width="1" fill="none"></path></g><g transform="translate(186.6644224364311 214.93542896322907) rotate(0 92.89148402996364 1.8256103735417355)"><path d="M155.54 14.41 C167.03 11.79, 174.36 8.58, 186.02 2.19 M157.23 12.56 C167.95 10.47, 177.27 6.93, 186.31 2.04" stroke="#000000" stroke-width="1" fill="none"></path></g><g transform="translate(186.6644224364311 214.93542896322907) rotate(0 92.89148402996364 1.8256103735417355)"><path d="M155.81 -6.11 C167.39 -2.63, 174.64 0.26, 186.02 2.19 M157.5 -7.96 C168.14 -3.01, 177.36 0.5, 186.31 2.04" stroke="#000000" stroke-width="1" fill="none"></path></g></g><g stroke-linecap="round"><g transform="translate(670.2988140780042 396.1369559618049) rotate(0 117.41394470354862 18.814461639141655)"><path d="M-0.45 -0.06 C38.63 6.34, 195.76 32.68, 235.28 38.76 M1.51 -1.13 C40.32 4.92, 194.96 30.87, 234.11 37.25" stroke="#000000" stroke-width="1" fill="none"></path></g><g transform="translate(670.2988140780042 396.1369559618049) rotate(0 117.41394470354862 18.814461639141655)"><path d="M204.53 42.07 C217.38 42.51, 224.34 40.48, 234.05 36.52 M205.22 42.82 C215.9 41.01, 225.91 38.04, 234.81 36.44" stroke="#000000" stroke-width="1" fill="none"></path></g><g transform="translate(670.2988140780042 396.1369559618049) rotate(0 117.41394470354862 18.814461639141655)"><path d="M207.88 21.82 C219.56 29.69, 225.3 35.09, 234.05 36.52 M208.57 22.57 C217.92 27.94, 226.75 32.14, 234.81 36.44" stroke="#000000" stroke-width="1" fill="none"></path></g></g></svg>
