<svg version="1.1" xmlns="http://www.w3.org/2000/svg" viewBox="0 0 1282.9996179741865 779.860978713531" width="1282.9996179741865" height="779.860978713531">
  <!-- svg-source:excalidraw -->
  
  <defs>
    <style class="style-fonts">
      @font-face {
        font-family: "Virgil";
        src: url("https://excalidraw.com/Virgil.woff2");
      }
      @font-face {
        font-family: "Cascadia";
        src: url("https://excalidraw.com/Cascadia.woff2");
      }
    </style>
    
  </defs>
  <g stroke-linecap="round" transform="translate(92.59790151635025 159.80635094286413) rotate(0 236.44119291878587 91.59844357997463)"><path d="M32 0 L440.88 0 L448.38 0.5 L454.88 2 L460.38 4.5 L464.88 8 L468.38 12.5 L470.88 18 L472.38 24.5 L472.88 151.2 L472.38 158.7 L470.88 165.2 L468.38 170.7 L464.88 175.2 L460.38 178.7 L454.88 181.2 L448.38 182.7 L440.88 183.2 L32 183.2 L24.5 182.7 L18 181.2 L12.5 178.7 L8 175.2 L4.5 170.7 L2 165.2 L0.5 158.7 L0 151.2 L0.5 24.5 L2 18 L4.5 12.5 L8 8 L12.5 4.5 L18 2 L24.5 0.5 L32 0" stroke="none" stroke-width="0" fill="#a5d8ff"></path><path d="M32 0 M32 0 C181.31 0, 330.63 0, 440.88 0 M32 0 C194.62 0, 357.25 0, 440.88 0 M440.88 0 C462.22 0, 472.88 10.67, 472.88 32 M440.88 0 C462.22 0, 472.88 10.67, 472.88 32 M472.88 32 C472.88 58.86, 472.88 85.71, 472.88 151.2 M472.88 32 C472.88 69.31, 472.88 106.62, 472.88 151.2 M472.88 151.2 C472.88 172.53, 462.22 183.2, 440.88 183.2 M472.88 151.2 C472.88 172.53, 462.22 183.2, 440.88 183.2 M440.88 183.2 C307.85 183.2, 174.82 183.2, 32 183.2 M440.88 183.2 C299.14 183.2, 157.39 183.2, 32 183.2 M32 183.2 C10.67 183.2, 0 172.53, 0 151.2 M32 183.2 C10.67 183.2, 0 172.53, 0 151.2 M0 151.2 C0 105.84, 0 60.49, 0 32 M0 151.2 C0 126.74, 0 102.29, 0 32 M0 32 C0 10.67, 10.67 0, 32 0 M0 32 C0 10.67, 10.67 0, 32 0" stroke="#1971c2" stroke-width="4" fill="none"></path></g><g transform="translate(145.0449128073442 184.17242768152914) rotate(0 41.234375 16.100000000000023)"><text x="82.46875" y="0" font-family="Helvetica, Segoe UI Emoji" font-size="28px" fill="#1971c2" text-anchor="end" style="white-space: pre;" direction="ltr" dominant-baseline="text-before-edge">Server</text></g><g stroke-linecap="round" transform="translate(255.3078596723899 266.53957805019127) rotate(0 68 30)"><path d="M15 0 M15 0 C56 0, 97 0, 121 0 M15 0 C52.62 0, 90.24 0, 121 0 M121 0 C131 0, 136 5, 136 15 M121 0 C131 0, 136 5, 136 15 M136 15 C136 26.46, 136 37.92, 136 45 M136 15 C136 21.85, 136 28.7, 136 45 M136 45 C136 55, 131 60, 121 60 M136 45 C136 55, 131 60, 121 60 M121 60 C81.88 60, 42.76 60, 15 60 M121 60 C87.75 60, 54.49 60, 15 60 M15 60 C5 60, 0 55, 0 45 M15 60 C5 60, 0 55, 0 45 M0 45 C0 37.88, 0 30.76, 0 15 M0 45 C0 38.86, 0 32.71, 0 15 M0 15 C0 5, 5 0, 15 0 M0 15 C0 5, 5 0, 15 0" stroke="#c2255c" stroke-width="4" fill="none"></path></g><g transform="translate(309.3078596723899 280.43957805019136) rotate(0 14 16.100000000000023)"><text x="14" y="0" font-family="Helvetica, Segoe UI Emoji" font-size="28px" fill="#c2255c" text-anchor="middle" style="white-space: pre;" direction="ltr" dominant-baseline="text-before-edge">UI</text></g><g stroke-linecap="round" transform="translate(406.4238856707416 260.4291937563778) rotate(0 67.68357518433095 31.1344514699216)"><path d="M15.57 0 M15.57 0 C54.72 0, 93.87 0, 119.8 0 M15.57 0 C37.45 0, 59.33 0, 119.8 0 M119.8 0 C130.18 0, 135.37 5.19, 135.37 15.57 M119.8 0 C130.18 0, 135.37 5.19, 135.37 15.57 M135.37 15.57 C135.37 22.11, 135.37 28.64, 135.37 46.7 M135.37 15.57 C135.37 25.73, 135.37 35.89, 135.37 46.7 M135.37 46.7 C135.37 57.08, 130.18 62.27, 119.8 62.27 M135.37 46.7 C135.37 57.08, 130.18 62.27, 119.8 62.27 M119.8 62.27 C86.13 62.27, 52.46 62.27, 15.57 62.27 M119.8 62.27 C82.39 62.27, 44.97 62.27, 15.57 62.27 M15.57 62.27 C5.19 62.27, 0 57.08, 0 46.7 M15.57 62.27 C5.19 62.27, 0 57.08, 0 46.7 M0 46.7 C0 38.4, 0 30.1, 0 15.57 M0 46.7 C0 34.57, 0 22.44, 0 15.57 M0 15.57 C0 5.19, 5.19 0, 15.57 0 M0 15.57 C0 5.19, 5.19 0, 15.57 0" stroke="#2f9e44" stroke-width="4" fill="none"></path></g><g transform="translate(433.65921866757253 275.4636452262994) rotate(0 40.4482421875 16.100000000000023)"><text x="40.4482421875" y="0" font-family="Helvetica, Segoe UI Emoji" font-size="28px" fill="#2f9e44" text-anchor="middle" style="white-space: pre;" direction="ltr" dominant-baseline="text-before-edge">GRPC</text></g><g stroke-linecap="round" transform="translate(671.0669125061322 395.3451788140767) rotate(0 300.96635273402717 87.53744800302059)"><path d="M32 0 L569.93 0 L577.43 0.5 L583.93 2 L589.43 4.5 L593.93 8 L597.43 12.5 L599.93 18 L601.43 24.5 L601.93 143.07 L601.43 150.57 L599.93 157.07 L597.43 162.57 L593.93 167.07 L589.43 170.57 L583.93 173.07 L577.43 174.57 L569.93 175.07 L32 175.07 L24.5 174.57 L18 173.07 L12.5 170.57 L8 167.07 L4.5 162.57 L2 157.07 L0.5 150.57 L0 143.07 L0.5 24.5 L2 18 L4.5 12.5 L8 8 L12.5 4.5 L18 2 L24.5 0.5 L32 0" stroke="none" stroke-width="0" fill="#b2f2bb"></path><path d="M32 0 M32 0 C207.76 0, 383.53 0, 569.93 0 M32 0 C234.02 0, 436.04 0, 569.93 0 M569.93 0 C591.27 0, 601.93 10.67, 601.93 32 M569.93 0 C591.27 0, 601.93 10.67, 601.93 32 M601.93 32 C601.93 73.02, 601.93 114.03, 601.93 143.07 M601.93 32 C601.93 73.03, 601.93 114.06, 601.93 143.07 M601.93 143.07 C601.93 164.41, 591.27 175.07, 569.93 175.07 M601.93 143.07 C601.93 164.41, 591.27 175.07, 569.93 175.07 M569.93 175.07 C411.23 175.07, 252.53 175.07, 32 175.07 M569.93 175.07 C372.48 175.07, 175.02 175.07, 32 175.07 M32 175.07 C10.67 175.07, 0 164.41, 0 143.07 M32 175.07 C10.67 175.07, 0 164.41, 0 143.07 M0 143.07 C0 117.3, 0 91.52, 0 32 M0 143.07 C0 103.56, 0 64.04, 0 32 M0 32 C0 10.67, 10.67 0, 32 0 M0 32 C0 10.67, 10.67 0, 32 0" stroke="#2f9e44" stroke-width="4" fill="none"></path></g><g transform="translate(903.9365988313684 405.4977323045496) rotate(0 48.26171875 16.100000000000023)"><text x="96.5234375" y="0" font-family="Helvetica, Segoe UI Emoji" font-size="28px" fill="#2f9e44" text-anchor="end" style="white-space: pre;" direction="ltr" dominant-baseline="text-before-edge">Agent 1</text></g><g transform="translate(10 546.0538603788664) rotate(0 105.0341796875 16.100000000000023)"><text x="210.068359375" y="0" font-family="Helvetica, Segoe UI Emoji" font-size="28px" fill="#c2255c" text-anchor="end" style="white-space: pre;" direction="ltr" dominant-baseline="text-before-edge">User =&gt; Browser</text></g><g stroke-linecap="round" transform="translate(88.08552546814099 441.3699445306934) rotate(0 23.012374251896745 22.10994035303088)"><path d="M46.02 22.11 C46.02 23.39, 45.91 24.69, 45.68 25.95 C45.44 27.21, 45.09 28.47, 44.64 29.67 C44.18 30.87, 43.61 32.06, 42.94 33.16 C42.28 34.27, 41.5 35.34, 40.64 36.32 C39.78 37.3, 38.82 38.22, 37.8 39.05 C36.78 39.87, 35.67 40.62, 34.52 41.26 C33.36 41.9, 32.13 42.45, 30.88 42.89 C29.63 43.32, 28.32 43.66, 27.01 43.88 C25.7 44.11, 24.34 44.22, 23.01 44.22 C21.68 44.22, 20.33 44.11, 19.02 43.88 C17.7 43.66, 16.39 43.32, 15.14 42.89 C13.89 42.45, 12.66 41.9, 11.51 41.26 C10.35 40.62, 9.24 39.87, 8.22 39.05 C7.2 38.22, 6.24 37.3, 5.38 36.32 C4.53 35.34, 3.75 34.27, 3.08 33.16 C2.42 32.06, 1.84 30.87, 1.39 29.67 C0.93 28.47, 0.58 27.21, 0.35 25.95 C0.12 24.69, 0 23.39, 0 22.11 C0 20.83, 0.12 19.53, 0.35 18.27 C0.58 17.01, 0.93 15.75, 1.39 14.55 C1.84 13.35, 2.42 12.16, 3.08 11.05 C3.75 9.95, 4.53 8.88, 5.38 7.9 C6.24 6.92, 7.2 6, 8.22 5.17 C9.24 4.35, 10.35 3.6, 11.51 2.96 C12.66 2.32, 13.89 1.77, 15.14 1.33 C16.39 0.9, 17.7 0.56, 19.02 0.34 C20.33 0.11, 21.68 0, 23.01 0 C24.34 0, 25.7 0.11, 27.01 0.34 C28.32 0.56, 29.63 0.9, 30.88 1.33 C32.13 1.77, 33.36 2.32, 34.52 2.96 C35.67 3.6, 36.78 4.35, 37.8 5.17 C38.82 6, 39.78 6.92, 40.64 7.9 C41.5 8.88, 42.28 9.95, 42.94 11.05 C43.61 12.16, 44.18 13.35, 44.64 14.55 C45.09 15.75, 45.44 17.01, 45.68 18.27 C45.91 19.53, 45.97 21.47, 46.02 22.11 C46.08 22.75, 46.08 21.47, 46.02 22.11" stroke="#c2255c" stroke-width="4" fill="none"></path></g><g stroke-linecap="round"><g transform="translate(64.62183098987134 536.1269497887567) rotate(0 40.15896258681232 -13.088572673463432)"><path d="M0 0 C7.07 -4.81, 29.03 -29.33, 42.42 -28.88 C55.8 -28.43, 74 -2.56, 80.32 2.71 M0 0 C7.07 -4.81, 29.03 -29.33, 42.42 -28.88 C55.8 -28.43, 74 -2.56, 80.32 2.71" stroke="#c2255c" stroke-width="4" fill="none"></path></g></g><mask></mask><g stroke-linecap="round" transform="translate(122.37870213797214 709.3969435714198) rotate(0 192.67256358780332 30.23201757105562)"><path d="M15.12 0 L373.77 0.24 L376.84 0.94 L381.57 3.78 L384.4 8.5 L385.35 15.12 L385.11 48.89 L384.4 51.96 L381.57 56.69 L376.84 59.52 L370.23 60.46 L11.57 60.23 L8.5 59.52 L3.78 56.69 L0.94 51.96 L0 45.35 L0 15.12 L0.94 8.5 L3.78 3.78 L8.5 0.94 L15.12 0" stroke="none" stroke-width="0" fill="#ffd8a8"></path><path d="M15.12 0 M15.12 0 C96.88 0, 178.64 0, 370.23 0 M15.12 0 C131.18 0, 247.25 0, 370.23 0 M370.23 0 C380.31 0, 385.35 5.04, 385.35 15.12 M370.23 0 C380.31 0, 385.35 5.04, 385.35 15.12 M385.35 15.12 C385.35 23.19, 385.35 31.27, 385.35 45.35 M385.35 15.12 C385.35 21.19, 385.35 27.27, 385.35 45.35 M385.35 45.35 C385.35 55.43, 380.31 60.46, 370.23 60.46 M385.35 45.35 C385.35 55.43, 380.31 60.46, 370.23 60.46 M370.23 60.46 C290.75 60.46, 211.27 60.46, 15.12 60.46 M370.23 60.46 C277.56 60.46, 184.9 60.46, 15.12 60.46 M15.12 60.46 C5.04 60.46, 0 55.43, 0 45.35 M15.12 60.46 C5.04 60.46, 0 55.43, 0 45.35 M0 45.35 C0 36.52, 0 27.7, 0 15.12 M0 45.35 C0 34.32, 0 23.28, 0 15.12 M0 15.12 C0 5.04, 5.04 0, 15.12 0 M0 15.12 C0 5.04, 5.04 0, 15.12 0" stroke="#f08c00" stroke-width="4" fill="none"></path></g><g transform="translate(241.64665200122909 717.5189863637981) rotate(0 66.14453125 16.100000000000023)"><text x="132.2890625" y="0" font-family="Helvetica, Segoe UI Emoji" font-size="28px" fill="#f08c00" text-anchor="end" style="white-space: pre;" direction="ltr" dominant-baseline="text-before-edge">Autoscaler</text></g><g transform="translate(128.87396920842184 746.3033010292895) rotate(0 184.57421875 9.200000000000045)"><text x="369.1484375" y="0" font-family="Helvetica, Segoe UI Emoji" font-size="16px" fill="#f08c00" text-anchor="end" style="white-space: pre;" direction="ltr" dominant-baseline="text-before-edge">Starts agents based on amount of pending pipelines</text></g><g transform="translate(837.6953925352855 444.80422566869333) rotate(0 146.30859375 9.200000000000045)"><text x="292.6171875" y="0" font-family="Helvetica, Segoe UI Emoji" font-size="16px" fill="#2f9e44" text-anchor="end" style="white-space: pre;" direction="ltr" dominant-baseline="text-before-edge">Executes pending workflows of a pipeline</text></g><g transform="translate(111.12264685787613 222.35093031056067) rotate(0 79.0078125 18.399999999999977)"><text x="79.0078125" y="0" font-family="Helvetica, Segoe UI Emoji" font-size="16px" fill="#1971c2" text-anchor="middle" style="white-space: pre;" direction="ltr" dominant-baseline="text-before-edge">Central unit of a </text><text x="79.0078125" y="18.4" font-family="Helvetica, Segoe UI Emoji" font-size="16px" fill="#1971c2" text-anchor="middle" style="white-space: pre;" direction="ltr" dominant-baseline="text-before-edge">Woodpecker instance </text></g><g stroke-linecap="round" transform="translate(577.2121345930555 10) rotate(0 137.17215586897964 37.4515576132751)"><path d="M18.73 0 L255.62 0 L263.81 1.17 L267.03 2.63 L271.71 7.31 L274.05 14.34 L274.34 56.18 L273.17 64.37 L271.71 67.59 L267.03 72.27 L263.81 73.73 L255.62 74.9 L18.73 74.9 L10.53 73.73 L7.31 72.27 L2.63 67.59 L0.29 60.57 L0.29 14.34 L2.63 7.31 L7.31 2.63 L10.53 1.17 L18.73 0" stroke="none" stroke-width="0" fill="#d0bfff"></path><path d="M18.73 0 M18.73 0 C106.46 0, 194.19 0, 255.62 0 M18.73 0 C105.65 0, 192.56 0, 255.62 0 M255.62 0 C268.1 0, 274.34 6.24, 274.34 18.73 M255.62 0 C268.1 0, 274.34 6.24, 274.34 18.73 M274.34 18.73 C274.34 31.29, 274.34 43.86, 274.34 56.18 M274.34 18.73 C274.34 33.07, 274.34 47.42, 274.34 56.18 M274.34 56.18 C274.34 68.66, 268.1 74.9, 255.62 74.9 M274.34 56.18 C274.34 68.66, 268.1 74.9, 255.62 74.9 M255.62 74.9 C163.59 74.9, 71.57 74.9, 18.73 74.9 M255.62 74.9 C179.11 74.9, 102.61 74.9, 18.73 74.9 M18.73 74.9 C6.24 74.9, 0 68.66, 0 56.18 M18.73 74.9 C6.24 74.9, 0 68.66, 0 56.18 M0 56.18 C0 45.2, 0 34.23, 0 18.73 M0 56.18 C0 42.75, 0 29.32, 0 18.73 M0 18.73 C0 6.24, 6.24 0, 18.73 0 M0 18.73 C0 6.24, 6.24 0, 18.73 0" stroke="#6741d9" stroke-width="4" fill="none"></path></g><g transform="translate(671.0204221310714 22.051318430060974) rotate(0 36.572265625 16.100000000000023)"><text x="73.14453125" y="0" font-family="Helvetica, Segoe UI Emoji" font-size="28px" fill="#6741d9" text-anchor="end" style="white-space: pre;" direction="ltr" dominant-baseline="text-before-edge">Forge</text></g><g transform="translate(592.3643918504613 64.0528425158451) rotate(0 123.6171875 9.199999999999989)"><text x="247.234375" y="0" font-family="Helvetica, Segoe UI Emoji" font-size="16px" fill="#6741d9" text-anchor="end" style="white-space: pre;" direction="ltr" dominant-baseline="text-before-edge">Github, Gitea, Github, Bitbucket, ...</text></g><g stroke-linecap="round" transform="translate(425.91923332839633 179.22172172785918) rotate(0 58.5 30)"><path d="M15 0 M15 0 C35.66 0, 56.31 0, 102 0 M15 0 C35.3 0, 55.6 0, 102 0 M102 0 C112 0, 117 5, 117 15 M102 0 C112 0, 117 5, 117 15 M117 15 C117 22.99, 117 30.98, 117 45 M117 15 C117 26.46, 117 37.92, 117 45 M117 45 C117 55, 112 60, 102 60 M117 45 C117 55, 112 60, 102 60 M102 60 C72.96 60, 43.93 60, 15 60 M102 60 C81.15 60, 60.3 60, 15 60 M15 60 C5 60, 0 55, 0 45 M15 60 C5 60, 0 55, 0 45 M0 45 C0 33.31, 0 21.63, 0 15 M0 45 C0 36.87, 0 28.74, 0 15 M0 15 C0 5, 5 0, 15 0 M0 15 C0 5, 5 0, 15 0" stroke="#6741d9" stroke-width="4" fill="none"></path></g><g transform="translate(437.35380364089633 197.72172172785918) rotate(0 47.0654296875 11.5)"><text x="47.0654296875" y="0" font-family="Helvetica, Segoe UI Emoji" font-size="20px" fill="#6741d9" text-anchor="middle" style="white-space: pre;" direction="ltr" dominant-baseline="text-before-edge">Webhooks</text></g><g stroke-linecap="round" transform="translate(302.8016399171074 178.5384183560775) rotate(0 58.5 30)"><path d="M15 0 M15 0 C33.37 0, 51.74 0, 102 0 M15 0 C40.26 0, 65.52 0, 102 0 M102 0 C112 0, 117 5, 117 15 M102 0 C112 0, 117 5, 117 15 M117 15 C117 23.39, 117 31.77, 117 45 M117 15 C117 21.08, 117 27.16, 117 45 M117 45 C117 55, 112 60, 102 60 M117 45 C117 55, 112 60, 102 60 M102 60 C73.16 60, 44.32 60, 15 60 M102 60 C74.12 60, 46.25 60, 15 60 M15 60 C5 60, 0 55, 0 45 M15 60 C5 60, 0 55, 0 45 M0 45 C0 36.74, 0 28.47, 0 15 M0 45 C0 34.11, 0 23.22, 0 15 M0 15 C0 5, 5 0, 15 0 M0 15 C0 5, 5 0, 15 0" stroke="#6741d9" stroke-width="4" fill="none"></path></g><g transform="translate(332.9520305421074 197.0384183560775) rotate(0 28.349609375 11.5)"><text x="28.349609375" y="0" font-family="Helvetica, Segoe UI Emoji" font-size="20px" fill="#6741d9" text-anchor="middle" style="white-space: pre;" direction="ltr" dominant-baseline="text-before-edge">OAuth</text></g><g mask="url(#mask-i_uHlghNCJG4Bxxw9cHw_)" stroke-linecap="round"><g transform="translate(811.1451291280036 89.41545684911182) rotate(0 -136.0547356399943 47.15932906988934)"><path d="M0 0 C-45.35 15.72, -226.76 78.6, -272.11 94.32 M0 0 C-45.35 15.72, -226.76 78.6, -272.11 94.32" stroke="#6741d9" stroke-width="4" fill="none"></path></g><g transform="translate(811.1451291280036 89.41545684911182) rotate(0 -136.0547356399943 47.15932906988934)"><path d="M-272.11 94.32 L-261.34 83.88 L-257.19 95.86 L-272.11 94.32" stroke="none" stroke-width="0" fill="#6741d9" fill-rule="evenodd"></path><path d="M-272.11 94.32 C-269.88 92.16, -267.65 89.99, -261.34 83.88 M-272.11 94.32 C-268.14 90.47, -264.18 86.63, -261.34 83.88 M-261.34 83.88 C-260.43 86.51, -259.51 89.15, -257.19 95.86 M-261.34 83.88 C-260.48 86.36, -259.62 88.85, -257.19 95.86 M-257.19 95.86 C-262.94 95.26, -268.7 94.67, -272.11 94.32 M-257.19 95.86 C-260.2 95.55, -263.22 95.23, -272.11 94.32 M-272.11 94.32 C-272.11 94.32, -272.11 94.32, -272.11 94.32 M-272.11 94.32 C-272.11 94.32, -272.11 94.32, -272.11 94.32" stroke="#6741d9" stroke-width="4" fill="none"></path></g></g><mask id="mask-i_uHlghNCJG4Bxxw9cHw_"><rect x="0" y="0" fill="#fff" width="1183.2546004079923" height="283.7341149888905"></rect><rect x="589.7075809880089" y="118.17478591900124" fill="#000" width="170.765625" height="36.8" opacity="1"></rect></mask><g transform="translate(589.7075809880089 118.17478591900124) rotate(0 85.38281250000045 18.39999999999992)"><text x="85.3828125" y="0" font-family="Helvetica, Segoe UI Emoji" font-size="16px" fill="#6741d9" text-anchor="middle" style="white-space: pre;" direction="ltr" dominant-baseline="text-before-edge">sends events like push, </text><text x="85.3828125" y="18.4" font-family="Helvetica, Segoe UI Emoji" font-size="16px" fill="#6741d9" text-anchor="middle" style="white-space: pre;" direction="ltr" dominant-baseline="text-before-edge">tag, ...</text></g><g mask="url(#mask-2X3A1uaw3AsvGLAaSvzYa)" stroke-linecap="round"><g transform="translate(343.49816463134994 176.9528360008394) rotate(0 115.95455108198666 -54.138110711164416)"><path d="M0 0 C22.86 -10.38, 98.5 -44.22, 137.15 -62.27 C175.8 -80.31, 216.12 -100.61, 231.91 -108.28 M0 0 C22.86 -10.38, 98.5 -44.22, 137.15 -62.27 C175.8 -80.31, 216.12 -100.61, 231.91 -108.28" stroke="#6741d9" stroke-width="4" fill="none"></path></g><g transform="translate(343.49816463134994 176.9528360008394) rotate(0 115.95455108198666 -54.138110711164416)"><path d="M0 0 L9.78 -11.37 L15 0.18 L0 0" stroke="none" stroke-width="0" fill="#6741d9" fill-rule="evenodd"></path><path d="M0 0 C2.75 -3.19, 5.49 -6.39, 9.78 -11.37 M0 0 C2.78 -3.23, 5.55 -6.46, 9.78 -11.37 M9.78 -11.37 C11.26 -8.1, 12.74 -4.83, 15 0.18 M9.78 -11.37 C11.42 -7.73, 13.07 -4.1, 15 0.18 M15 0.18 C9.48 0.11, 3.96 0.05, 0 0 M15 0.18 C10.65 0.13, 6.3 0.08, 0 0 M0 0 C0 0, 0 0, 0 0 M0 0 C0 0, 0 0, 0 0" stroke="#6741d9" stroke-width="4" fill="none"></path></g><g transform="translate(343.49816463134994 176.9528360008394) rotate(0 115.95455108198666 -54.138110711164416)"><path d="M231.91 -108.28 L222.51 -96.58 L216.91 -107.96 L231.91 -108.28" stroke="none" stroke-width="0" fill="#6741d9" fill-rule="evenodd"></path><path d="M231.91 -108.28 C229.27 -104.99, 226.63 -101.71, 222.51 -96.58 M231.91 -108.28 C229.24 -104.96, 226.57 -101.64, 222.51 -96.58 M222.51 -96.58 C220.93 -99.8, 219.34 -103.03, 216.91 -107.96 M222.51 -96.58 C220.75 -100.17, 218.98 -103.75, 216.91 -107.96 M216.91 -107.96 C222.43 -108.08, 227.95 -108.19, 231.91 -108.28 M216.91 -107.96 C221.26 -108.05, 225.61 -108.14, 231.91 -108.28 M231.91 -108.28 C231.91 -108.28, 231.91 -108.28, 231.91 -108.28 M231.91 -108.28 C231.91 -108.28, 231.91 -108.28, 231.91 -108.28" stroke="#6741d9" stroke-width="4" fill="none"></path></g></g><mask id="mask-2X3A1uaw3AsvGLAaSvzYa"><rect x="0" y="0" fill="#fff" width="675.4072667953233" height="385.22905742316823"></rect><rect x="401.9354177872601" y="96.28391584817314" fill="#000" width="157.4296875" height="36.8" opacity="1"></rect></mask><g transform="translate(401.9354177872601 96.28391584817325) rotate(0 57.51729792607648 26.53080944150173)"><text x="78.71484375" y="0" font-family="Helvetica, Segoe UI Emoji" font-size="16px" fill="#6741d9" text-anchor="middle" style="white-space: pre;" direction="ltr" dominant-baseline="text-before-edge">allows users to login </text><text x="78.71484375" y="18.4" font-family="Helvetica, Segoe UI Emoji" font-size="16px" fill="#6741d9" text-anchor="middle" style="white-space: pre;" direction="ltr" dominant-baseline="text-before-edge">using existing account</text></g><g mask="url(#mask-NEAHC6efDQGBjhHS-bumV)" stroke-linecap="round"><g transform="translate(519.8653715766914 324.0518163958129) rotate(0 75.10077046472043 48.34940769018226)"><path d="M0 0 C25.03 16.12, 125.17 80.58, 150.2 96.7 M0 0 C25.03 16.12, 125.17 80.58, 150.2 96.7" stroke="#2f9e44" stroke-width="4" fill="none"></path></g><g transform="translate(519.8653715766914 324.0518163958129) rotate(0 75.10077046472043 48.34940769018226)"><path d="M0 0 L14.86 2.03 L8 12.69 L0 0" stroke="none" stroke-width="0" fill="#2f9e44" fill-rule="evenodd"></path><path d="M0 0 C3.61 0.49, 7.22 0.99, 14.86 2.03 M0 0 C4.88 0.67, 9.76 1.33, 14.86 2.03 M14.86 2.03 C13.03 4.88, 11.2 7.72, 8 12.69 M14.86 2.03 C13.04 4.86, 11.21 7.7, 8 12.69 M8 12.69 C5.7 9.04, 3.4 5.39, 0 0 M8 12.69 C5.75 9.13, 3.51 5.56, 0 0 M0 0 C0 0, 0 0, 0 0 M0 0 C0 0, 0 0, 0 0" stroke="#2f9e44" stroke-width="4" fill="none"></path></g><g transform="translate(519.8653715766914 324.0518163958129) rotate(0 75.10077046472043 48.34940769018226)"><path d="M150.2 96.7 L135.34 94.67 L142.2 84.01 L150.2 96.7" stroke="none" stroke-width="0" fill="#2f9e44" fill-rule="evenodd"></path><path d="M150.2 96.7 C146.59 96.21, 142.98 95.71, 135.34 94.67 M150.2 96.7 C145.32 96.03, 140.44 95.37, 135.34 94.67 M135.34 94.67 C137.17 91.82, 139.01 88.97, 142.2 84.01 M135.34 94.67 C137.16 91.84, 138.99 89, 142.2 84.01 M142.2 84.01 C144.5 87.66, 146.8 91.31, 150.2 96.7 M142.2 84.01 C144.45 87.57, 146.69 91.13, 150.2 96.7 M150.2 96.7 C150.2 96.7, 150.2 96.7, 150.2 96.7 M150.2 96.7 C150.2 96.7, 150.2 96.7, 150.2 96.7" stroke="#2f9e44" stroke-width="4" fill="none"></path></g></g><mask id="mask-NEAHC6efDQGBjhHS-bumV"><rect x="0" y="0" fill="#fff" width="770.0669125061322" height="520.7506317761774"></rect><rect x="514.2591107914113" y="354.0012240859951" fill="#000" width="161.4140625" height="36.8" opacity="1"></rect></mask><g transform="translate(514.2591107914113 354.0012240859951) rotate(0 80.70703125000045 18.40000000000009)"><text x="80.70703125" y="0" font-family="Helvetica, Segoe UI Emoji" font-size="16px" fill="#2f9e44" text-anchor="middle" style="white-space: pre;" direction="ltr" dominant-baseline="text-before-edge">receives workflows &amp; </text><text x="80.70703125" y="18.4" font-family="Helvetica, Segoe UI Emoji" font-size="16px" fill="#2f9e44" text-anchor="middle" style="white-space: pre;" direction="ltr" dominant-baseline="text-before-edge">returns logs + statuses</text></g><g mask="url(#mask-ySfE8Fi_iGkBydy84ZqCz)" stroke-linecap="round"><g transform="translate(462.6796730239921 323.6980966962212) rotate(0 104.64487111614835 141.58652032456587)"><path d="M0 0 C34.88 47.2, 174.41 235.98, 209.29 283.17 M0 0 C34.88 47.2, 174.41 235.98, 209.29 283.17" stroke="#2f9e44" stroke-width="4" fill="none"></path></g><g transform="translate(462.6796730239921 323.6980966962212) rotate(0 104.64487111614835 141.58652032456587)"><path d="M0 0 L13.18 7.16 L2.98 14.7 L0 0" stroke="none" stroke-width="0" fill="#2f9e44" fill-rule="evenodd"></path><path d="M0 0 C4.54 2.47, 9.08 4.94, 13.18 7.16 M0 0 C2.67 1.45, 5.35 2.91, 13.18 7.16 M13.18 7.16 C9.91 9.58, 6.63 12, 2.98 14.7 M13.18 7.16 C10.65 9.03, 8.12 10.9, 2.98 14.7 M2.98 14.7 C2.05 10.08, 1.11 5.46, 0 0 M2.98 14.7 C2.24 11.05, 1.5 7.4, 0 0 M0 0 C0 0, 0 0, 0 0 M0 0 C0 0, 0 0, 0 0" stroke="#2f9e44" stroke-width="4" fill="none"></path></g><g transform="translate(462.6796730239921 323.6980966962212) rotate(0 104.64487111614835 141.58652032456587)"><path d="M209.29 283.17 L196.11 276.01 L206.31 268.47 L209.29 283.17" stroke="none" stroke-width="0" fill="#2f9e44" fill-rule="evenodd"></path><path d="M209.29 283.17 C204.75 280.7, 200.21 278.23, 196.11 276.01 M209.29 283.17 C206.62 281.72, 203.94 280.27, 196.11 276.01 M196.11 276.01 C199.38 273.59, 202.66 271.17, 206.31 268.47 M196.11 276.01 C198.64 274.14, 201.17 272.27, 206.31 268.47 M206.31 268.47 C207.24 273.09, 208.18 277.71, 209.29 283.17 M206.31 268.47 C207.05 272.12, 207.79 275.78, 209.29 283.17 M209.29 283.17 C209.29 283.17, 209.29 283.17, 209.29 283.17 M209.29 283.17 C209.29 283.17, 209.29 283.17, 209.29 283.17" stroke="#2f9e44" stroke-width="4" fill="none"></path></g></g><mask id="mask-ySfE8Fi_iGkBydy84ZqCz"><rect x="0" y="0" fill="#fff" width="771.9694152562888" height="706.871137345353"></rect><rect x="486.61751289014046" y="446.8846170207869" fill="#000" width="161.4140625" height="36.8" opacity="1"></rect></mask><g transform="translate(486.61751289014046 446.8846170207869) rotate(0 80.70703125 18.400000000000205)"><text x="80.70703125" y="0" font-family="Helvetica, Segoe UI Emoji" font-size="16px" fill="#2f9e44" text-anchor="middle" style="white-space: pre;" direction="ltr" dominant-baseline="text-before-edge">receives workflows &amp; </text><text x="80.70703125" y="18.4" font-family="Helvetica, Segoe UI Emoji" font-size="16px" fill="#2f9e44" text-anchor="middle" style="white-space: pre;" direction="ltr" dominant-baseline="text-before-edge">returns logs + statuses</text></g><g stroke-linecap="round"><g transform="translate(140.42765552045967 434.15040448847367) rotate(0 56.940102075965115 -59.90984183407056)"><path d="M0 0 C18.98 -19.97, 94.9 -99.85, 113.88 -119.82 M0 0 C18.98 -19.97, 94.9 -99.85, 113.88 -119.82" stroke="#c2255c" stroke-width="4" fill="none"></path></g><g transform="translate(140.42765552045967 434.15040448847367) rotate(0 56.940102075965115 -59.90984183407056)"><path d="M113.88 -119.82 L109.11 -105.6 L99.92 -114.33 L113.88 -119.82" stroke="none" stroke-width="0" fill="#c2255c" fill-rule="evenodd"></path><path d="M113.88 -119.82 C112.03 -114.3, 110.18 -108.78, 109.11 -105.6 M113.88 -119.82 C112.74 -116.42, 111.6 -113.02, 109.11 -105.6 M109.11 -105.6 C106.23 -108.34, 103.34 -111.08, 99.92 -114.33 M109.11 -105.6 C106.53 -108.05, 103.94 -110.51, 99.92 -114.33 M99.92 -114.33 C104.34 -116.07, 108.77 -117.81, 113.88 -119.82 M99.92 -114.33 C103.75 -115.84, 107.58 -117.34, 113.88 -119.82 M113.88 -119.82 C113.88 -119.82, 113.88 -119.82, 113.88 -119.82 M113.88 -119.82 C113.88 -119.82, 113.88 -119.82, 113.88 -119.82" stroke="#c2255c" stroke-width="4" fill="none"></path></g></g><mask></mask><g stroke-linecap="round" transform="translate(687.310860388302 491.4558177076153) rotate(0 283.36865072661703 34.29300454159841)"><path d="M17.15 0 L553.61 0.27 L560.04 2.41 L562.45 4.29 L565.67 9.64 L566.74 17.15 L566.47 55.46 L564.33 61.89 L560.04 66.17 L557.09 67.51 L549.59 68.59 L13.13 68.32 L6.7 66.17 L4.29 64.3 L1.07 58.94 L0 51.44 L0 17.15 L1.07 9.64 L4.29 4.29 L9.64 1.07 L17.15 0" stroke="none" stroke-width="0" fill="#b2f2bb"></path><path d="M17.15 0 M17.15 0 C175.07 0, 332.99 0, 549.59 0 M17.15 0 C220.26 0, 423.37 0, 549.59 0 M549.59 0 C561.02 0, 566.74 5.72, 566.74 17.15 M549.59 0 C561.02 0, 566.74 5.72, 566.74 17.15 M566.74 17.15 C566.74 27.96, 566.74 38.78, 566.74 51.44 M566.74 17.15 C566.74 30.4, 566.74 43.65, 566.74 51.44 M566.74 51.44 C566.74 62.87, 561.02 68.59, 549.59 68.59 M566.74 51.44 C566.74 62.87, 561.02 68.59, 549.59 68.59 M549.59 68.59 C418.48 68.59, 287.38 68.59, 17.15 68.59 M549.59 68.59 C400.72 68.59, 251.85 68.59, 17.15 68.59 M17.15 68.59 C5.72 68.59, 0 62.87, 0 51.44 M17.15 68.59 C5.72 68.59, 0 62.87, 0 51.44 M0 51.44 C0 38.2, 0 24.96, 0 17.15 M0 51.44 C0 42.08, 0 32.72, 0 17.15 M0 17.15 C0 5.72, 5.72 0, 17.15 0 M0 17.15 C0 5.72, 5.72 0, 17.15 0" stroke="#2f9e44" stroke-width="4" fill="none"></path></g><g transform="translate(906.1582249577796 497.7729927022622) rotate(0 38.916015625 11.5)"><text x="77.83203125" y="0" font-family="Helvetica, Segoe UI Emoji" font-size="20px" fill="#2f9e44" text-anchor="end" style="white-space: pre;" direction="ltr" dominant-baseline="text-before-edge">Backend</text></g><g transform="translate(699.697106718465 520.8293166326407) rotate(0 265.47265625 27.600000000000023)"><text x="0" y="0" font-family="Helvetica, Segoe UI Emoji" font-size="16px" fill="#2f9e44" text-anchor="start" style="white-space: pre;" direction="ltr" dominant-baseline="text-before-edge">The backend is the environment (exp. Docker / Kubernetes / local) used to </text><text x="0" y="18.4" font-family="Helvetica, Segoe UI Emoji" font-size="16px" fill="#2f9e44" text-anchor="start" style="white-space: pre;" direction="ltr" dominant-baseline="text-before-edge">execute workflows in.</text><text x="0" y="36.8" font-family="Helvetica, Segoe UI Emoji" font-size="16px" fill="#2f9e44" text-anchor="start" style="white-space: pre;" direction="ltr" dominant-baseline="text-before-edge"></text></g><g stroke-linecap="round" transform="translate(669.7130206783058 593.4323457950748) rotate(0 300.96635273402717 87.53744800302059)"><path d="M32 0 L569.93 0 L577.43 0.5 L583.93 2 L589.43 4.5 L593.93 8 L597.43 12.5 L599.93 18 L601.43 24.5 L601.93 143.07 L601.43 150.57 L599.93 157.07 L597.43 162.57 L593.93 167.07 L589.43 170.57 L583.93 173.07 L577.43 174.57 L569.93 175.07 L32 175.07 L24.5 174.57 L18 173.07 L12.5 170.57 L8 167.07 L4.5 162.57 L2 157.07 L0.5 150.57 L0 143.07 L0.5 24.5 L2 18 L4.5 12.5 L8 8 L12.5 4.5 L18 2 L24.5 0.5 L32 0" stroke="none" stroke-width="0" fill="#b2f2bb"></path><path d="M32 0 M32 0 C162.52 0, 293.04 0, 569.93 0 M32 0 C199.5 0, 367.01 0, 569.93 0 M569.93 0 C591.27 0, 601.93 10.67, 601.93 32 M569.93 0 C591.27 0, 601.93 10.67, 601.93 32 M601.93 32 C601.93 65.46, 601.93 98.92, 601.93 143.07 M601.93 32 C601.93 60.45, 601.93 88.9, 601.93 143.07 M601.93 143.07 C601.93 164.41, 591.27 175.07, 569.93 175.07 M601.93 143.07 C601.93 164.41, 591.27 175.07, 569.93 175.07 M569.93 175.07 C456.21 175.07, 342.5 175.07, 32 175.07 M569.93 175.07 C386.12 175.07, 202.3 175.07, 32 175.07 M32 175.07 C10.67 175.07, 0 164.41, 0 143.07 M32 175.07 C10.67 175.07, 0 164.41, 0 143.07 M0 143.07 C0 101.35, 0 59.62, 0 32 M0 143.07 C0 116.84, 0 90.61, 0 32 M0 32 C0 10.67, 10.67 0, 32 0 M0 32 C0 10.67, 10.67 0, 32 0" stroke="#2f9e44" stroke-width="4" fill="none"></path></g><g mask="url(#mask-mT-cH2Yx3FYcEWHAVbXwh)" stroke-linecap="round"><g transform="translate(509.528697111311 721.4270921448401) rotate(0 79.41535357217163 -16.367512991594822)"><path d="M0 0 C26.47 -5.46, 132.36 -27.28, 158.83 -32.74 M0 0 C26.47 -5.46, 132.36 -27.28, 158.83 -32.74" stroke="#f08c00" stroke-width="4" fill="none"></path></g><g transform="translate(509.528697111311 721.4270921448401) rotate(0 79.41535357217163 -16.367512991594822)"><path d="M158.83 -32.74 L146.8 -23.78 L144.24 -36.2 L158.83 -32.74" stroke="none" stroke-width="0" fill="#f08c00" fill-rule="evenodd"></path><path d="M158.83 -32.74 C156.06 -30.68, 153.3 -28.62, 146.8 -23.78 M158.83 -32.74 C155.13 -29.98, 151.42 -27.23, 146.8 -23.78 M146.8 -23.78 C145.9 -28.11, 145.01 -32.43, 144.24 -36.2 M146.8 -23.78 C145.8 -28.6, 144.81 -33.43, 144.24 -36.2 M144.24 -36.2 C148.21 -35.26, 152.19 -34.31, 158.83 -32.74 M144.24 -36.2 C149 -35.07, 153.76 -33.94, 158.83 -32.74 M158.83 -32.74 C158.83 -32.74, 158.83 -32.74, 158.83 -32.74 M158.83 -32.74 C158.83 -32.74, 158.83 -32.74, 158.83 -32.74" stroke="#f08c00" stroke-width="4" fill="none"></path></g></g><mask id="mask-mT-cH2Yx3FYcEWHAVbXwh"><rect x="0" y="0" fill="#fff" width="768.3594042556542" height="854.1621181280298"></rect><rect x="569.3854569334826" y="695.859579153245" fill="#000" width="39.1171875" height="18.4" opacity="1"></rect></mask><g transform="translate(569.3854569334826 695.8595791532455) rotate(0 19.55859375 9.200000000000045)"><text x="19.55859375" y="0" font-family="Helvetica, Segoe UI Emoji" font-size="16px" fill="#f08c00" text-anchor="middle" style="white-space: pre;" direction="ltr" dominant-baseline="text-before-edge">starts</text></g><g transform="translate(901.585301819392 615.5423033609286) rotate(0 52.14453125 16.100000000000023)"><text x="104.2890625" y="0" font-family="Helvetica, Segoe UI Emoji" font-size="28px" fill="#2f9e44" text-anchor="end" style="white-space: pre;" direction="ltr" dominant-baseline="text-before-edge">Agent ...</text></g></svg>