<svg version="1.1" xmlns="http://www.w3.org/2000/svg" viewBox="0 0 1074.355451387527 519.9560568908303" width="1074.355451387527" height="519.9560568908303">
  <!-- svg-source:excalidraw -->
  
  <defs>
    <style class="style-fonts">
      @font-face {
        font-family: "Virgil";
        src: url("https://excalidraw.com/Virgil.woff2");
      }
      @font-face {
        font-family: "Cascadia";
        src: url("https://excalidraw.com/Cascadia.woff2");
      }
    </style>
    
  </defs>
  <g stroke-linecap="round" transform="translate(10 10) rotate(0 183.1968355214799 249.97802844541513)"><path d="M32 0 L334.39 0 L341.89 0.5 L348.39 2 L353.89 4.5 L358.39 8 L361.89 12.5 L364.39 18 L365.89 24.5 L366.39 32 L366.39 467.96 L365.89 475.46 L364.39 481.96 L361.89 487.46 L358.39 491.96 L353.89 495.46 L348.39 497.96 L341.89 499.46 L334.39 499.96 L32 499.96 L24.5 499.46 L18 497.96 L12.5 495.46 L8 491.96 L4.5 487.46 L2 481.96 L0.5 475.46 L0 467.96 L0 32 L0.5 24.5 L2 18 L4.5 12.5 L8 8 L12.5 4.5 L18 2 L24.5 0.5 L32 0" stroke="none" stroke-width="0" fill="#a5d8ff"></path><path d="M32 0 M32 0 C116.05 0, 200.11 0, 334.39 0 M32 0 C119.61 0, 207.21 0, 334.39 0 M334.39 0 C355.73 0, 366.39 10.67, 366.39 32 M334.39 0 C355.73 0, 366.39 10.67, 366.39 32 M366.39 32 C366.39 163.43, 366.39 294.85, 366.39 467.96 M366.39 32 C366.39 130.51, 366.39 229.02, 366.39 467.96 M366.39 467.96 C366.39 489.29, 355.73 499.96, 334.39 499.96 M366.39 467.96 C366.39 489.29, 355.73 499.96, 334.39 499.96 M334.39 499.96 C224.34 499.96, 114.29 499.96, 32 499.96 M334.39 499.96 C272.87 499.96, 211.35 499.96, 32 499.96 M32 499.96 C10.67 499.96, 0 489.29, 0 467.96 M32 499.96 C10.67 499.96, 0 489.29, 0 467.96 M0 467.96 C0 363.34, 0 258.72, 0 32 M0 467.96 C0 330.61, 0 193.26, 0 32 M0 32 C0 10.67, 10.67 0, 32 0 M0 32 C0 10.67, 10.67 0, 32 0" stroke="#1971c2" stroke-width="4" fill="none"></path></g><g transform="translate(136.3893757530068 37.298986909978794) rotate(0 49.8134765625 16.100000000000023)"><text x="49.8134765625" y="0" font-family="Helvetica, Segoe UI Emoji" font-size="28px" fill="#1971c2" text-anchor="middle" style="white-space: pre;" direction="ltr" dominant-baseline="text-before-edge">Pipeline</text></g><g stroke-linecap="round" transform="translate(23.536715036866553 84.9032529291369) rotate(0 170.0610558218359 99.5)"><path d="M32 0 L308.12 0 L315.62 0.5 L322.12 2 L327.62 4.5 L332.12 8 L335.62 12.5 L338.12 18 L339.62 24.5 L340.12 32 L340.12 167 L339.62 174.5 L338.12 181 L335.62 186.5 L332.12 191 L327.62 194.5 L322.12 197 L315.62 198.5 L308.12 199 L32 199 L24.5 198.5 L18 197 L12.5 194.5 L8 191 L4.5 186.5 L2 181 L0.5 174.5 L0 167 L0.5 24.5 L2 18 L4.5 12.5 L8 8 L12.5 4.5 L18 2 L24.5 0.5 L32 0" stroke="none" stroke-width="0" fill="#d0bfff"></path><path d="M32 0 M32 0 C106.84 0, 181.69 0, 308.12 0 M32 0 C125.75 0, 219.51 0, 308.12 0 M308.12 0 C329.46 0, 340.12 10.67, 340.12 32 M308.12 0 C329.46 0, 340.12 10.67, 340.12 32 M340.12 32 C340.12 66.92, 340.12 101.84, 340.12 167 M340.12 32 C340.12 78.8, 340.12 125.6, 340.12 167 M340.12 167 C340.12 188.33, 329.46 199, 308.12 199 M340.12 167 C340.12 188.33, 329.46 199, 308.12 199 M308.12 199 C223.73 199, 139.33 199, 32 199 M308.12 199 C207.07 199, 106.02 199, 32 199 M32 199 C10.67 199, 0 188.33, 0 167 M32 199 C10.67 199, 0 188.33, 0 167 M0 167 C0 123.34, 0 79.67, 0 32 M0 167 C0 124.77, 0 82.55, 0 32 M0 32 C0 10.67, 10.67 0, 32 0 M0 32 C0 10.67, 10.67 0, 32 0" stroke="#6741d9" stroke-width="4" fill="none"></path></g><g stroke-linecap="round" transform="translate(106.69717618532104 147.50761863261027) rotate(0 123.5 16.5)"><path d="M8.25 0 L238.75 0 L242.36 0.52 L244.94 2.06 L246.48 4.64 L247 24.75 L246.48 28.36 L244.94 30.94 L242.36 32.48 L238.75 33 L8.25 33 L4.64 32.48 L2.06 30.94 L0.52 28.36 L0 24.75 L0.52 4.64 L2.06 2.06 L4.64 0.52 L8.25 0" stroke="none" stroke-width="0" fill="#b2f2bb"></path><path d="M8.25 0 M8.25 0 C87.71 0, 167.18 0, 238.75 0 M8.25 0 C68.91 0, 129.57 0, 238.75 0 M238.75 0 C244.25 0, 247 2.75, 247 8.25 M238.75 0 C244.25 0, 247 2.75, 247 8.25 M247 8.25 C247 12.77, 247 17.28, 247 24.75 M247 8.25 C247 13.87, 247 19.48, 247 24.75 M247 24.75 C247 30.25, 244.25 33, 238.75 33 M247 24.75 C247 30.25, 244.25 33, 238.75 33 M238.75 33 C156.07 33, 73.38 33, 8.25 33 M238.75 33 C183.83 33, 128.92 33, 8.25 33 M8.25 33 C2.75 33, 0 30.25, 0 24.75 M8.25 33 C2.75 33, 0 30.25, 0 24.75 M0 24.75 C0 21.29, 0 17.84, 0 8.25 M0 24.75 C0 20.59, 0 16.43, 0 8.25 M0 8.25 C0 2.75, 2.75 0, 8.25 0 M0 8.25 C0 2.75, 2.75 0, 8.25 0" stroke="#2f9e44" stroke-width="4" fill="none"></path></g><g transform="translate(182.38955899782104 152.50761863261027) rotate(0 47.8076171875 11.5)"><text x="47.8076171875" y="0" font-family="Helvetica, Segoe UI Emoji" font-size="20px" fill="#2f9e44" text-anchor="middle" style="white-space: pre;" direction="ltr" dominant-baseline="text-before-edge">Clone step</text></g><g stroke-linecap="round" transform="translate(107.59954123289663 193.75806167523683) rotate(0 123.5 16.5)"><path d="M8.25 0 L238.75 0 L242.36 0.52 L244.94 2.06 L246.48 4.64 L247 24.75 L246.48 28.36 L244.94 30.94 L242.36 32.48 L238.75 33 L8.25 33 L4.64 32.48 L2.06 30.94 L0.52 28.36 L0 24.75 L0.52 4.64 L2.06 2.06 L4.64 0.52 L8.25 0" stroke="none" stroke-width="0" fill="#b2f2bb"></path><path d="M8.25 0 M8.25 0 C67.08 0, 125.91 0, 238.75 0 M8.25 0 C97.17 0, 186.08 0, 238.75 0 M238.75 0 C244.25 0, 247 2.75, 247 8.25 M238.75 0 C244.25 0, 247 2.75, 247 8.25 M247 8.25 C247 14.7, 247 21.16, 247 24.75 M247 8.25 C247 13.76, 247 19.27, 247 24.75 M247 24.75 C247 30.25, 244.25 33, 238.75 33 M247 24.75 C247 30.25, 244.25 33, 238.75 33 M238.75 33 C153.62 33, 68.49 33, 8.25 33 M238.75 33 C158.61 33, 78.48 33, 8.25 33 M8.25 33 C2.75 33, 0 30.25, 0 24.75 M8.25 33 C2.75 33, 0 30.25, 0 24.75 M0 24.75 C0 18.34, 0 11.92, 0 8.25 M0 24.75 C0 21.42, 0 18.1, 0 8.25 M0 8.25 C0 2.75, 2.75 0, 8.25 0 M0 8.25 C0 2.75, 2.75 0, 8.25 0" stroke="#2f9e44" stroke-width="4" fill="none"></path></g><g transform="translate(199.41008810789663 198.75806167523683) rotate(0 31.689453125 11.5)"><text x="31.689453125" y="0" font-family="Helvetica, Segoe UI Emoji" font-size="20px" fill="#2f9e44" text-anchor="middle" style="white-space: pre;" direction="ltr" dominant-baseline="text-before-edge">1. Step</text></g><g stroke-linecap="round" transform="translate(106.02036797399433 241.58781567934807) rotate(0 123.5 16.5)"><path d="M8.25 0 L238.75 0 L242.36 0.52 L244.94 2.06 L246.48 4.64 L247 24.75 L246.48 28.36 L244.94 30.94 L242.36 32.48 L238.75 33 L8.25 33 L4.64 32.48 L2.06 30.94 L0.52 28.36 L0 24.75 L0.52 4.64 L2.06 2.06 L4.64 0.52 L8.25 0" stroke="none" stroke-width="0" fill="#b2f2bb"></path><path d="M8.25 0 M8.25 0 C65.92 0, 123.6 0, 238.75 0 M8.25 0 C81.59 0, 154.92 0, 238.75 0 M238.75 0 C244.25 0, 247 2.75, 247 8.25 M238.75 0 C244.25 0, 247 2.75, 247 8.25 M247 8.25 C247 13.68, 247 19.12, 247 24.75 M247 8.25 C247 14.32, 247 20.39, 247 24.75 M247 24.75 C247 30.25, 244.25 33, 238.75 33 M247 24.75 C247 30.25, 244.25 33, 238.75 33 M238.75 33 C186.47 33, 134.2 33, 8.25 33 M238.75 33 C163.59 33, 88.42 33, 8.25 33 M8.25 33 C2.75 33, 0 30.25, 0 24.75 M8.25 33 C2.75 33, 0 30.25, 0 24.75 M0 24.75 C0 21.03, 0 17.32, 0 8.25 M0 24.75 C0 21.4, 0 18.04, 0 8.25 M0 8.25 C0 2.75, 2.75 0, 8.25 0 M0 8.25 C0 2.75, 2.75 0, 8.25 0" stroke="#2f9e44" stroke-width="4" fill="none"></path></g><g transform="translate(197.83091484899433 246.58781567934807) rotate(0 31.689453125 11.5)"><text x="31.689453125" y="0" font-family="Helvetica, Segoe UI Emoji" font-size="20px" fill="#2f9e44" text-anchor="middle" style="white-space: pre;" direction="ltr" dominant-baseline="text-before-edge">2. Step</text></g><g stroke-linecap="round"><g transform="translate(246.4412617700782 57.12117132363301) rotate(0 147.15121850774585 -18.328008361007733)"><path d="M0 0 C49.05 -6.11, 245.25 -30.55, 294.3 -36.66 M0 0 C49.05 -6.11, 245.25 -30.55, 294.3 -36.66" stroke="#1971c2" stroke-width="4" fill="none"></path></g><g transform="translate(246.4412617700782 57.12117132363301) rotate(0 147.15121850774585 -18.328008361007733)"><path d="M0 0 L12.71 -7.97 L14.27 4.61 L0 0" stroke="none" stroke-width="0" fill="#1971c2" fill-rule="evenodd"></path><path d="M0 0 C3.47 -2.18, 6.94 -4.35, 12.71 -7.97 M0 0 C2.74 -1.72, 5.48 -3.44, 12.71 -7.97 M12.71 -7.97 C13.27 -3.47, 13.83 1.02, 14.27 4.61 M12.71 -7.97 C13.11 -4.72, 13.52 -1.46, 14.27 4.61 M14.27 4.61 C11.12 3.59, 7.97 2.57, 0 0 M14.27 4.61 C10.25 3.31, 6.23 2.01, 0 0 M0 0 C0 0, 0 0, 0 0 M0 0 C0 0, 0 0, 0 0" stroke="#1971c2" stroke-width="4" fill="none"></path></g></g><mask></mask><g transform="translate(549.7226397099175 10.000034425646163) rotate(0 150.6494140625 23)"><text x="0" y="0" font-family="Helvetica, Segoe UI Emoji" font-size="20px" fill="#1971c2" text-anchor="start" style="white-space: pre;" direction="ltr" dominant-baseline="text-before-edge">A pipeline is triggered by an event</text><text x="0" y="23" font-family="Helvetica, Segoe UI Emoji" font-size="20px" fill="#1971c2" text-anchor="start" style="white-space: pre;" direction="ltr" dominant-baseline="text-before-edge">like a push, tag, manual</text></g><g stroke-linecap="round"><g transform="translate(367.53957805019036 114.81353637789493) rotate(0 80.23259562180101 -1.1226174169167962)"><path d="M0 0 C26.74 -0.37, 133.72 -1.87, 160.47 -2.25 M0 0 C26.74 -0.37, 133.72 -1.87, 160.47 -2.25" stroke="#6741d9" stroke-width="4" fill="none"></path></g><g transform="translate(367.53957805019036 114.81353637789493) rotate(0 80.23259562180101 -1.1226174169167962)"><path d="M0 0 L13.5 -6.53 L13.68 6.15 L0 0" stroke="none" stroke-width="0" fill="#6741d9" fill-rule="evenodd"></path><path d="M0 0 C4.75 -2.3, 9.51 -4.6, 13.5 -6.53 M0 0 C4.28 -2.07, 8.56 -4.14, 13.5 -6.53 M13.5 -6.53 C13.57 -1.71, 13.64 3.11, 13.68 6.15 M13.5 -6.53 C13.55 -3.08, 13.6 0.38, 13.68 6.15 M13.68 6.15 C8.56 3.85, 3.43 1.54, 0 0 M13.68 6.15 C9.71 4.36, 5.74 2.58, 0 0 M0 0 C0 0, 0 0, 0 0 M0 0 C0 0, 0 0, 0 0" stroke="#6741d9" stroke-width="4" fill="none"></path></g></g><mask></mask><g stroke-linecap="round" transform="translate(22.45890263702404 300.8085824706625) rotate(0 170.0610558218359 99.5)"><path d="M32 0 L308.12 0 L315.62 0.5 L322.12 2 L327.62 4.5 L332.12 8 L335.62 12.5 L338.12 18 L339.62 24.5 L340.12 32 L340.12 167 L339.62 174.5 L338.12 181 L335.62 186.5 L332.12 191 L327.62 194.5 L322.12 197 L315.62 198.5 L308.12 199 L32 199 L24.5 198.5 L18 197 L12.5 194.5 L8 191 L4.5 186.5 L2 181 L0.5 174.5 L0 167 L0.5 24.5 L2 18 L4.5 12.5 L8 8 L12.5 4.5 L18 2 L24.5 0.5 L32 0" stroke="none" stroke-width="0" fill="#d0bfff"></path><path d="M32 0 M32 0 C113.67 0, 195.34 0, 308.12 0 M32 0 C91.37 0, 150.74 0, 308.12 0 M308.12 0 C329.46 0, 340.12 10.67, 340.12 32 M308.12 0 C329.46 0, 340.12 10.67, 340.12 32 M340.12 32 C340.12 70.77, 340.12 109.55, 340.12 167 M340.12 32 C340.12 69.6, 340.12 107.2, 340.12 167 M340.12 167 C340.12 188.33, 329.46 199, 308.12 199 M340.12 167 C340.12 188.33, 329.46 199, 308.12 199 M308.12 199 C241.59 199, 175.05 199, 32 199 M308.12 199 C249.74 199, 191.35 199, 32 199 M32 199 C10.67 199, 0 188.33, 0 167 M32 199 C10.67 199, 0 188.33, 0 167 M0 167 C0 137.84, 0 108.69, 0 32 M0 167 C0 130.23, 0 93.46, 0 32 M0 32 C0 10.67, 10.67 0, 32 0 M0 32 C0 10.67, 10.67 0, 32 0" stroke="#6741d9" stroke-width="4" fill="none"></path></g><g transform="translate(548.760955521585 97.98878544221634) rotate(0 240.64453125 57.499999999999886)"><text x="0" y="0" font-family="Helvetica, Segoe UI Emoji" font-size="20px" fill="#6741d9" text-anchor="start" style="white-space: pre;" direction="ltr" dominant-baseline="text-before-edge">Every pipeline consists of multiple workflows.</text><text x="0" y="23" font-family="Helvetica, Segoe UI Emoji" font-size="20px" fill="#6741d9" text-anchor="start" style="white-space: pre;" direction="ltr" dominant-baseline="text-before-edge">Each defined by a separate YAML file and is named </text><text x="0" y="46" font-family="Helvetica, Segoe UI Emoji" font-size="20px" fill="#6741d9" text-anchor="start" style="white-space: pre;" direction="ltr" dominant-baseline="text-before-edge">after the filename.</text><text x="0" y="69" font-family="Helvetica, Segoe UI Emoji" font-size="20px" fill="#6741d9" text-anchor="start" style="white-space: pre;" direction="ltr" dominant-baseline="text-before-edge">Each workflow has its own workspace (folder) which is</text><text x="0" y="92" font-family="Helvetica, Segoe UI Emoji" font-size="20px" fill="#6741d9" text-anchor="start" style="white-space: pre;" direction="ltr" dominant-baseline="text-before-edge">used by all steps of that workflow.</text></g><g stroke-linecap="round"><g transform="translate(357.4422149103111 166.29086100100017) rotate(0 89.22297117659355 41.543536962825556)"><path d="M0 0 C29.74 13.85, 148.7 69.24, 178.45 83.09 M0 0 C29.74 13.85, 148.7 69.24, 178.45 83.09" stroke="#2f9e44" stroke-width="4" fill="none"></path></g><g transform="translate(357.4422149103111 166.29086100100017) rotate(0 89.22297117659355 41.543536962825556)"><path d="M0 0 L15 -0.01 L9.65 11.49 L0 0" stroke="none" stroke-width="0" fill="#2f9e44" fill-rule="evenodd"></path><path d="M0 0 C4.62 0, 9.24 -0.01, 15 -0.01 M0 0 C3.82 0, 7.63 0, 15 -0.01 M15 -0.01 C13.48 3.26, 11.96 6.52, 9.65 11.49 M15 -0.01 C13.21 3.84, 11.41 7.7, 9.65 11.49 M9.65 11.49 C6.62 7.88, 3.59 4.28, 0 0 M9.65 11.49 C6.02 7.17, 2.4 2.85, 0 0 M0 0 C0 0, 0 0, 0 0 M0 0 C0 0, 0 0, 0 0" stroke="#2f9e44" stroke-width="4" fill="none"></path></g></g><mask></mask><g transform="translate(544.2489925811333 237.19129709388085) rotate(0 245.6787109375 23)"><text x="0" y="0" font-family="Helvetica, Segoe UI Emoji" font-size="20px" fill="#2f9e44" text-anchor="start" style="white-space: pre;" direction="ltr" dominant-baseline="text-before-edge">The default first step of each workflow is the clone step.</text><text x="0" y="23" font-family="Helvetica, Segoe UI Emoji" font-size="20px" fill="#2f9e44" text-anchor="start" style="white-space: pre;" direction="ltr" dominant-baseline="text-before-edge">Its fetches the specific code version for a pipeline.</text></g><g transform="translate(44.0672067258256 106.33638507084083) rotate(0 71.9384765625 11.5)"><text x="0" y="0" font-family="Helvetica, Segoe UI Emoji" font-size="20px" fill="#6741d9" text-anchor="start" style="white-space: pre;" direction="ltr" dominant-baseline="text-before-edge">Workflow "build"</text></g><g stroke-linecap="round" transform="translate(104.1028594607269 359.3296412497564) rotate(0 123.5 16.5)"><path d="M8.25 0 L238.75 0 L242.36 0.52 L244.94 2.06 L246.48 4.64 L247 24.75 L246.48 28.36 L244.94 30.94 L242.36 32.48 L238.75 33 L8.25 33 L4.64 32.48 L2.06 30.94 L0.52 28.36 L0 24.75 L0.52 4.64 L2.06 2.06 L4.64 0.52 L8.25 0" stroke="none" stroke-width="0" fill="#b2f2bb"></path><path d="M8.25 0 M8.25 0 C69.61 0, 130.97 0, 238.75 0 M8.25 0 C95.5 0, 182.75 0, 238.75 0 M238.75 0 C244.25 0, 247 2.75, 247 8.25 M238.75 0 C244.25 0, 247 2.75, 247 8.25 M247 8.25 C247 14.8, 247 21.36, 247 24.75 M247 8.25 C247 13.92, 247 19.59, 247 24.75 M247 24.75 C247 30.25, 244.25 33, 238.75 33 M247 24.75 C247 30.25, 244.25 33, 238.75 33 M238.75 33 C191.57 33, 144.38 33, 8.25 33 M238.75 33 C158.72 33, 78.69 33, 8.25 33 M8.25 33 C2.75 33, 0 30.25, 0 24.75 M8.25 33 C2.75 33, 0 30.25, 0 24.75 M0 24.75 C0 18.7, 0 12.65, 0 8.25 M0 24.75 C0 20.21, 0 15.66, 0 8.25 M0 8.25 C0 2.75, 2.75 0, 8.25 0 M0 8.25 C0 2.75, 2.75 0, 8.25 0" stroke="#2f9e44" stroke-width="4" fill="none"></path></g><g transform="translate(179.7952422732269 364.3296412497564) rotate(0 47.8076171875 11.5)"><text x="47.8076171875" y="0" font-family="Helvetica, Segoe UI Emoji" font-size="20px" fill="#2f9e44" text-anchor="middle" style="white-space: pre;" direction="ltr" dominant-baseline="text-before-edge">Clone step</text></g><g stroke-linecap="round" transform="translate(105.00522450830249 405.5800842923825) rotate(0 123.5 16.5)"><path d="M8.25 0 L238.75 0 L242.36 0.52 L244.94 2.06 L246.48 4.64 L247 24.75 L246.48 28.36 L244.94 30.94 L242.36 32.48 L238.75 33 L8.25 33 L4.64 32.48 L2.06 30.94 L0.52 28.36 L0 24.75 L0.52 4.64 L2.06 2.06 L4.64 0.52 L8.25 0" stroke="none" stroke-width="0" fill="#b2f2bb"></path><path d="M8.25 0 M8.25 0 C72.46 0, 136.67 0, 238.75 0 M8.25 0 C68.65 0, 129.06 0, 238.75 0 M238.75 0 C244.25 0, 247 2.75, 247 8.25 M238.75 0 C244.25 0, 247 2.75, 247 8.25 M247 8.25 C247 11.64, 247 15.04, 247 24.75 M247 8.25 C247 12.22, 247 16.2, 247 24.75 M247 24.75 C247 30.25, 244.25 33, 238.75 33 M247 24.75 C247 30.25, 244.25 33, 238.75 33 M238.75 33 C164.79 33, 90.84 33, 8.25 33 M238.75 33 C151.26 33, 63.77 33, 8.25 33 M8.25 33 C2.75 33, 0 30.25, 0 24.75 M8.25 33 C2.75 33, 0 30.25, 0 24.75 M0 24.75 C0 20.27, 0 15.78, 0 8.25 M0 24.75 C0 18.55, 0 12.34, 0 8.25 M0 8.25 C0 2.75, 2.75 0, 8.25 0 M0 8.25 C0 2.75, 2.75 0, 8.25 0" stroke="#2f9e44" stroke-width="4" fill="none"></path></g><g transform="translate(196.8157713833025 410.5800842923825) rotate(0 31.689453125 11.5)"><text x="31.689453125" y="0" font-family="Helvetica, Segoe UI Emoji" font-size="20px" fill="#2f9e44" text-anchor="middle" style="white-space: pre;" direction="ltr" dominant-baseline="text-before-edge">1. Step</text></g><g stroke-linecap="round" transform="translate(103.42605124940019 453.4098382964937) rotate(0 123.5 16.5)"><path d="M8.25 0 L238.75 0 L242.36 0.52 L244.94 2.06 L246.48 4.64 L247 24.75 L246.48 28.36 L244.94 30.94 L242.36 32.48 L238.75 33 L8.25 33 L4.64 32.48 L2.06 30.94 L0.52 28.36 L0 24.75 L0.52 4.64 L2.06 2.06 L4.64 0.52 L8.25 0" stroke="none" stroke-width="0" fill="#b2f2bb"></path><path d="M8.25 0 M8.25 0 C93.72 0, 179.19 0, 238.75 0 M8.25 0 C76.25 0, 144.26 0, 238.75 0 M238.75 0 C244.25 0, 247 2.75, 247 8.25 M238.75 0 C244.25 0, 247 2.75, 247 8.25 M247 8.25 C247 14.15, 247 20.05, 247 24.75 M247 8.25 C247 11.61, 247 14.96, 247 24.75 M247 24.75 C247 30.25, 244.25 33, 238.75 33 M247 24.75 C247 30.25, 244.25 33, 238.75 33 M238.75 33 C180.97 33, 123.19 33, 8.25 33 M238.75 33 C175.67 33, 112.6 33, 8.25 33 M8.25 33 C2.75 33, 0 30.25, 0 24.75 M8.25 33 C2.75 33, 0 30.25, 0 24.75 M0 24.75 C0 18.27, 0 11.78, 0 8.25 M0 24.75 C0 19.96, 0 15.18, 0 8.25 M0 8.25 C0 2.75, 2.75 0, 8.25 0 M0 8.25 C0 2.75, 2.75 0, 8.25 0" stroke="#2f9e44" stroke-width="4" fill="none"></path></g><g transform="translate(195.2365981244002 458.4098382964937) rotate(0 31.689453125 11.5)"><text x="31.689453125" y="0" font-family="Helvetica, Segoe UI Emoji" font-size="20px" fill="#2f9e44" text-anchor="middle" style="white-space: pre;" direction="ltr" dominant-baseline="text-before-edge">2. Step</text></g><g transform="translate(41.16619717547928 320.2226766644046) rotate(0 66.9287109375 11.5)"><text x="0" y="0" font-family="Helvetica, Segoe UI Emoji" font-size="20px" fill="#6741d9" text-anchor="start" style="white-space: pre;" direction="ltr" dominant-baseline="text-before-edge">Workflow "test"</text></g><g stroke-linecap="round"><g transform="translate(353.83261701743595 209.89220690696243) rotate(0 95.20832548443514 56.48213863925912)"><path d="M0 0 C31.74 18.83, 158.68 94.14, 190.42 112.96 M0 0 C31.74 18.83, 158.68 94.14, 190.42 112.96" stroke="#2f9e44" stroke-width="4" fill="none"></path></g><g transform="translate(353.83261701743595 209.89220690696243) rotate(0 95.20832548443514 56.48213863925912)"><path d="M0 0 L14.93 1.48 L8.46 12.39 L0 0" stroke="none" stroke-width="0" fill="#2f9e44" fill-rule="evenodd"></path><path d="M0 0 C5.6 0.56, 11.2 1.11, 14.93 1.48 M0 0 C5.93 0.59, 11.85 1.18, 14.93 1.48 M14.93 1.48 C13.37 4.1, 11.82 6.72, 8.46 12.39 M14.93 1.48 C13.58 3.75, 12.24 6.02, 8.46 12.39 M8.46 12.39 C5.47 8.01, 2.48 3.64, 0 0 M8.46 12.39 C6.62 9.69, 4.77 6.99, 0 0 M0 0 C0 0, 0 0, 0 0 M0 0 C0 0, 0 0, 0 0" stroke="#2f9e44" stroke-width="4" fill="none"></path></g></g><mask></mask><g stroke-linecap="round"><g transform="translate(355.1861645887939 265.3306975730277) rotate(0 93.40331998411784 28.84011892434478)"><path d="M0 0 C31.13 9.61, 155.67 48.07, 186.81 57.68 M0 0 C31.13 9.61, 155.67 48.07, 186.81 57.68" stroke="#2f9e44" stroke-width="4" fill="none"></path></g><g transform="translate(355.1861645887939 265.3306975730277) rotate(0 93.40331998411784 28.84011892434478)"><path d="M0 0 L14.86 -2.05 L11.12 10.07 L0 0" stroke="none" stroke-width="0" fill="#2f9e44" fill-rule="evenodd"></path><path d="M0 0 C4.12 -0.57, 8.24 -1.13, 14.86 -2.05 M0 0 C3.95 -0.54, 7.9 -1.09, 14.86 -2.05 M14.86 -2.05 C13.73 1.62, 12.6 5.28, 11.12 10.07 M14.86 -2.05 C13.7 1.7, 12.54 5.46, 11.12 10.07 M11.12 10.07 C6.82 6.18, 2.52 2.28, 0 0 M11.12 10.07 C8.53 7.72, 5.94 5.38, 0 0 M0 0 C0 0, 0 0, 0 0 M0 0 C0 0, 0 0, 0 0" stroke="#2f9e44" stroke-width="4" fill="none"></path></g></g><mask></mask><g transform="translate(546.279279512527 306.45411438840233) rotate(0 259.0380859375 23)"><text x="0" y="0" font-family="Helvetica, Segoe UI Emoji" font-size="20px" fill="#2f9e44" text-anchor="start" style="white-space: pre;" direction="ltr" dominant-baseline="text-before-edge">Additional steps are used to execute commands or plugins</text><text x="0" y="23" font-family="Helvetica, Segoe UI Emoji" font-size="20px" fill="#2f9e44" text-anchor="start" style="white-space: pre;" direction="ltr" dominant-baseline="text-before-edge">like `make install` or release-to-github</text></g></svg>