<?xml version="1.0" encoding="UTF-8" standalone="no"?>
<svg
   xmlns:dc="http://purl.org/dc/elements/1.1/"
   xmlns:cc="http://creativecommons.org/ns#"
   xmlns:rdf="http://www.w3.org/1999/02/22-rdf-syntax-ns#"
   xmlns:svg="http://www.w3.org/2000/svg"
   xmlns="http://www.w3.org/2000/svg"
   xmlns:xlink="http://www.w3.org/1999/xlink"
   xmlns:sodipodi="http://sodipodi.sourceforge.net/DTD/sodipodi-0.dtd"
   xmlns:inkscape="http://www.inkscape.org/namespaces/inkscape"
   viewBox="0 0 22.453405 50.000439"
   preserveAspectRatio="xMidYMid meet"
   version="1.1"
   id="svg45"
   sodipodi:docname="logo.svg"
   width="22.453405"
   height="50.000439"
   inkscape:version="0.92.4 (5da689c313, 2019-01-14)">
  <metadata
     id="metadata51">
    <rdf:RDF>
      <cc:Work
         rdf:about="">
        <dc:format>image/svg+xml</dc:format>
        <dc:type
           rdf:resource="http://purl.org/dc/dcmitype/StillImage" />
        <dc:title />
      </cc:Work>
    </rdf:RDF>
  </metadata>
  <defs
     id="defs49">
    <linearGradient
       inkscape:collect="always"
       id="linearGradient5953">
      <stop
         style="stop-color:#000000;stop-opacity:1;"
         offset="0"
         id="stop5949" />
      <stop
         style="stop-color:#000000;stop-opacity:0;"
         offset="1"
         id="stop5951" />
    </linearGradient>
    <radialGradient
       inkscape:collect="always"
       xlink:href="#linearGradient5953"
       id="radialGradient5957"
       cx="8.2885551"
       cy="24.835812"
       fx="8.2885551"
       fy="24.835812"
       r="6.5211034"
       gradientTransform="matrix(1,0,0,3.3690306,0,-58.836801)"
       gradientUnits="userSpaceOnUse" />
  </defs>
  <sodipodi:namedview
     pagecolor="#ffffff"
     bordercolor="#666666"
     borderopacity="1"
     objecttolerance="10"
     gridtolerance="10"
     guidetolerance="10"
     inkscape:pageopacity="0"
     inkscape:pageshadow="2"
     inkscape:window-width="3840"
     inkscape:window-height="2032"
     id="namedview47"
     showgrid="false"
     inkscape:zoom="28.768"
     inkscape:cx="-4.6954753"
     inkscape:cy="29.45752"
     inkscape:window-x="0"
     inkscape:window-y="54"
     inkscape:window-maximized="1"
     inkscape:current-layer="g43"
     fit-margin-top="0"
     fit-margin-left="0"
     fit-margin-right="0"
     fit-margin-bottom="0" />
  <g
     id="g43"
     transform="translate(-13.01027,-34.240175)">
    <path
       fillRule="evenodd"
       clipRule="evenodd"
       d="m 15.10726,34.707434 c 1.148,1.088 1.582,2.188 2.855,2.337 l 0.036,0.007 c -0.588,0.606 -1.089,1.402 -1.443,2.423 -0.379,1.096 -0.488,2.285 -0.614,3.659 -0.189,2.046 -0.401,4.364001 -1.556,7.269001 -2.486,6.258 -1.119,11.631 0.332,17.317 0.664,2.604 1.348,5.297 1.642,8.107 0.035,0.355 0.287,0.652 0.633,0.744 0.346,0.095 0.709,-0.035 0.922,-0.323 0.227,-0.313 0.524,-0.797 0.86,-1.424 0.84,3.323 1.355,6.131 1.783,8.697 0.126,0.73 1.048,0.973 1.517,0.41 2.881,-3.463 3.763,-8.636 2.184,-12.674 0.459,-2.433 1.402,-4.45 2.398,-6.583 0.536,-1.15 1.08,-2.318 1.55,-3.566 0.228,-0.084 0.569,-0.314 0.791,-0.441 l 1.706,-0.981 -0.256,1.052 c -0.112,0.461 0.171,0.929 0.635,1.04 0.457,0.118 0.93,-0.173 1.043,-0.632 l 0.68,-2.858 1.285,-2.95 c 0.19,-0.436 -0.009,-0.943 -0.446,-1.135 -0.44,-0.189 -0.947,0.01 -1.135,0.448 l -1.152,2.669 -2.383,1.372 c 0.235,-0.932 0.414,-1.919 0.508,-2.981 0.432,-4.859 -0.718,-9.074 -3.066,-11.266001 -0.163,-0.157 -0.208,-0.281 -0.247,-0.26 0.095,-0.119 0.249,-0.26 0.358,-0.374 2.283,-1.693 6.047,-0.147 8.319,0.751 0.589,0.231 0.876,-0.338 0.316,-0.67 -1.949,-1.154 -5.948,-4.197 -8.188,-6.194 -0.313,-0.275 -0.527,-0.607 -0.89,-0.913 -2.415,-4.266 -8.168,-1.764 -10.885,-2.252 -0.102,-0.018 -0.166,0.103 -0.092,0.175 m 10.98,5.899 c -0.059,1.242 -0.603,1.8 -0.999,2.208 -0.218,0.224 -0.427,0.436 -0.525,0.738 -0.236,0.714 0.008,1.51 0.66,2.143 1.974,1.840001 2.925,5.527001 2.538,9.861001 -0.291,3.287 -1.448,5.762 -2.671,8.384 -1.031,2.207 -2.096,4.489 -2.577,7.259 -0.027,0.161 -0.01,0.33 0.056,0.481 1.021,2.433 1.135,6.196 -0.672,9.46 -0.461,-2.553 -1.053,-5.385 -1.97,-8.712 1.964,-4.488 4.203,-11.75 2.919,-17.668 -0.325,-1.497 -1.304,-3.276 -2.387,-4.207 -0.208,-0.179 -0.402,-0.237 -0.495,-0.167 -0.084,0.061 -0.151,0.238 -0.062,0.444 0.55,1.266 0.879,2.599 1.226,4.276 1.125,5.443 -0.956,12.49 -2.835,16.782 l -0.116,0.259 -0.457,0.982 c -0.356,-2.014 -0.849,-3.95 -1.33,-5.839 -1.379,-5.407 -2.679,-10.516 -0.401,-16.255 1.247,-3.137 1.483,-5.692001 1.672,-7.746001 0.116,-1.263 0.216,-2.355 0.526,-3.252 0.905,-2.605 3.062,-3.178 4.744,-2.852 1.632,0.316 3.24,1.593 3.156,3.421 z m -2.868,0.621 c 0.617,0.204 1.283,-0.131 1.487,-0.75 0.202,-0.617 -0.134,-1.283 -0.751,-1.487 -0.618,-0.204 -1.285,0.134 -1.487,0.751 -0.204,0.618 0.133,1.284 0.751,1.486 z"
       id="path41"
       inkscape:connector-curvature="0"
       style="fill-opacity:0.80505413;fill:#000000" />
    <path
       style="fill:none;fill-opacity:0.45487366;stroke-width:0.03476084"
       d="m 8.8842581,46.780405 c -0.00984,-0.02868 -0.043593,-0.200744 -0.07501,-0.38237 C 8.4763396,44.473449 7.7181134,41.102144 7.1052676,38.821624 6.9172743,38.122066 6.9016277,38.264623 7.2593269,37.417928 8.0964501,35.436405 8.9270313,32.875565 9.4145271,30.773035 9.9595591,28.422357 10.217352,26.34615 10.216584,24.313443 10.215805,22.251865 9.9744538,20.591945 9.498671,19.375911 9.0317793,18.1826 8.2453903,16.986888 7.5080846,16.349203 7.2367529,16.114532 7.075992,16.057499 6.9494079,16.151001 c -0.1421016,0.104964 -0.1340253,0.292719 0.029806,0.692922 0.5587528,1.364905 1.1597396,3.812745 1.345981,5.482227 0.1196583,1.072627 0.1022399,2.945469 -0.04025,4.327725 -0.3165378,3.070644 -1.2552235,6.666418 -2.6225028,10.045885 -0.3049354,0.753701 -0.9032999,2.08565 -0.9369566,2.08565 -0.010457,0 -0.071712,-0.277652 -0.1361227,-0.617005 C 4.3814427,37.072962 4.0766926,35.764206 3.4055815,33.084632 2.3483469,28.863365 2.0696096,27.483313 1.8504628,25.385104 1.7724073,24.637766 1.7613535,22.252386 1.8329049,21.596172 2.020212,19.878339 2.3327524,18.561065 2.9256931,16.99036 3.4476314,15.607742 3.6667338,14.93025 3.9205869,13.914025 4.2747692,12.496163 4.4364363,11.439039 4.672405,8.9979684 4.8581198,7.0767681 4.9877272,6.3328495 5.2591921,5.6299378 5.7590756,4.3355744 6.6580043,3.4365659 7.8182844,3.0706178 c 1.8817993,-0.5935124 4.1273166,0.2744263 4.9488076,1.912816 0.216989,0.4327636 0.28057,0.726569 0.277694,1.2832057 -0.0021,0.4050386 -0.01731,0.5424868 -0.09075,0.8195898 -0.149766,0.5650768 -0.347811,0.8982425 -0.851308,1.4321305 -0.383946,0.4071208 -0.482686,0.5499718 -0.567933,0.8216553 -0.142224,0.4532665 -0.07886,1.0131629 0.165548,1.4629149 0.149896,0.275827 0.292306,0.454857 0.649791,0.81688 1.264032,1.280076 2.046753,3.233166 2.375194,5.926724 0.08934,0.732644 0.08886,3.068816 -7.92e-4,3.910595 -0.187862,1.763856 -0.575201,3.30088 -1.292091,5.127225 -0.317479,0.808808 -0.607504,1.468137 -1.330279,3.024193 -1.073206,2.310498 -1.480594,3.288763 -1.903564,4.571051 -0.3741818,1.13438 -0.7116474,2.525048 -0.7116474,2.932641 0,0.122527 0.042139,0.288666 0.1355513,0.534427 0.4394061,1.156048 0.6382171,2.302871 0.6403271,3.693666 0.0021,1.388675 -0.183399,2.532213 -0.6146444,3.788933 -0.2500385,0.728653 -0.7268454,1.759218 -0.7639255,1.65114 z M 11.103329,6.9363781 C 11.427791,6.7684832 11.640819,6.5015439 11.730501,6.1504868 11.875505,5.582877 11.547419,4.9637853 10.99024,4.7536271 c -0.280381,-0.1057549 -0.678638,-0.085279 -0.939614,0.04831 -0.9383249,0.4803108 -0.8622845,1.8158861 0.124492,2.1865664 0.246485,0.092591 0.697485,0.067265 0.928211,-0.052125 z"
       id="path5941"
       inkscape:connector-curvature="0"
       transform="translate(13.01027,34.240175)" />
    <path
       style="fill:none;fill-opacity:0.45487366;stroke-width:0.03476084"
       d="m 8.8842581,46.780405 c -0.00984,-0.02868 -0.043593,-0.200744 -0.07501,-0.38237 C 8.4763396,44.473449 7.7181134,41.102144 7.1052676,38.821624 6.9172743,38.122066 6.9016277,38.264623 7.2593269,37.417928 8.0964501,35.436405 8.9270313,32.875565 9.4145271,30.773035 9.9595591,28.422357 10.217352,26.34615 10.216584,24.313443 10.215805,22.251865 9.9744538,20.591945 9.498671,19.375911 9.0317793,18.1826 8.2453903,16.986888 7.5080846,16.349203 7.2367529,16.114532 7.075992,16.057499 6.9494079,16.151001 c -0.1421016,0.104964 -0.1340253,0.292719 0.029806,0.692922 0.5587528,1.364905 1.1597396,3.812745 1.345981,5.482227 0.1196583,1.072627 0.1022399,2.945469 -0.04025,4.327725 -0.3165378,3.070644 -1.2552235,6.666418 -2.6225028,10.045885 -0.3049354,0.753701 -0.9032999,2.08565 -0.9369566,2.08565 -0.010457,0 -0.071712,-0.277652 -0.1361227,-0.617005 C 4.3814427,37.072962 4.0766926,35.764206 3.4055815,33.084632 2.3483469,28.863365 2.0696096,27.483313 1.8504628,25.385104 1.7724073,24.637766 1.7613535,22.252386 1.8329049,21.596172 2.020212,19.878339 2.3327524,18.561065 2.9256931,16.99036 3.4476314,15.607742 3.6667338,14.93025 3.9205869,13.914025 4.2747692,12.496163 4.4364363,11.439039 4.672405,8.9979684 4.8581198,7.0767681 4.9877272,6.3328495 5.2591921,5.6299378 5.7590756,4.3355744 6.6580043,3.4365659 7.8182844,3.0706178 c 1.8817993,-0.5935124 4.1273166,0.2744263 4.9488076,1.912816 0.216989,0.4327636 0.28057,0.726569 0.277694,1.2832057 -0.0021,0.4050386 -0.01731,0.5424868 -0.09075,0.8195898 -0.149766,0.5650768 -0.347811,0.8982425 -0.851308,1.4321305 -0.383946,0.4071208 -0.482686,0.5499718 -0.567933,0.8216553 -0.142224,0.4532665 -0.07886,1.0131629 0.165548,1.4629149 0.149896,0.275827 0.292306,0.454857 0.649791,0.81688 1.264032,1.280076 2.046753,3.233166 2.375194,5.926724 0.08934,0.732644 0.08886,3.068816 -7.92e-4,3.910595 -0.187862,1.763856 -0.575201,3.30088 -1.292091,5.127225 -0.317479,0.808808 -0.607504,1.468137 -1.330279,3.024193 -1.073206,2.310498 -1.480594,3.288763 -1.903564,4.571051 -0.3741818,1.13438 -0.7116474,2.525048 -0.7116474,2.932641 0,0.122527 0.042139,0.288666 0.1355513,0.534427 0.4394061,1.156048 0.6382171,2.302871 0.6403271,3.693666 0.0021,1.388675 -0.183399,2.532213 -0.6146444,3.788933 -0.2500385,0.728653 -0.7268454,1.759218 -0.7639255,1.65114 z M 11.103329,6.9363781 C 11.427791,6.7684832 11.640819,6.5015439 11.730501,6.1504868 11.875505,5.582877 11.547419,4.9637853 10.99024,4.7536271 c -0.280381,-0.1057549 -0.678638,-0.085279 -0.939614,0.04831 -0.9383249,0.4803108 -0.8622845,1.8158861 0.124492,2.1865664 0.246485,0.092591 0.697485,0.067265 0.928211,-0.052125 z"
       id="path5943"
       inkscape:connector-curvature="0"
       transform="translate(13.01027,34.240175)" />
    <path
       style="fill:none;fill-opacity:0.45487366;stroke-width:0.03476084"
       d="m 8.8842581,46.780405 c -0.00984,-0.02868 -0.043593,-0.200744 -0.07501,-0.38237 C 8.4763396,44.473449 7.7181134,41.102144 7.1052676,38.821624 6.9172743,38.122066 6.9016277,38.264623 7.2593269,37.417928 8.0964501,35.436405 8.9270313,32.875565 9.4145271,30.773035 9.9595591,28.422357 10.217352,26.34615 10.216584,24.313443 10.215805,22.251865 9.9744538,20.591945 9.498671,19.375911 9.0317793,18.1826 8.2453903,16.986888 7.5080846,16.349203 7.2367529,16.114532 7.075992,16.057499 6.9494079,16.151001 c -0.1421016,0.104964 -0.1340253,0.292719 0.029806,0.692922 0.5587528,1.364905 1.1597396,3.812745 1.345981,5.482227 0.1196583,1.072627 0.1022399,2.945469 -0.04025,4.327725 -0.3165378,3.070644 -1.2552235,6.666418 -2.6225028,10.045885 -0.3049354,0.753701 -0.9032999,2.08565 -0.9369566,2.08565 -0.010457,0 -0.071712,-0.277652 -0.1361227,-0.617005 C 4.3814427,37.072962 4.0766926,35.764206 3.4055815,33.084632 2.3483469,28.863365 2.0696096,27.483313 1.8504628,25.385104 1.7724073,24.637766 1.7613535,22.252386 1.8329049,21.596172 2.020212,19.878339 2.3327524,18.561065 2.9256931,16.99036 3.4476314,15.607742 3.6667338,14.93025 3.9205869,13.914025 4.2747692,12.496163 4.4364363,11.439039 4.672405,8.9979684 4.8581198,7.0767681 4.9877272,6.3328495 5.2591921,5.6299378 5.7590756,4.3355744 6.6580043,3.4365659 7.8182844,3.0706178 c 1.8817993,-0.5935124 4.1273166,0.2744263 4.9488076,1.912816 0.216989,0.4327636 0.28057,0.726569 0.277694,1.2832057 -0.0021,0.4050386 -0.01731,0.5424868 -0.09075,0.8195898 -0.149766,0.5650768 -0.347811,0.8982425 -0.851308,1.4321305 -0.383946,0.4071208 -0.482686,0.5499718 -0.567933,0.8216553 -0.142224,0.4532665 -0.07886,1.0131629 0.165548,1.4629149 0.149896,0.275827 0.292306,0.454857 0.649791,0.81688 1.264032,1.280076 2.046753,3.233166 2.375194,5.926724 0.08934,0.732644 0.08886,3.068816 -7.92e-4,3.910595 -0.187862,1.763856 -0.575201,3.30088 -1.292091,5.127225 -0.317479,0.808808 -0.607504,1.468137 -1.330279,3.024193 -1.073206,2.310498 -1.480594,3.288763 -1.903564,4.571051 -0.3741818,1.13438 -0.7116474,2.525048 -0.7116474,2.932641 0,0.122527 0.042139,0.288666 0.1355513,0.534427 0.4394061,1.156048 0.6382171,2.302871 0.6403271,3.693666 0.0021,1.388675 -0.183399,2.532213 -0.6146444,3.788933 -0.2500385,0.728653 -0.7268454,1.759218 -0.7639255,1.65114 z M 11.103329,6.9363781 C 11.427791,6.7684832 11.640819,6.5015439 11.730501,6.1504868 11.875505,5.582877 11.547419,4.9637853 10.99024,4.7536271 c -0.280381,-0.1057549 -0.678638,-0.085279 -0.939614,0.04831 -0.9383249,0.4803108 -0.8622845,1.8158861 0.124492,2.1865664 0.246485,0.092591 0.697485,0.067265 0.928211,-0.052125 z"
       id="path5945"
       inkscape:connector-curvature="0"
       transform="translate(13.01027,34.240175)" />
    <path
       style="fill:#a7ac93;fill-opacity:0.97111911;stroke-width:0.03476084;stroke:url(#radialGradient5957)"
       d="m 8.8842581,46.780405 c -0.00984,-0.02868 -0.043593,-0.200744 -0.07501,-0.38237 C 8.4763396,44.473449 7.7181134,41.102144 7.1052676,38.821624 6.9172743,38.122066 6.9016277,38.264623 7.2593269,37.417928 8.0964501,35.436405 8.9270313,32.875565 9.4145271,30.773035 9.9595591,28.422357 10.217352,26.34615 10.216584,24.313443 10.215805,22.251865 9.9744538,20.591945 9.498671,19.375911 9.0317793,18.1826 8.2453903,16.986888 7.5080846,16.349203 7.2367529,16.114532 7.075992,16.057499 6.9494079,16.151001 c -0.1421016,0.104964 -0.1340253,0.292719 0.029806,0.692922 0.5587528,1.364905 1.1597396,3.812745 1.345981,5.482227 0.1196583,1.072627 0.1022399,2.945469 -0.04025,4.327725 -0.3165378,3.070644 -1.2552235,6.666418 -2.6225028,10.045885 -0.3049354,0.753701 -0.9032999,2.08565 -0.9369566,2.08565 -0.010457,0 -0.071712,-0.277652 -0.1361227,-0.617005 C 4.3814427,37.072962 4.0766926,35.764206 3.4055815,33.084632 2.3483469,28.863365 2.0696096,27.483313 1.8504628,25.385104 1.7724073,24.637766 1.7613535,22.252386 1.8329049,21.596172 2.020212,19.878339 2.3327524,18.561065 2.9256931,16.99036 3.4476314,15.607742 3.6667338,14.93025 3.9205869,13.914025 4.2747692,12.496163 4.4364363,11.439039 4.672405,8.9979684 4.8581198,7.0767681 4.9877272,6.3328495 5.2591921,5.6299378 5.7590756,4.3355744 6.6580043,3.4365659 7.8182844,3.0706178 c 1.8817993,-0.5935124 4.1273166,0.2744263 4.9488076,1.912816 0.216989,0.4327636 0.28057,0.726569 0.277694,1.2832057 -0.0021,0.4050386 -0.01731,0.5424868 -0.09075,0.8195898 -0.149766,0.5650768 -0.347811,0.8982425 -0.851308,1.4321305 -0.383946,0.4071208 -0.482686,0.5499718 -0.567933,0.8216553 -0.142224,0.4532665 -0.07886,1.0131629 0.165548,1.4629149 0.149896,0.275827 0.292306,0.454857 0.649791,0.81688 1.264032,1.280076 2.046753,3.233166 2.375194,5.926724 0.08934,0.732644 0.08886,3.068816 -7.92e-4,3.910595 -0.187862,1.763856 -0.575201,3.30088 -1.292091,5.127225 -0.317479,0.808808 -0.607504,1.468137 -1.330279,3.024193 -1.073206,2.310498 -1.480594,3.288763 -1.903564,4.571051 -0.3741818,1.13438 -0.7116474,2.525048 -0.7116474,2.932641 0,0.122527 0.042139,0.288666 0.1355513,0.534427 0.4394061,1.156048 0.6382171,2.302871 0.6403271,3.693666 0.0021,1.388675 -0.183399,2.532213 -0.6146444,3.788933 -0.2500385,0.728653 -0.7268454,1.759218 -0.7639255,1.65114 z M 11.103329,6.9363781 C 11.427791,6.7684832 11.640819,6.5015439 11.730501,6.1504868 11.875505,5.582877 11.547419,4.9637853 10.99024,4.7536271 c -0.280381,-0.1057549 -0.678638,-0.085279 -0.939614,0.04831 -0.9383249,0.4803108 -0.8622845,1.8158861 0.124492,2.1865664 0.246485,0.092591 0.697485,0.067265 0.928211,-0.052125 z"
       id="path5947"
       inkscape:connector-curvature="0"
       transform="translate(13.01027,34.240175)" />
  </g>
</svg>
