<?xml version="1.0" encoding="UTF-8" standalone="no"?>
<svg
   xmlns:dc="http://purl.org/dc/elements/1.1/"
   xmlns:cc="http://creativecommons.org/ns#"
   xmlns:rdf="http://www.w3.org/1999/02/22-rdf-syntax-ns#"
   xmlns:svg="http://www.w3.org/2000/svg"
   xmlns="http://www.w3.org/2000/svg"
   xmlns:sodipodi="http://sodipodi.sourceforge.net/DTD/sodipodi-0.dtd"
   xmlns:inkscape="http://www.inkscape.org/namespaces/inkscape"
   viewBox="0 0 22 22"
   preserveAspectRatio="xMidYMid meet"
   version="1.1"
   id="svg45"
   sodipodi:docname="favicon.svg"
   width="22"
   height="22"
   inkscape:version="0.92.4 (5da689c313, 2019-01-14)">
  <metadata
     id="metadata51">
    <rdf:RDF>
      <cc:Work
         rdf:about="">
        <dc:format>image/svg+xml</dc:format>
        <dc:type
           rdf:resource="http://purl.org/dc/dcmitype/StillImage" />
        <dc:title></dc:title>
      </cc:Work>
    </rdf:RDF>
  </metadata>
  <defs
     id="defs49" />
  <sodipodi:namedview
     pagecolor="#ffffff"
     bordercolor="#666666"
     borderopacity="1"
     objecttolerance="10"
     gridtolerance="10"
     guidetolerance="10"
     inkscape:pageopacity="0"
     inkscape:pageshadow="2"
     inkscape:window-width="3840"
     inkscape:window-height="2032"
     id="namedview47"
     showgrid="false"
     inkscape:zoom="28.768"
     inkscape:cx="3.33428"
     inkscape:cy="29.45752"
     inkscape:window-x="0"
     inkscape:window-y="54"
     inkscape:window-maximized="1"
     inkscape:current-layer="g43"
     fit-margin-top="0"
     fit-margin-left="0"
     fit-margin-right="0"
     fit-margin-bottom="0" />
  <g
     id="g43"
     transform="translate(-13.01027,-62.240601)">
    <path
       fillRule="evenodd"
       clipRule="evenodd"
       d="m 14.272999,64.98413 c 1.148,1.088 1.582,2.188 2.855,2.337 l 0.036,0.007 c -0.588,0.606 -1.089,1.402 -1.443,2.423 -0.379,1.096 -0.488,2.285 -0.614,3.659 -0.189,2.046 -0.401,4.364001 -1.556,7.269001 -2.486,6.258 -1.119,11.631 0.332,17.317004 0.664,2.604005 1.348,5.297005 1.642,8.107005 0.035,0.355 0.287,0.652 0.633,0.744 0.346,0.095 0.709,-0.035 0.922,-0.323 0.227,-0.313 0.524,-0.797 0.86,-1.424 0.84,3.323 1.355,6.131 1.783,8.697 0.126,0.73 1.048,0.973 1.517,0.41 2.881,-3.463 3.763,-8.636 2.184,-12.674 0.459,-2.433005 1.402,-4.450005 2.398,-6.583009 0.536,-1.15 1.08,-2.318 1.55,-3.566 0.228,-0.084 0.569,-0.314 0.791,-0.441 l 1.706,-0.981 -0.256,1.052 c -0.112,0.461 0.171,0.929 0.635,1.04 0.457,0.118 0.93,-0.173 1.043,-0.632 l 0.68,-2.858 1.285,-2.95 c 0.19,-0.436 -0.009,-0.943 -0.446,-1.135 -0.44,-0.189 -0.947,0.01 -1.135,0.448 l -1.152,2.669 -2.383,1.372 c 0.235,-0.932 0.414,-1.919 0.508,-2.981 0.432,-4.859 -0.718,-9.074 -3.066,-11.266001 -0.163,-0.157 -0.208,-0.281 -0.247,-0.26 0.095,-0.119 0.249,-0.26 0.358,-0.374 2.283,-1.693 6.047,-0.147 8.319,0.751 0.589,0.231 0.876,-0.338 0.316,-0.67 -1.949,-1.154 -5.948,-4.197 -8.188,-6.194 -0.313,-0.275 -0.527,-0.607 -0.89,-0.913 -2.415,-4.266 -8.168,-1.764 -10.885,-2.252 -0.102,-0.018 -0.166,0.103 -0.092,0.175 m 10.98,5.899 c -0.059,1.242 -0.603,1.8 -0.999,2.208 -0.218,0.224 -0.427,0.436 -0.525,0.738 -0.236,0.714 0.008,1.51 0.66,2.143 1.974,1.840001 2.925,5.527001 2.538,9.861001 -0.291,3.287 -1.448,5.762 -2.671,8.384 -1.031,2.207004 -2.096,4.489004 -2.577,7.259009 -0.027,0.161 -0.01,0.33 0.056,0.481 1.021,2.433 1.135,6.196 -0.672,9.46 -0.461,-2.553 -1.053,-5.385 -1.97,-8.712 1.964,-4.488005 4.203,-11.750009 2.919,-17.668009 -0.325,-1.497 -1.304,-3.276 -2.387,-4.207 -0.208,-0.179 -0.402,-0.237 -0.495,-0.167 -0.084,0.061 -0.151,0.238 -0.062,0.444 0.55,1.266 0.879,2.599 1.226,4.276 1.125,5.443 -0.956,12.490004 -2.835,16.782009 l -0.116,0.259 -0.457,0.982 c -0.356,-2.014 -0.849,-3.950005 -1.33,-5.839005 -1.379,-5.407004 -2.679,-10.516004 -0.401,-16.255004 1.247,-3.137 1.483,-5.692001 1.672,-7.746001 0.116,-1.263 0.216,-2.355 0.526,-3.252 0.905,-2.605 3.062,-3.178 4.744,-2.852 1.632,0.316 3.24,1.593 3.156,3.421 z m -2.868,0.621 c 0.617,0.204 1.283,-0.131 1.487,-0.75 0.202,-0.617 -0.134,-1.283 -0.751,-1.487 -0.618,-0.204 -1.285,0.134 -1.487,0.751 -0.204,0.618 0.133,1.284 0.751,1.486 z"
       id="path41"
       inkscape:connector-curvature="0" />
  </g>
</svg>
