<?xml version="1.0" encoding="UTF-8" standalone="no"?>
<!DOCTYPE svg PUBLIC "-//W3C//DTD SVG 1.1//EN"
 "http://www.w3.org/Graphics/SVG/1.1/DTD/svg11.dtd">
<!-- Generated by graphviz version 12.2.1 (0)
 -->
<!-- Title: WoodpeckerArchitecture Pages: 1 -->
<svg width="1011pt" height="577pt"
 viewBox="0.00 0.00 1011.00 576.75" xmlns="http://www.w3.org/2000/svg" xmlns:xlink="http://www.w3.org/1999/xlink">
<g id="graph0" class="graph" transform="scale(1 1) rotate(0) translate(4 572.75)">
<title>WoodpeckerArchitecture</title>
<polygon fill="white" stroke="none" points="-4,4 -4,-572.75 1007,-572.75 1007,4 -4,4"/>
<g id="clust1" class="cluster">
<title>cluster_ui</title>
<path fill="#c7efe9" stroke="black" d="M422,-389.25C422,-389.25 468,-389.25 468,-389.25 474,-389.25 480,-395.25 480,-401.25 480,-401.25 480,-453 480,-453 480,-459 474,-465 468,-465 468,-465 422,-465 422,-465 416,-465 410,-459 410,-453 410,-453 410,-401.25 410,-401.25 410,-395.25 416,-389.25 422,-389.25"/>
<text text-anchor="middle" x="445" y="-447.7" font-family="Helvetica,sans-Serif" font-size="14.00">UI</text>
</g>
<g id="clust2" class="cluster">
<title>cluster_cli</title>
<path fill="#bfe9e0" stroke="black" d="M502,-293.5C502,-293.5 606,-293.5 606,-293.5 612,-293.5 618,-299.5 618,-305.5 618,-305.5 618,-548.75 618,-548.75 618,-554.75 612,-560.75 606,-560.75 606,-560.75 502,-560.75 502,-560.75 496,-560.75 490,-554.75 490,-548.75 490,-548.75 490,-305.5 490,-305.5 490,-299.5 496,-293.5 502,-293.5"/>
<text text-anchor="middle" x="554" y="-543.45" font-family="Helvetica,sans-Serif" font-size="14.00">woodpecker&#45;cli</text>
</g>
<g id="clust3" class="cluster">
<title>cluster_agent</title>
<path fill="#ffe0c7" stroke="black" d="M638,-293.5C638,-293.5 741,-293.5 741,-293.5 747,-293.5 753,-299.5 753,-305.5 753,-305.5 753,-453 753,-453 753,-459 747,-465 741,-465 741,-465 638,-465 638,-465 632,-465 626,-459 626,-453 626,-453 626,-305.5 626,-305.5 626,-299.5 632,-293.5 638,-293.5"/>
<text text-anchor="middle" x="689.5" y="-447.7" font-family="Helvetica,sans-Serif" font-size="14.00">woodpecker&#45;agent</text>
</g>
<g id="clust4" class="cluster">
<title>cluster_pipelines</title>
<path fill="#ffe8d6" stroke="black" d="M773,-196C773,-196 887,-196 887,-196 893,-196 899,-202 899,-208 899,-208 899,-454.75 899,-454.75 899,-460.75 893,-466.75 887,-466.75 887,-466.75 773,-466.75 773,-466.75 767,-466.75 761,-460.75 761,-454.75 761,-454.75 761,-208 761,-208 761,-202 767,-196 773,-196"/>
<text text-anchor="middle" x="830" y="-449.45" font-family="Helvetica,sans-Serif" font-size="14.00">Pipelines</text>
</g>
<g id="clust5" class="cluster">
<title>cluster_server</title>
<path fill="#dbe9ff" stroke="black" d="M20,-8C20,-8 379,-8 379,-8 385,-8 391,-14 391,-20 391,-20 391,-453 391,-453 391,-459 385,-465 379,-465 379,-465 20,-465 20,-465 14,-465 8,-459 8,-453 8,-453 8,-20 8,-20 8,-14 14,-8 20,-8"/>
<text text-anchor="middle" x="199.5" y="-447.7" font-family="Helvetica,sans-Serif" font-size="14.00">woodpecker&#45;server</text>
</g>
<g id="clust6" class="cluster">
<title>cluster_shared</title>
<path fill="#eeeeee" stroke="black" d="M497,-102C497,-102 983,-102 983,-102 989,-102 995,-108 995,-114 995,-114 995,-165.75 995,-165.75 995,-171.75 989,-177.75 983,-177.75 983,-177.75 497,-177.75 497,-177.75 491,-177.75 485,-171.75 485,-165.75 485,-165.75 485,-114 485,-114 485,-108 491,-102 497,-102"/>
<text text-anchor="middle" x="740" y="-160.45" font-family="Helvetica,sans-Serif" font-size="14.00">Shared Libs</text>
</g>
<g id="clust7" class="cluster">
<title>cluster_external</title>
<path fill="none" stroke="black" stroke-dasharray="5,2" d="M411,-8C411,-8 621,-8 621,-8 627,-8 633,-14 633,-20 633,-20 633,-71.75 633,-71.75 633,-77.75 627,-83.75 621,-83.75 621,-83.75 411,-83.75 411,-83.75 405,-83.75 399,-77.75 399,-71.75 399,-71.75 399,-20 399,-20 399,-14 405,-8 411,-8"/>
<text text-anchor="middle" x="516" y="-66.45" font-family="Helvetica,sans-Serif" font-size="14.00" fill="white">External Systems</text>
</g>
<!-- ui_web -->
<g id="node1" class="node">
<title>ui_web</title>
<path fill="#2b2b2b" stroke="black" d="M460,-433.25C460,-433.25 430,-433.25 430,-433.25 424,-433.25 418,-427.25 418,-421.25 418,-421.25 418,-409.25 418,-409.25 418,-403.25 424,-397.25 430,-397.25 430,-397.25 460,-397.25 460,-397.25 466,-397.25 472,-403.25 472,-409.25 472,-409.25 472,-421.25 472,-421.25 472,-427.25 466,-433.25 460,-433.25"/>
<text text-anchor="middle" x="445" y="-409.82" font-family="Helvetica,sans-Serif" font-size="14.00" fill="white">web/</text>
</g>
<!-- srv_router -->
<g id="node11" class="node">
<title>srv_router</title>
<path fill="#2b2b2b" stroke="black" d="M283.12,-337.5C283.12,-337.5 210.88,-337.5 210.88,-337.5 204.88,-337.5 198.88,-331.5 198.88,-325.5 198.88,-325.5 198.88,-313.5 198.88,-313.5 198.88,-307.5 204.88,-301.5 210.88,-301.5 210.88,-301.5 283.12,-301.5 283.12,-301.5 289.12,-301.5 295.12,-307.5 295.12,-313.5 295.12,-313.5 295.12,-325.5 295.12,-325.5 295.12,-331.5 289.12,-337.5 283.12,-337.5"/>
<text text-anchor="middle" x="247" y="-314.07" font-family="Helvetica,sans-Serif" font-size="14.00" fill="white">server/router/</text>
</g>
<!-- ui_web&#45;&gt;srv_router -->
<g id="edge1" class="edge">
<title>ui_web&#45;&gt;srv_router</title>
<path fill="none" stroke="#bdbdbd" d="M436,-396.76C436,-370.62 436,-326 436,-326 436,-326 303.7,-326 303.7,-326"/>
<polygon fill="#bdbdbd" stroke="#bdbdbd" points="303.7,-323.55 296.7,-326 303.7,-328.45 303.7,-323.55"/>
<text text-anchor="middle" x="388.35" y="-329.2" font-family="Times,serif" font-size="14.00">HTTP</text>
</g>
<!-- srv_api -->
<g id="node12" class="node">
<title>srv_api</title>
<path fill="#2b2b2b" stroke="black" d="M255.5,-241.75C255.5,-241.75 200.5,-241.75 200.5,-241.75 194.5,-241.75 188.5,-235.75 188.5,-229.75 188.5,-229.75 188.5,-217.75 188.5,-217.75 188.5,-211.75 194.5,-205.75 200.5,-205.75 200.5,-205.75 255.5,-205.75 255.5,-205.75 261.5,-205.75 267.5,-211.75 267.5,-217.75 267.5,-217.75 267.5,-229.75 267.5,-229.75 267.5,-235.75 261.5,-241.75 255.5,-241.75"/>
<text text-anchor="middle" x="228" y="-218.32" font-family="Helvetica,sans-Serif" font-size="14.00" fill="white">server/api/</text>
</g>
<!-- ui_web&#45;&gt;srv_api -->
<g id="edge2" class="edge">
<title>ui_web&#45;&gt;srv_api</title>
<path fill="none" stroke="#bdbdbd" d="M454,-396.89C454,-356.39 454,-263 454,-263 454,-263 244.62,-263 244.62,-263 244.62,-263 244.62,-250.51 244.62,-250.51"/>
<polygon fill="#bdbdbd" stroke="#bdbdbd" points="247.08,-250.51 244.63,-243.51 242.18,-250.51 247.08,-250.51"/>
<text text-anchor="middle" x="381.13" y="-266.2" font-family="Times,serif" font-size="14.00">REST API</text>
</g>
<!-- cli_cmd -->
<g id="node2" class="node">
<title>cli_cmd</title>
<path fill="#2b2b2b" stroke="black" d="M573.25,-529C573.25,-529 534.75,-529 534.75,-529 528.75,-529 522.75,-523 522.75,-517 522.75,-517 522.75,-505 522.75,-505 522.75,-499 528.75,-493 534.75,-493 534.75,-493 573.25,-493 573.25,-493 579.25,-493 585.25,-499 585.25,-505 585.25,-505 585.25,-517 585.25,-517 585.25,-523 579.25,-529 573.25,-529"/>
<text text-anchor="middle" x="554" y="-505.57" font-family="Helvetica,sans-Serif" font-size="14.00" fill="white">cmd/cli/</text>
</g>
<!-- cli_core -->
<g id="node3" class="node">
<title>cli_core</title>
<path fill="#2b2b2b" stroke="black" d="M569,-433.25C569,-433.25 539,-433.25 539,-433.25 533,-433.25 527,-427.25 527,-421.25 527,-421.25 527,-409.25 527,-409.25 527,-403.25 533,-397.25 539,-397.25 539,-397.25 569,-397.25 569,-397.25 575,-397.25 581,-403.25 581,-409.25 581,-409.25 581,-421.25 581,-421.25 581,-427.25 575,-433.25 569,-433.25"/>
<text text-anchor="middle" x="554" y="-409.82" font-family="Helvetica,sans-Serif" font-size="14.00" fill="white">cli/</text>
</g>
<!-- cli_cmd&#45;&gt;cli_core -->
<g id="edge3" class="edge">
<title>cli_cmd&#45;&gt;cli_core</title>
<path fill="none" stroke="#bdbdbd" d="M554,-492.54C554,-492.54 554,-442.17 554,-442.17"/>
<polygon fill="#bdbdbd" stroke="#bdbdbd" points="556.45,-442.17 554,-435.17 551.55,-442.17 556.45,-442.17"/>
</g>
<!-- cli_sdk -->
<g id="node4" class="node">
<title>cli_sdk</title>
<path fill="#2b2b2b" stroke="black" d="M598,-337.5C598,-337.5 510,-337.5 510,-337.5 504,-337.5 498,-331.5 498,-325.5 498,-325.5 498,-313.5 498,-313.5 498,-307.5 504,-301.5 510,-301.5 510,-301.5 598,-301.5 598,-301.5 604,-301.5 610,-307.5 610,-313.5 610,-313.5 610,-325.5 610,-325.5 610,-331.5 604,-337.5 598,-337.5"/>
<text text-anchor="middle" x="554" y="-314.07" font-family="Helvetica,sans-Serif" font-size="14.00" fill="white">woodpecker&#45;go/</text>
</g>
<!-- cli_core&#45;&gt;cli_sdk -->
<g id="edge4" class="edge">
<title>cli_core&#45;&gt;cli_sdk</title>
<path fill="none" stroke="#bdbdbd" d="M554,-396.79C554,-396.79 554,-346.42 554,-346.42"/>
<polygon fill="#bdbdbd" stroke="#bdbdbd" points="556.45,-346.42 554,-339.42 551.55,-346.42 556.45,-346.42"/>
</g>
<!-- cli_sdk&#45;&gt;srv_api -->
<g id="edge5" class="edge">
<title>cli_sdk&#45;&gt;srv_api</title>
<path fill="none" stroke="#bdbdbd" d="M497.75,-314C422.69,-314 299.12,-314 299.12,-314 299.12,-314 299.12,-230 299.12,-230 299.12,-230 276.24,-230 276.24,-230"/>
<polygon fill="#bdbdbd" stroke="#bdbdbd" points="276.24,-227.55 269.24,-230 276.24,-232.45 276.24,-227.55"/>
<text text-anchor="middle" x="373.87" y="-300.7" font-family="Times,serif" font-size="14.00">REST API</text>
</g>
<!-- agent_cmd -->
<g id="node5" class="node">
<title>agent_cmd</title>
<path fill="#2b2b2b" stroke="black" d="M705.75,-433.25C705.75,-433.25 646.25,-433.25 646.25,-433.25 640.25,-433.25 634.25,-427.25 634.25,-421.25 634.25,-421.25 634.25,-409.25 634.25,-409.25 634.25,-403.25 640.25,-397.25 646.25,-397.25 646.25,-397.25 705.75,-397.25 705.75,-397.25 711.75,-397.25 717.75,-403.25 717.75,-409.25 717.75,-409.25 717.75,-421.25 717.75,-421.25 717.75,-427.25 711.75,-433.25 705.75,-433.25"/>
<text text-anchor="middle" x="676" y="-409.82" font-family="Helvetica,sans-Serif" font-size="14.00" fill="white">cmd/agent/</text>
</g>
<!-- agent_core -->
<g id="node6" class="node">
<title>agent_core</title>
<path fill="#2b2b2b" stroke="black" d="M689,-337.5C689,-337.5 659,-337.5 659,-337.5 653,-337.5 647,-331.5 647,-325.5 647,-325.5 647,-313.5 647,-313.5 647,-307.5 653,-301.5 659,-301.5 659,-301.5 689,-301.5 689,-301.5 695,-301.5 701,-307.5 701,-313.5 701,-313.5 701,-325.5 701,-325.5 701,-331.5 695,-337.5 689,-337.5"/>
<text text-anchor="middle" x="674" y="-314.07" font-family="Helvetica,sans-Serif" font-size="14.00" fill="white">agent/</text>
</g>
<!-- agent_cmd&#45;&gt;agent_core -->
<g id="edge6" class="edge">
<title>agent_cmd&#45;&gt;agent_core</title>
<path fill="none" stroke="#bdbdbd" d="M674,-396.79C674,-396.79 674,-346.42 674,-346.42"/>
<polygon fill="#bdbdbd" stroke="#bdbdbd" points="676.45,-346.42 674,-339.42 671.55,-346.42 676.45,-346.42"/>
</g>
<!-- pipe_backend -->
<g id="node9" class="node">
<title>pipe_backend</title>
<path fill="#2b2b2b" stroke="black" d="M878.5,-243.5C878.5,-243.5 781.5,-243.5 781.5,-243.5 775.5,-243.5 769.5,-237.5 769.5,-231.5 769.5,-231.5 769.5,-216 769.5,-216 769.5,-210 775.5,-204 781.5,-204 781.5,-204 878.5,-204 878.5,-204 884.5,-204 890.5,-210 890.5,-216 890.5,-216 890.5,-231.5 890.5,-231.5 890.5,-237.5 884.5,-243.5 878.5,-243.5"/>
<text text-anchor="middle" x="830" y="-226.2" font-family="Helvetica,sans-Serif" font-size="14.00" fill="white">pipeline/backend/</text>
<text text-anchor="middle" x="830" y="-210.45" font-family="Helvetica,sans-Serif" font-size="14.00" fill="white">(exec engines)</text>
</g>
<!-- agent_core&#45;&gt;pipe_backend -->
<g id="edge9" class="edge">
<title>agent_core&#45;&gt;pipe_backend</title>
<path fill="none" stroke="#bdbdbd" d="M701.36,-320C733.82,-320 783.56,-320 783.56,-320 783.56,-320 783.56,-252.21 783.56,-252.21"/>
<polygon fill="#bdbdbd" stroke="#bdbdbd" points="786.01,-252.21 783.56,-245.21 781.11,-252.21 786.01,-252.21"/>
<text text-anchor="middle" x="740.36" y="-323.2" font-family="Times,serif" font-size="14.00">execute steps</text>
</g>
<!-- srv_grpc -->
<g id="node13" class="node">
<title>srv_grpc</title>
<path fill="#2b2b2b" stroke="black" d="M370.88,-241.75C370.88,-241.75 315.12,-241.75 315.12,-241.75 309.12,-241.75 303.12,-235.75 303.12,-229.75 303.12,-229.75 303.12,-217.75 303.12,-217.75 303.12,-211.75 309.12,-205.75 315.12,-205.75 315.12,-205.75 370.88,-205.75 370.88,-205.75 376.88,-205.75 382.88,-211.75 382.88,-217.75 382.88,-217.75 382.88,-229.75 382.88,-229.75 382.88,-235.75 376.88,-241.75 370.88,-241.75"/>
<text text-anchor="middle" x="343" y="-218.32" font-family="Helvetica,sans-Serif" font-size="14.00" fill="white">server/rpc/</text>
</g>
<!-- agent_core&#45;&gt;srv_grpc -->
<g id="edge7" class="edge">
<title>agent_core&#45;&gt;srv_grpc</title>
<path fill="none" stroke="#bdbdbd" d="M665,-301.39C665,-275.24 665,-230 665,-230 665,-230 391.64,-230 391.64,-230"/>
<polygon fill="#bdbdbd" stroke="#bdbdbd" points="391.64,-227.55 384.64,-230 391.64,-232.45 391.64,-227.55"/>
<text text-anchor="middle" x="525.02" y="-233.2" font-family="Times,serif" font-size="14.00">gRPC connect</text>
</g>
<!-- srv_queue -->
<g id="node14" class="node">
<title>srv_queue</title>
<path fill="#2b2b2b" stroke="black" d="M371.25,-146C371.25,-146 296.75,-146 296.75,-146 290.75,-146 284.75,-140 284.75,-134 284.75,-134 284.75,-122 284.75,-122 284.75,-116 290.75,-110 296.75,-110 296.75,-110 371.25,-110 371.25,-110 377.25,-110 383.25,-116 383.25,-122 383.25,-122 383.25,-134 383.25,-134 383.25,-140 377.25,-146 371.25,-146"/>
<text text-anchor="middle" x="334" y="-122.58" font-family="Helvetica,sans-Serif" font-size="14.00" fill="white">server/queue/</text>
</g>
<!-- agent_core&#45;&gt;srv_queue -->
<g id="edge8" class="edge">
<title>agent_core&#45;&gt;srv_queue</title>
<path fill="none" stroke="#bdbdbd" d="M683,-301.2C683,-262.32 683,-175 683,-175 683,-175 356.29,-175 356.29,-175 356.29,-175 356.29,-154.82 356.29,-154.82"/>
<polygon fill="#bdbdbd" stroke="#bdbdbd" points="358.74,-154.82 356.29,-147.82 353.84,-154.82 358.74,-154.82"/>
<text text-anchor="middle" x="546.41" y="-178.2" font-family="Times,serif" font-size="14.00">poll work</text>
</g>
<!-- pipe_core -->
<g id="node7" class="node">
<title>pipe_core</title>
<path fill="#2b2b2b" stroke="black" d="M851.12,-337.5C851.12,-337.5 808.88,-337.5 808.88,-337.5 802.88,-337.5 796.88,-331.5 796.88,-325.5 796.88,-325.5 796.88,-313.5 796.88,-313.5 796.88,-307.5 802.88,-301.5 808.88,-301.5 808.88,-301.5 851.12,-301.5 851.12,-301.5 857.12,-301.5 863.12,-307.5 863.12,-313.5 863.12,-313.5 863.12,-325.5 863.12,-325.5 863.12,-331.5 857.12,-337.5 851.12,-337.5"/>
<text text-anchor="middle" x="830" y="-314.07" font-family="Helvetica,sans-Serif" font-size="14.00" fill="white">pipeline/</text>
</g>
<!-- pipe_core&#45;&gt;pipe_backend -->
<g id="edge11" class="edge">
<title>pipe_core&#45;&gt;pipe_backend</title>
<path fill="none" stroke="#bdbdbd" d="M830,-301.04C830,-301.04 830,-252.32 830,-252.32"/>
<polygon fill="#bdbdbd" stroke="#bdbdbd" points="832.45,-252.32 830,-245.32 827.55,-252.32 832.45,-252.32"/>
</g>
<!-- shared_util -->
<g id="node19" class="node">
<title>shared_util</title>
<path fill="#2b2b2b" stroke="black" d="M975,-146C975,-146 917,-146 917,-146 911,-146 905,-140 905,-134 905,-134 905,-122 905,-122 905,-116 911,-110 917,-110 917,-110 975,-110 975,-110 981,-110 987,-116 987,-122 987,-122 987,-134 987,-134 987,-140 981,-146 975,-146"/>
<text text-anchor="middle" x="946" y="-122.58" font-family="Helvetica,sans-Serif" font-size="14.00" fill="white">shared/util/</text>
</g>
<!-- pipe_core&#45;&gt;shared_util -->
<g id="edge24" class="edge">
<title>pipe_core&#45;&gt;shared_util</title>
<path fill="none" stroke="#bdbdbd" d="M863.55,-320C897.81,-320 946,-320 946,-320 946,-320 946,-154.92 946,-154.92"/>
<polygon fill="#bdbdbd" stroke="#bdbdbd" points="948.45,-154.92 946,-147.92 943.55,-154.92 948.45,-154.92"/>
</g>
<!-- pipe_frontend -->
<g id="node8" class="node">
<title>pipe_frontend</title>
<path fill="#2b2b2b" stroke="black" d="M877.75,-435C877.75,-435 782.25,-435 782.25,-435 776.25,-435 770.25,-429 770.25,-423 770.25,-423 770.25,-407.5 770.25,-407.5 770.25,-401.5 776.25,-395.5 782.25,-395.5 782.25,-395.5 877.75,-395.5 877.75,-395.5 883.75,-395.5 889.75,-401.5 889.75,-407.5 889.75,-407.5 889.75,-423 889.75,-423 889.75,-429 883.75,-435 877.75,-435"/>
<text text-anchor="middle" x="830" y="-417.7" font-family="Helvetica,sans-Serif" font-size="14.00" fill="white">pipeline/frontend/</text>
<text text-anchor="middle" x="830" y="-401.95" font-family="Helvetica,sans-Serif" font-size="14.00" fill="white">(yaml)</text>
</g>
<!-- pipe_frontend&#45;&gt;pipe_core -->
<g id="edge10" class="edge">
<title>pipe_frontend&#45;&gt;pipe_core</title>
<path fill="none" stroke="#bdbdbd" d="M830,-395.41C830,-395.41 830,-346.21 830,-346.21"/>
<polygon fill="#bdbdbd" stroke="#bdbdbd" points="832.45,-346.21 830,-339.21 827.55,-346.21 832.45,-346.21"/>
</g>
<!-- srv_cmd -->
<g id="node10" class="node">
<title>srv_cmd</title>
<path fill="#2b2b2b" stroke="black" d="M241.62,-433.25C241.62,-433.25 178.38,-433.25 178.38,-433.25 172.38,-433.25 166.38,-427.25 166.38,-421.25 166.38,-421.25 166.38,-409.25 166.38,-409.25 166.38,-403.25 172.38,-397.25 178.38,-397.25 178.38,-397.25 241.62,-397.25 241.62,-397.25 247.62,-397.25 253.62,-403.25 253.62,-409.25 253.62,-409.25 253.62,-421.25 253.62,-421.25 253.62,-427.25 247.62,-433.25 241.62,-433.25"/>
<text text-anchor="middle" x="210" y="-409.82" font-family="Helvetica,sans-Serif" font-size="14.00" fill="white">cmd/server/</text>
</g>
<!-- srv_cmd&#45;&gt;srv_router -->
<g id="edge12" class="edge">
<title>srv_cmd&#45;&gt;srv_router</title>
<path fill="none" stroke="#bdbdbd" d="M226.25,-396.79C226.25,-396.79 226.25,-346.42 226.25,-346.42"/>
<polygon fill="#bdbdbd" stroke="#bdbdbd" points="228.7,-346.42 226.25,-339.42 223.8,-346.42 228.7,-346.42"/>
</g>
<!-- srv_router&#45;&gt;srv_api -->
<g id="edge13" class="edge">
<title>srv_router&#45;&gt;srv_api</title>
<path fill="none" stroke="#bdbdbd" d="M221.75,-301.04C221.75,-301.04 221.75,-250.67 221.75,-250.67"/>
<polygon fill="#bdbdbd" stroke="#bdbdbd" points="224.2,-250.67 221.75,-243.67 219.3,-250.67 224.2,-250.67"/>
</g>
<!-- shared_token -->
<g id="node20" class="node">
<title>shared_token</title>
<path fill="#2b2b2b" stroke="black" d="M856.88,-146C856.88,-146 783.12,-146 783.12,-146 777.12,-146 771.12,-140 771.12,-134 771.12,-134 771.12,-122 771.12,-122 771.12,-116 777.12,-110 783.12,-110 783.12,-110 856.88,-110 856.88,-110 862.88,-110 868.88,-116 868.88,-122 868.88,-122 868.88,-134 868.88,-134 868.88,-140 862.88,-146 856.88,-146"/>
<text text-anchor="middle" x="820" y="-122.58" font-family="Helvetica,sans-Serif" font-size="14.00" fill="white">shared/token/</text>
</g>
<!-- srv_router&#45;&gt;shared_token -->
<g id="edge21" class="edge">
<title>srv_router&#45;&gt;shared_token</title>
<path fill="none" stroke="#bdbdbd" d="M291.67,-301.22C291.67,-265.52 291.67,-190 291.67,-190 291.67,-190 820,-190 820,-190 820,-190 820,-154.78 820,-154.78"/>
<polygon fill="#bdbdbd" stroke="#bdbdbd" points="822.45,-154.78 820,-147.78 817.55,-154.78 822.45,-154.78"/>
</g>
<!-- srv_api&#45;&gt;srv_queue -->
<g id="edge16" class="edge">
<title>srv_api&#45;&gt;srv_queue</title>
<path fill="none" stroke="#bdbdbd" d="M267.82,-218C279.02,-218 288.21,-218 288.21,-218 288.21,-218 288.21,-154.73 288.21,-154.73"/>
<polygon fill="#bdbdbd" stroke="#bdbdbd" points="290.66,-154.73 288.21,-147.73 285.76,-154.73 290.66,-154.73"/>
</g>
<!-- srv_pubsub -->
<g id="node15" class="node">
<title>srv_pubsub</title>
<path fill="#2b2b2b" stroke="black" d="M109.62,-146C109.62,-146 28.38,-146 28.38,-146 22.38,-146 16.38,-140 16.38,-134 16.38,-134 16.38,-122 16.38,-122 16.38,-116 22.38,-110 28.38,-110 28.38,-110 109.62,-110 109.62,-110 115.62,-110 121.62,-116 121.62,-122 121.62,-122 121.62,-134 121.62,-134 121.62,-140 115.62,-146 109.62,-146"/>
<text text-anchor="middle" x="69" y="-122.58" font-family="Helvetica,sans-Serif" font-size="14.00" fill="white">server/pubsub/</text>
</g>
<!-- srv_api&#45;&gt;srv_pubsub -->
<g id="edge15" class="edge">
<title>srv_api&#45;&gt;srv_pubsub</title>
<path fill="none" stroke="#bdbdbd" d="M188.29,-224C141.19,-224 69,-224 69,-224 69,-224 69,-154.57 69,-154.57"/>
<polygon fill="#bdbdbd" stroke="#bdbdbd" points="71.45,-154.57 69,-147.57 66.55,-154.57 71.45,-154.57"/>
</g>
<!-- srv_store -->
<g id="node16" class="node">
<title>srv_store</title>
<path fill="#2b2b2b" stroke="black" d="M236.5,-146C236.5,-146 169.5,-146 169.5,-146 163.5,-146 157.5,-140 157.5,-134 157.5,-134 157.5,-122 157.5,-122 157.5,-116 163.5,-110 169.5,-110 169.5,-110 236.5,-110 236.5,-110 242.5,-110 248.5,-116 248.5,-122 248.5,-122 248.5,-134 248.5,-134 248.5,-140 242.5,-146 236.5,-146"/>
<text text-anchor="middle" x="203" y="-122.58" font-family="Helvetica,sans-Serif" font-size="14.00" fill="white">server/store/</text>
</g>
<!-- srv_api&#45;&gt;srv_store -->
<g id="edge14" class="edge">
<title>srv_api&#45;&gt;srv_store</title>
<path fill="none" stroke="#bdbdbd" d="M218.5,-205.29C218.5,-205.29 218.5,-154.92 218.5,-154.92"/>
<polygon fill="#bdbdbd" stroke="#bdbdbd" points="220.95,-154.92 218.5,-147.92 216.05,-154.92 220.95,-154.92"/>
</g>
<!-- shared_http -->
<g id="node21" class="node">
<title>shared_http</title>
<path fill="#2b2b2b" stroke="black" d="M585.25,-146C585.25,-146 504.75,-146 504.75,-146 498.75,-146 492.75,-140 492.75,-134 492.75,-134 492.75,-122 492.75,-122 492.75,-116 498.75,-110 504.75,-110 504.75,-110 585.25,-110 585.25,-110 591.25,-110 597.25,-116 597.25,-122 597.25,-122 597.25,-134 597.25,-134 597.25,-140 591.25,-146 585.25,-146"/>
<text text-anchor="middle" x="545" y="-122.58" font-family="Helvetica,sans-Serif" font-size="14.00" fill="white">shared/httputil/</text>
</g>
<!-- srv_api&#45;&gt;shared_http -->
<g id="edge22" class="edge">
<title>srv_api&#45;&gt;shared_http</title>
<path fill="none" stroke="#bdbdbd" d="M257.33,-205.26C257.33,-186.75 257.33,-161 257.33,-161 257.33,-161 547.62,-161 547.62,-161 547.62,-161 547.62,-154.94 547.62,-154.94"/>
<polygon fill="#bdbdbd" stroke="#bdbdbd" points="550.08,-154.94 547.63,-147.94 545.18,-154.94 550.08,-154.94"/>
</g>
<!-- srv_grpc&#45;&gt;srv_queue -->
<g id="edge17" class="edge">
<title>srv_grpc&#45;&gt;srv_queue</title>
<path fill="none" stroke="#bdbdbd" d="M329.71,-205.29C329.71,-205.29 329.71,-154.92 329.71,-154.92"/>
<polygon fill="#bdbdbd" stroke="#bdbdbd" points="332.16,-154.92 329.71,-147.92 327.26,-154.92 332.16,-154.92"/>
</g>
<!-- shared_log -->
<g id="node22" class="node">
<title>shared_log</title>
<path fill="#2b2b2b" stroke="black" d="M723.12,-146C723.12,-146 644.88,-146 644.88,-146 638.88,-146 632.88,-140 632.88,-134 632.88,-134 632.88,-122 632.88,-122 632.88,-116 638.88,-110 644.88,-110 644.88,-110 723.12,-110 723.12,-110 729.12,-110 735.12,-116 735.12,-122 735.12,-122 735.12,-134 735.12,-134 735.12,-140 729.12,-146 723.12,-146"/>
<text text-anchor="middle" x="684" y="-122.58" font-family="Helvetica,sans-Serif" font-size="14.00" fill="white">shared/logger/</text>
</g>
<!-- srv_grpc&#45;&gt;shared_log -->
<g id="edge23" class="edge">
<title>srv_grpc&#45;&gt;shared_log</title>
<path fill="none" stroke="#bdbdbd" d="M383.14,-218C464.38,-218 640.62,-218 640.62,-218 640.62,-218 640.62,-154.73 640.62,-154.73"/>
<polygon fill="#bdbdbd" stroke="#bdbdbd" points="643.08,-154.73 640.63,-147.73 638.18,-154.73 643.08,-154.73"/>
</g>
<!-- srv_model -->
<g id="node17" class="node">
<title>srv_model</title>
<path fill="#2b2b2b" stroke="black" d="M240.25,-52C240.25,-52 165.75,-52 165.75,-52 159.75,-52 153.75,-46 153.75,-40 153.75,-40 153.75,-28 153.75,-28 153.75,-22 159.75,-16 165.75,-16 165.75,-16 240.25,-16 240.25,-16 246.25,-16 252.25,-22 252.25,-28 252.25,-28 252.25,-40 252.25,-40 252.25,-46 246.25,-52 240.25,-52"/>
<text text-anchor="middle" x="203" y="-28.57" font-family="Helvetica,sans-Serif" font-size="14.00" fill="white">server/model/</text>
</g>
<!-- srv_store&#45;&gt;srv_model -->
<g id="edge18" class="edge">
<title>srv_store&#45;&gt;srv_model</title>
<path fill="none" stroke="#bdbdbd" d="M203,-109.88C203,-109.88 203,-60.9 203,-60.9"/>
<polygon fill="#bdbdbd" stroke="#bdbdbd" points="205.45,-60.9 203,-53.9 200.55,-60.9 205.45,-60.9"/>
</g>
<!-- ext_db -->
<g id="node24" class="node">
<title>ext_db</title>
<path fill="#2b2b2b" stroke="black" d="M480.88,-48.73C480.88,-50.53 464.35,-52 444,-52 423.65,-52 407.12,-50.53 407.12,-48.73 407.12,-48.73 407.12,-19.27 407.12,-19.27 407.12,-17.47 423.65,-16 444,-16 464.35,-16 480.88,-17.47 480.88,-19.27 480.88,-19.27 480.88,-48.73 480.88,-48.73"/>
<path fill="none" stroke="black" d="M480.88,-48.73C480.88,-46.92 464.35,-45.45 444,-45.45 423.65,-45.45 407.12,-46.92 407.12,-48.73"/>
<text text-anchor="middle" x="444" y="-28.57" font-family="Helvetica,sans-Serif" font-size="14.00" fill="white">Database</text>
</g>
<!-- srv_store&#45;&gt;ext_db -->
<g id="edge20" class="edge">
<title>srv_store&#45;&gt;ext_db</title>
<path fill="none" stroke="#bdbdbd" d="M248.93,-128C256.76,-128 262.42,-128 262.42,-128 262.42,-128 262.42,-34 262.42,-34 262.42,-34 398.3,-34 398.3,-34"/>
<polygon fill="#bdbdbd" stroke="#bdbdbd" points="398.3,-36.45 405.3,-34 398.3,-31.55 398.3,-36.45"/>
<text text-anchor="middle" x="289.37" y="-37.2" font-family="Times,serif" font-size="14.00">SQL</text>
</g>
<!-- srv_forge -->
<g id="node18" class="node">
<title>srv_forge</title>
<path fill="#2b2b2b" stroke="black" d="M369.88,-433.25C369.88,-433.25 302.12,-433.25 302.12,-433.25 296.12,-433.25 290.12,-427.25 290.12,-421.25 290.12,-421.25 290.12,-409.25 290.12,-409.25 290.12,-403.25 296.12,-397.25 302.12,-397.25 302.12,-397.25 369.88,-397.25 369.88,-397.25 375.88,-397.25 381.88,-403.25 381.88,-409.25 381.88,-409.25 381.88,-421.25 381.88,-421.25 381.88,-427.25 375.88,-433.25 369.88,-433.25"/>
<text text-anchor="middle" x="336" y="-409.82" font-family="Helvetica,sans-Serif" font-size="14.00" fill="white">server/forge/</text>
</g>
<!-- ext_scm -->
<g id="node23" class="node">
<title>ext_scm</title>
<path fill="#2b2b2b" stroke="black" d="M612.75,-52C612.75,-52 529.25,-52 529.25,-52 523.25,-52 517.25,-46 517.25,-40 517.25,-40 517.25,-28 517.25,-28 517.25,-22 523.25,-16 529.25,-16 529.25,-16 612.75,-16 612.75,-16 618.75,-16 624.75,-22 624.75,-28 624.75,-28 624.75,-40 624.75,-40 624.75,-46 618.75,-52 612.75,-52"/>
<text text-anchor="middle" x="571" y="-28.57" font-family="Helvetica,sans-Serif" font-size="14.00" fill="white">SCM Providers</text>
</g>
<!-- srv_forge&#45;&gt;ext_scm -->
<g id="edge19" class="edge">
<title>srv_forge&#45;&gt;ext_scm</title>
<path fill="none" stroke="#bdbdbd" d="M342.5,-397C342.5,-360.51 342.5,-282 342.5,-282 342.5,-282 603.62,-282 603.62,-282 603.62,-282 603.62,-60.75 603.62,-60.75"/>
<polygon fill="#bdbdbd" stroke="#bdbdbd" points="606.08,-60.75 603.63,-53.75 601.18,-60.75 606.08,-60.75"/>
<text text-anchor="middle" x="499.19" y="-285.2" font-family="Times,serif" font-size="14.00">SCM API</text>
</g>
</g>
</svg>
