<?xml version="1.0" encoding="UTF-8" standalone="no"?>
<svg
   viewBox="0 0 103 250"
   fill="none"
   version="1.1"
   id="svg1"
   xmlns="http://www.w3.org/2000/svg"
   xmlns:svg="http://www.w3.org/2000/svg">
  <defs
     id="defs1" />
  <path
     d="m 92.403074,13.826656 c -5.2137,4.945449 -7.1909,9.94547 -12.9773,10.61817 l -0.1636,0.0318 c 2.6727,2.7546 4.9545,6.3728 6.559,11.0137 1.7273,4.9818 2.2182,10.3863 2.791,16.6318 0.8636,9.3 1.8227,19.8363 7.0727,33.0409 11.300006,28.445094 5.091006,52.864094 -1.5091,78.714094 -3.0182,11.836 -6.1273,24.077 -7.4636,36.85 -0.0781,0.789 -0.3955,1.536 -0.9097,2.141 -0.5142,0.604 -1.2007,1.037 -1.9676,1.24 -0.765,0.21 -1.5756,0.181 -2.3242,-0.081 -0.7485,-0.262 -1.3996,-0.746 -1.8667,-1.387 -1.0318,-1.423 -2.3818,-3.623 -3.9091,-6.473 -3.8182,15.105 -6.1591,27.864 -8.1046,39.532 -0.127,0.74 -0.4631,1.429 -0.9685,1.984 -0.5055,0.555 -1.1592,0.954 -1.884,1.15 -0.7249,0.196 -1.4907,0.181 -2.207,-0.044 -0.7163,-0.226 -1.3534,-0.651 -1.8359,-1.226 -13.0909,-15.741 -17.1046,-39.255 -9.9273,-57.609 -2.0863,-11.059 -6.3727,-20.227 -10.9,-29.923 -2.4363,-5.227 -4.9091,-10.536 -7.0454,-16.209 -1.0364,-0.382 -2.5864,-1.427 -3.591,-2.005 l -7.759,-4.459 1.1636,4.782 c 0.2047,0.997 0.0149,2.034 -0.5296,2.893 -0.5444,0.859 -1.401,1.473 -2.3894,1.714 -0.9884,0.24 -2.0315,0.088 -2.9097,-0.426 -0.8782,-0.513 -1.523,-1.347 -1.7986,-2.326 l -3.0909,-12.991 -5.8409,-13.40929 c -0.2362,-0.4764 -0.37307,-0.9959 -0.40229,-1.5269 -0.0292,-0.5309 0.0498,-1.0623 0.2323,-1.5617 0.1825,-0.4995 0.46463,-0.9567 0.82927,-1.3437 0.36464,-0.3871 0.80417,-0.6959 1.29188,-0.9079 0.48771,-0.2119 1.0134102,-0.3224 1.5451701,-0.3249 0.5317699,-0.002 1.0584699,0.1032 1.5480699,0.3106 0.4897,0.2074 0.9321,0.5122 1.3003,0.8959 0.3682,0.3836 0.6545,0.8381 0.8417,1.3359 l 5.2363,12.13199 10.8319,6.236 c -1.1291,-4.448 -1.9012,-8.979 -2.3091,-13.54979 -1.9637,-22.090904 3.2636,-41.245504 13.9363,-51.209104 0.7409,-0.7137 0.9455,-1.2773 1.1228,-1.1818 -0.4319,-0.5455 -1.1319,-1.1819 -1.6273,-1.7 -10.3773,-7.6955 -27.4864,-0.6682 -37.81367,3.409 -2.67726998,1.0546 -3.98181,-1.5318 -1.43636,-3.0454 8.86363,-5.2409 27.03633,-19.0727 37.21823,-28.15 1.4227,-1.25 2.3954,-2.7591 4.0454,-4.15 10.9773,-19.3863705 37.1273,-8.013641 49.4773,-10.23182 0.4636,-0.08182 0.7545,0.46818 0.4182,0.79545 z m -49.9091,26.81367 c 0.2727,5.6454 2.7409,8.1818 4.5454,10.0363 0.9864,1.0182 1.9364,1.9818 2.3819,3.3546 1.0727,3.2454 -0.0364,6.8636 -3,9.7409 -8.9728,8.3636 -13.2955,25.1227 -11.5364,44.818204 1.3227,14.94579 6.5818,26.19579 12.1409,38.11379 4.6864,10.032 9.5273,20.404 11.7136,32.995 0.1273,0.737 0.0389,1.495 -0.2545,2.182 -4.6364,11.064 -5.1591,28.168 3.0545,43 2.3727,-13.329 5.3608,-26.542 8.9546,-39.595 -8.9273,-20.4 -19.1046,-53.409 -13.2682,-80.30949 1.4773,-6.804504 5.9273,-14.890904 10.85,-19.122704 0.9455,-0.8182 1.8273,-1.0773 2.25,-0.7591 0.3818,0.2727 0.6864,1.0818 0.2818,2.0182 -2.5,5.7545 -3.9954,11.8136 -5.5727,19.436404 -5.1137,24.74069 4.3454,56.77269 12.8863,76.28169 l 0.5273,1.177 2.0773,4.464 c 1.6182,-9.155 3.8636,-17.955 6.0454,-26.545 6.2728,-24.573 12.1819,-47.796 1.8228,-73.882294 -5.6682,-14.2591 -6.7409,-25.8727 -7.6,-35.2091 -0.5273,-5.7409 -0.9818,-10.7045 -2.3909,-14.7818 -4.1137,-11.8409 -13.9182,-14.4455 -21.5637,-12.9636 -7.4181,1.4363 -14.7272,7.2409 -14.3454,15.5454 z m 13.0363,2.8181 c -0.6673,0.2197 -1.3714,0.3058 -2.072,0.2533 -0.7006,-0.0524 -1.3841,-0.2423 -2.0113,-0.5589 -0.6272,-0.3165 -1.1859,-0.7536 -1.6442,-1.286 -0.4584,-0.5325 -0.8073,-1.1501 -1.027,-1.8174 -0.2197,-0.6674 -0.3057,-1.3715 -0.2533,-2.0721 0.0524,-0.7006 0.2424,-1.384 0.5589,-2.0113 0.3166,-0.6272 0.7536,-1.1859 1.2861,-1.6442 0.5325,-0.4584 1.15,-0.8073 1.8174,-1.027 0.6737,-0.244 1.3895,-0.3503 2.105,-0.3126 0.7156,0.0377 1.4162,0.2186 2.0606,0.532 0.6443,0.3134 1.2192,0.753 1.6906,1.2926 0.4713,0.5397 0.8296,1.1684 1.0535,1.8491 0.2239,0.6806 0.309,1.3992 0.2501,2.1133 -0.0588,0.7141 -0.2604,1.4092 -0.5928,2.0439 -0.3324,0.6348 -0.7888,1.1964 -1.3421,1.6516 -0.5534,0.4551 -1.1925,0.7946 -1.8795,0.9983 z"
     fill="#000000"
     id="path1" />
</svg>
