<svg viewBox="0 0 103 228" fill="none" xmlns="http://www.w3.org/2000/svg">
<path d="M92.5292 2.12453C87.3155 7.06998 85.3383 12.07 79.5519 12.7427L79.3883 12.7745C82.061 15.5291 84.3428 19.1473 85.9473 23.7882C87.6746 28.77 88.1655 34.1745 88.7383 40.42C89.6019 49.72 90.561 60.2563 95.811 73.4609C107.111 101.906 100.902 126.325 94.3019 152.175C91.2837 164.011 88.1746 176.252 86.8383 189.025C86.7602 189.814 86.4428 190.561 85.9286 191.166C85.4144 191.77 84.7279 192.203 83.961 192.406C83.196 192.616 82.3854 192.587 81.6368 192.325C80.8883 192.063 80.2372 191.579 79.7701 190.938C78.7383 189.515 77.3883 187.315 75.861 184.465C72.0428 199.57 69.7019 212.329 67.7564 223.997C67.6294 224.737 67.2933 225.426 66.7879 225.981C66.2824 226.536 65.6287 226.935 64.9039 227.131C64.179 227.327 63.4132 227.312 62.6969 227.087C61.9806 226.861 61.3435 226.436 60.861 225.861C47.7701 210.12 43.7564 186.606 50.9337 168.252C48.8474 157.193 44.561 148.025 40.0337 138.329C37.5974 133.102 35.1246 127.793 32.9883 122.12C31.9519 121.738 30.4019 120.693 29.3973 120.115L21.6383 115.656L22.8019 120.438C23.0066 121.435 22.8168 122.472 22.2723 123.331C21.7279 124.19 20.8713 124.804 19.8829 125.045C18.8945 125.285 17.8514 125.133 16.9732 124.619C16.095 124.106 15.4502 123.272 15.1746 122.293L12.0837 109.302L6.2428 95.8927C6.0066 95.4163 5.86973 94.8968 5.84051 94.3658C5.81128 93.8349 5.89032 93.3035 6.07281 92.8041C6.25531 92.3046 6.53744 91.8474 6.90208 91.4604C7.26672 91.0733 7.70625 90.7645 8.19396 90.5525C8.68167 90.3406 9.20737 90.2301 9.73913 90.2276C10.2709 90.2251 10.7976 90.3308 11.2872 90.5382C11.7769 90.7456 12.2193 91.0504 12.5875 91.4341C12.9557 91.8177 13.242 92.2722 13.4292 92.77L18.6655 104.902L29.4974 111.138C28.3683 106.69 27.5962 102.159 27.1883 97.5882C25.2246 75.4973 30.4519 56.3427 41.1246 46.3791C41.8655 45.6654 42.0701 45.1018 42.2474 45.1973C41.8155 44.6518 41.1155 44.0154 40.6201 43.4973C30.2428 35.8018 13.1337 42.8291 2.80643 46.9063C0.129162 47.9609 -1.17538 45.3745 1.37007 43.8609C10.2337 38.62 28.4064 24.7882 38.5883 15.7109C40.011 14.4609 40.9837 12.9518 42.6337 11.5609C53.611 -7.82547 79.761 3.54726 92.111 1.32908C92.5746 1.24726 92.8655 1.79726 92.5292 2.12453V2.12453ZM42.6201 28.9382C42.8928 34.5836 45.361 37.12 47.1655 38.9745C48.1519 39.9927 49.1019 40.9563 49.5474 42.3291C50.6201 45.5745 49.511 49.1927 46.5474 52.07C37.5746 60.4336 33.2519 77.1927 35.011 96.8882C36.3337 111.834 41.5928 123.084 47.1519 135.002C51.8383 145.034 56.6792 155.406 58.8655 167.997C58.9928 168.734 58.9044 169.492 58.611 170.179C53.9746 181.243 53.4519 198.347 61.6655 213.179C64.0382 199.85 67.0263 186.637 70.6201 173.584C61.6928 153.184 51.5155 120.175 57.3519 93.2745C58.8292 86.47 63.2792 78.3836 68.2019 74.1518C69.1474 73.3336 70.0292 73.0745 70.4519 73.3927C70.8337 73.6654 71.1383 74.4745 70.7337 75.4109C68.2337 81.1654 66.7383 87.2245 65.161 94.8473C60.0473 119.588 69.5064 151.62 78.0473 171.129L78.5746 172.306L80.6519 176.77C82.2701 167.615 84.5155 158.815 86.6973 150.225C92.9701 125.652 98.8792 102.429 88.5201 76.3427C82.8519 62.0836 81.7792 50.47 80.9201 41.1336C80.3928 35.3927 79.9383 30.4291 78.5292 26.3518C74.4155 14.5109 64.611 11.9063 56.9655 13.3882C49.5474 14.8245 42.2383 20.6291 42.6201 28.9336V28.9382ZM55.6564 31.7563C54.9891 31.976 54.285 32.0621 53.5844 32.0096C52.8838 31.9572 52.2003 31.7673 51.5731 31.4507C50.9459 31.1342 50.3872 30.6971 49.9289 30.1647C49.4705 29.6322 49.1216 29.0146 48.9019 28.3473C48.6822 27.6799 48.5962 26.9758 48.6486 26.2752C48.701 25.5746 48.891 24.8912 49.2075 24.2639C49.5241 23.6367 49.9611 23.078 50.4936 22.6197C51.0261 22.1613 51.6436 21.8124 52.311 21.5927C52.9847 21.3487 53.7005 21.2424 54.416 21.2801C55.1316 21.3178 55.8322 21.4987 56.4766 21.8121C57.1209 22.1255 57.6958 22.5651 58.1672 23.1047C58.6385 23.6444 58.9968 24.2731 59.2207 24.9538C59.4446 25.6344 59.5297 26.353 59.4708 27.0671C59.412 27.7812 59.2104 28.4763 58.878 29.111C58.5456 29.7458 58.0892 30.3074 57.5359 30.7626C56.9825 31.2177 56.3434 31.5572 55.6564 31.7609V31.7563Z" fill="black"/>
</svg>
